STARTFONT 2.1
COMMENT
COMMENT Converted from OpenType font "RuthlessSketch_Regular.ttf" by "otf2bdf 3.0".
COMMENT
FONT -FreeType-Ruthless Sketch-Medium-R-Normal--89-640-100-100-P-441-ISO10646-1
SIZE 64 100 100
FONTBOUNDINGBOX 104 98 -40 -17
STARTPROPERTIES 19
FOUNDRY "FreeType"
FAMILY_NAME "Ruthless Sketch"
WEIGHT_NAME "Medium"
SLANT "R"
SETWIDTH_NAME "Normal"
ADD_STYLE_NAME ""
PIXEL_SIZE 89
POINT_SIZE 640
RESOLUTION_X 100
RESOLUTION_Y 100
SPACING "P"
AVERAGE_WIDTH 441
CHARSET_REGISTRY "ISO10646"
CHARSET_ENCODING "1"
FONT_ASCENT 83
FONT_DESCENT 18
COPYRIGHT "© 2024 GGBotNet. All Rights Reserved."
_OTF_FONTFILE "RuthlessSketch_Regular.ttf"
_OTF_PSNAME "RuthlessSketch-Regular"
ENDPROPERTIES
CHARS 1105
STARTCHAR 0020
ENCODING 32
SWIDTH 303 0
DWIDTH 27 0
BBX 0 0 0 0
BITMAP
ENDCHAR
STARTCHAR 0021
ENCODING 33
SWIDTH 292 0
DWIDTH 26 0
BBX 24 67 1 -1
BITMAP
003FFE
7FFFFF
FFFFFF
FFFFFF
FFFFFE
FFFFFE
7FFFFE
7FFFFE
7FFFFC
7FFFFC
7FFFFC
7FFFFC
7FFFFC
7FFFF8
7FFFF8
7FFFF8
7FFFF8
3FFFF8
3FFFF8
3FFFF0
3FFFF0
3FFFF0
3FFFF0
3FFFF0
1FFFF0
1FFFF0
1FFFF0
1FFFE0
1FFFE0
1FFFE0
1FFFE0
0FFFE0
0FFFE0
0FFFE0
0FFFE0
0FFFE0
0FFFE0
0FFFE0
07FFE0
07FFE0
07FFE0
07FFC0
07FFC0
07FF80
03FC00
000000
000000
000000
000000
000000
000000
003F80
00FFC0
03FFE0
07FFF0
07FFF0
0FFFF0
0FFFF0
0FFFF0
07FFF0
07FFF0
07FFF0
07FFF0
03FFF0
01FFF0
00FFC0
007F00
ENDCHAR
STARTCHAR 0022
ENCODING 34
SWIDTH 393 0
DWIDTH 35 0
BBX 33 33 1 32
BITMAP
0000006000
3FF807FC00
7FF80FFF00
7FF80FFF00
7FFC0FFF80
7FFC0FFF80
7FFC1FFF80
7FF81FFF80
7FF81FFF80
7FF80FFF80
FFF80FFF00
FFF80FFF00
FFF80FFF00
7FF80FFF00
7FF80FFF00
7FF80FFF00
7FF80FFF00
7FF807FF00
3FF807FE00
3FF807FE00
3FF007FE00
3FF003FE00
1FF003FE00
1FF003FC00
1FE003FC00
1FE001FC00
0FE001FC00
0FE001F800
0FC001F800
0FC000F800
07C000F800
07C000F800
03C000C000
ENDCHAR
STARTCHAR 0023
ENCODING 35
SWIDTH 517 0
DWIDTH 46 0
BBX 44 63 1 0
BITMAP
000000000800
000080800800
0000FF801E40
0001FF801FC0
0001FF803FC0
0001FF803FC0
0001FF803FC0
0003FF807F80
0003FF807F80
0003FF007F80
0003FF00FF00
0007FF00FF00
0007FF00FF00
0007FF01FF00
0007FE01FE00
000FFE01FE00
000FFFFFFFE0
7FFFFFFFFFE0
7FFFFFFFFFE0
7FFFFFFFFFF0
7FFFFFFFFFF0
7FFFFFFFFFF0
7FFFFFFFFFF0
7FFFFFFFFFF0
7FFFFFFFFFF0
7FFFFFFFFFF0
7FFFFFFFFFF0
7FFFFFFFF000
07BFF01FF000
007FE03FF000
007FE03FF000
007FE03FE000
007FC07FE000
007FC07FE000
00FFC07FFF80
1CFFFFFFFFF0
FFFFFFFFFFE0
FFFFFFFFFFE0
FFFFFFFFFFE0
7FFFFFFFFFE0
7FFFFFFFFFE0
7FFFFFFFFFE0
7FFFFFFFFFE0
7FFFFFFFFFE0
7FFFFFFFFFE0
7FFFFFFFFFE0
07FFFFFF0000
07FC07FF0000
07F807FF0000
07F807FE0000
0FF80FFE0000
0FF00FFE0000
0FF00FFE0000
0FF00FFC0000
1FE00FFC0000
1FE01FFC0000
1FE01FFC0000
3FC01FFC0000
3FC01FF80000
3FC01FF80000
3F801FF80000
23801FF00000
010000000000
ENDCHAR
STARTCHAR 0024
ENCODING 36
SWIDTH 495 0
DWIDTH 44 0
BBX 43 83 1 -10
BITMAP
000000C00000
0001FFE00000
0001FFE00000
0001FFE00000
0001FFE00000
0001FFE00000
0001FFE00000
0001FFE00000
0001FFE00000
0001FFE00000
0001FFE00000
0001FFE00000
0001FFFF0000
0003FFFFC000
000FFFFFF000
003FFFFFF800
007FFFFFFE00
01FFFFFFFF00
07FFFFFFFF80
0FFFFFFFFFC0
0FFFFFFFFFE0
1FFFFFFFFFE0
1FFFFFFFFFE0
1FFFFFFFFFE0
1FFFFFFFFFE0
1FFFFFFFFFC0
3FFFFFFFFFC0
3FFFFFF87FC0
3FFFFFE03F80
3FFFFFE00F00
3FFFFFE00000
3FFFFFE00000
1FFFFFE00000
0FFFFFE00000
0FFFFFE00000
0FFFFFE00000
0FFFFFE00000
07FFFFF80000
07FFFFFF8000
03FFFFFFE000
00FFFFFFE000
003FFFFFF000
000FFFFFF800
0001FFFFF800
0001FFFFFC00
0001FFFFFC00
0001FFFFFE00
0001FFFFFE00
0001FFFFFE00
0001FFFFFF00
1C01FFFFFF00
1FC1FFFFFF00
0FFFFFFFFF00
1FFFFFFFFF00
1FFFFFFFFE00
1FFFFFFFFE00
3FFFFFFFFE00
3FFFFFFFFC00
3FFFFFFFFC00
3FFFFFFFFC00
3FFFFFFFF800
3FFFFFFFF800
7FFFFFFFF000
7FFFFFFFF000
7FFFFFFFE000
7FFFFFFFE000
7FFFFFFFE000
7FFFFFFFC000
7FFFFFFF8000
FFFFFFFF0000
3FFFFFF80000
00FFFFF00000
0001FFF00000
0001FFF00000
0001FFF00000
0001FFE00000
0001FFE00000
0001FFE00000
0001FFE00000
0001FFE00000
0001FFE00000
0000FFE00000
000000600000
ENDCHAR
STARTCHAR 0025
ENCODING 37
SWIDTH 562 0
DWIDTH 50 0
BBX 48 61 1 1
BITMAP
000000000C00
000000001F80
003000001FE0
00FE00003FF0
03FF80003FF0
07FFC0007FE0
0FFFC0007FE0
1FFFE000FFC0
1FFFF000FFC0
3FFFF801FF80
7F87F803FF80
7F03F803FF00
7F03F807FF00
7F03FC07FE00
FE01FC0FFE00
FE01FC0FFC00
FF01FC1FFC00
7F01FC1FF800
7F03FC3FF800
7F03F83FF000
7F87F87FF000
7F8FF8FFE000
3FFFF0FFC000
3FFFF1FFC000
1FFFE1FF8000
0FFFC3FF8000
07FF87FF0000
03FE07FE0000
00780FFE0000
00000FFC0000
00001FFC0000
00001FF83F00
00003FF0FFC0
00007FF1FFE0
00007FE3FFF0
0000FFE3FFF8
0000FFC7FFF8
0001FF8FFFFC
0003FF8FF1FE
0003FF1FE0FE
0007FF1FE0FF
0007FE1FC07F
000FFC1FC07F
001FFC1FC07F
001FF81FC07F
003FF81FC07F
003FF01FC07F
007FE01FC0FF
00FFE01FE0FF
00FFC01FE1FE
01FF800FFFFE
01FF800FFFFE
03FF0007FFFC
07FF0003FFF8
07FE0003FFF0
0FFC0000FFE0
0FFC00003F80
1FF800000000
0FF000000000
07E000000000
03E000000000
ENDCHAR
STARTCHAR 0026
ENCODING 38
SWIDTH 506 0
DWIDTH 45 0
BBX 43 60 1 1
BITMAP
000FFC000000
007FFF000000
01FFFF800000
03FFFFC00000
07FFFFE00000
0FFFFFE00000
0FFFFFF00000
1FFFFFF00000
1FFFFFF00000
1FFE7FF00000
1FF83FF00000
1FF81FF00000
0FF81FF00000
0FF81FF00000
0FF83FF00000
0FFC7FE00000
0FFE7FE00000
07FFFFE00000
07FFFFC00000
03FFFFC00000
03FFFF800000
01FFFF800000
01FFFF81FF80
03FFFF81FF80
03FFFFC1FF80
07FFFFE1FF80
0FFFFFE1FF80
0FFFFFF1FF00
1FFFFFF9FF00
1FFFFFFFFF00
3FFFFFFFFF00
3FFE3FFFFE00
3FFC3FFFFE00
7FFC1FFFFE00
7FF80FFFFE00
7FF807FFFE00
7FF803FFFC00
7FF801FFFC00
7FF800FFFC00
FFF8007FFC00
FFF8003FFC00
FFF8001FFE00
FFF8003FFF00
FFFC003FFF80
7FFE007FFFC0
7FFF81FFFFC0
7FFFFFFFFFE0
7FFFFFFFFFE0
3FFFFFFFFFE0
3FFFFFFFFFE0
1FFFFFFFFFE0
1FFFFFFFDFE0
0FFFFFFFCFE0
07FFFFFF87E0
03FFFFFF83E0
00FFFFFF01E0
007FFFFC00E0
000FFFF00060
0001FF800060
000010000000
ENDCHAR
STARTCHAR 0027
ENCODING 39
SWIDTH 202 0
DWIDTH 18 0
BBX 17 33 1 32
BITMAP
03C000
3FFC00
7FFE00
7FFF00
7FFF00
FFFF00
FFFF00
FFFF00
7FFF00
7FFF00
7FFF80
FFFF80
FFFF00
FFFF00
FFFF00
7FFF00
7FFF00
7FFE00
7FFE00
3FFE00
3FFE00
3FFC00
1FFC00
1FFC00
1FF800
0FF800
0FF800
0FF000
07F000
07F000
07E000
07E000
03C000
ENDCHAR
STARTCHAR 0028
ENCODING 40
SWIDTH 348 0
DWIDTH 31 0
BBX 29 85 1 -13
BITMAP
00003000
00003C00
00007F00
0000FFC0
0001FFF0
0003FFF8
0003FFF8
0007FFF0
000FFFE0
001FFFC0
001FFFC0
003FFF00
007FFE00
007FFC00
00FFF000
01FFE000
01FFE000
03FFC000
07FFC000
07FF8000
0FFF8000
1FFF0000
1FFE0000
0FFE0000
1FFC0000
1FF80000
3FF80000
3FF80000
7FF00000
7FF00000
7FF00000
7FF00000
FFF00000
FFF00000
FFF00000
7FF00000
7FF00000
7FF00000
7FF00000
7FF00000
7FF00000
7FF00000
7FF00000
7FF00000
7FF00000
7FF00000
7FF00000
7FF00000
7FF00000
7FF00000
FFF00000
FFF00000
7FF00000
7FF00000
7FF00000
7FF00000
3FF80000
3FF80000
3FF80000
1FF80000
1FFC0000
0FFC0000
0FFE0000
0FFF0000
07FF8000
03FF8000
03FFC000
01FFC000
01FFC000
00FFE000
00FFF000
007FF000
003FFC00
003FFE00
001FFF00
000FFF80
000FFFC0
0007FFE0
0003FFF0
0001FFF8
0000FFF0
00007F80
00007F00
00003E00
00001000
ENDCHAR
STARTCHAR 0029
ENCODING 41
SWIDTH 348 0
DWIDTH 31 0
BBX 29 85 1 -13
BITMAP
00C00000
03E00000
03F00000
0FF80000
7FFC0000
7FFE0000
7FFE0000
3FFF0000
1FFF8000
0FFFC000
07FFC000
01FFE000
00FFF000
003FF000
003FF800
003FF800
001FFC00
001FFE00
000FFE00
000FFE00
000FFF00
0003FF00
0003FF80
0001FF80
0000FFC0
0000FFC0
00007FE0
00007FE0
00007FE0
00007FF0
00007FF0
00007FF0
00007FF0
00007FF8
00007FF8
00007FF0
00007FF0
00007FF0
00007FF0
00007FF0
00007FF0
00007FF0
00007FF8
00007FF8
00007FF8
00007FF8
00007FF8
00003FF8
00003FF8
00003FF8
00003FF8
00003FF0
00003FF0
00003FF0
00003FF0
00007FF0
00007FE0
00007FE0
0000FFE0
0000FFC0
0001FFC0
0003FFC0
0003FFC0
0007FF80
000FFF80
000FFF00
000FFF00
001FFE00
001FFC00
003FFC00
007FF800
00FFF800
03FFF000
07FFE000
1FFFC000
1FFFC000
1FFF8000
3FFF0000
7FFE0000
FFFE0000
3FFC0000
0FF80000
03F00000
00E00000
00200000
ENDCHAR
STARTCHAR 002A
ENCODING 42
SWIDTH 326 0
DWIDTH 29 0
BBX 27 26 1 39
BITMAP
001E0000
001F0000
001F0000
081F0200
1C1F0700
7F1F1F80
7F9F3FE0
3FDFFF80
1FFFFF00
07FFFE00
03FFF800
01FFF000
00FFC000
00FFC000
01FFF000
03FFF800
07FFFC00
1FFFFF00
3FDF7F80
FF9F3FC0
7E1F1F80
1C1E0700
081E0000
001E0000
001E0000
001E0000
ENDCHAR
STARTCHAR 002B
ENCODING 43
SWIDTH 472 0
DWIDTH 42 0
BBX 40 40 1 11
BITMAP
0003FFE000
0003FFE000
0003FFE000
0003FFE000
0003FFE000
0001FFE000
0001FFE000
0001FFE000
0001FFE000
0001FFE000
0003FFE000
0003FFE000
0003FFE000
3FFFFFFFFF
7FFFFFFFFF
7FFFFFFFFF
7FFFFFFFFF
7FFFFFFFFF
7FFFFFFFFF
7FFFFFFFFF
7FFFFFFFFF
7FFFFFFFFF
7FFFFFFFFF
7FFFFFFFFF
FFFFFFFFFF
3FFFFFFC3F
0003FFE000
0003FFE000
0003FFE000
0003FFE000
0003FFE000
0003FFE000
0003FFE000
0003FFE000
0003FFE000
0003FFC000
0003FFC000
0003FFC000
0003FFC000
0003C00000
ENDCHAR
STARTCHAR 002C
ENCODING 44
SWIDTH 202 0
DWIDTH 18 0
BBX 21 31 -3 -15
BITMAP
000E00
00FF80
01FFC0
03FFE0
07FFE0
07FFF0
07FFF0
07FFF0
07FFF0
07FFF8
07FFF0
03FFF0
03FFF0
01FFF0
01FFE0
00FFC0
007F80
00FF00
01FF00
0FFF00
1FFE00
7FFE00
FFFC00
FFFC00
7FF800
1FF800
0FF000
07F000
03E000
01C000
00C000
ENDCHAR
STARTCHAR 002D
ENCODING 45
SWIDTH 382 0
DWIDTH 34 0
BBX 32 14 1 24
BITMAP
7FFFFFFF
7FFFFFFF
7FFFFFFF
FFFFFFFF
FFFFFFFF
FFFFFFFF
FFFFFFFF
FFFFFFFF
FFFFFFFF
FFFFFFFF
FFFFFFFF
FFFFFFFF
7FFFFFFF
00000018
ENDCHAR
STARTCHAR 002E
ENCODING 46
SWIDTH 202 0
DWIDTH 18 0
BBX 17 17 1 -1
BITMAP
018000
0FF800
1FFE00
3FFF00
3FFF00
7FFF00
7FFF00
7FFF00
FFFF80
FFFF00
FFFF00
7FFF00
7FFF00
3FFE00
1FFC00
07F800
00E000
ENDCHAR
STARTCHAR 002F
ENCODING 47
SWIDTH 450 0
DWIDTH 40 0
BBX 38 72 1 -5
BITMAP
0000000800
0000001C00
0000001E0C
0000003FFC
0000003FFC
0000007FFC
000000FFF8
000000FFF8
000001FFF0
000001FFF0
000001FFF0
000003FFE0
000003FFE0
000007FFC0
000007FFC0
00000FFFC0
00000FFF80
00001FFF80
00001FFF80
00001FFF00
00003FFF00
00003FFE00
00007FFE00
00007FFE00
0000FFFC00
0000FFFC00
0000FFFC00
0001FFF800
0001FFF800
0003FFF800
0003FFF000
0003FFF000
0007FFF000
0007FFE000
000FFFE000
000FFFE000
001FFFE000
001FFFC000
001FFFC000
003FFFC000
003FFF8000
007FFF8000
007FFF8000
007FFF0000
00FFFF0000
00FFFF0000
01FFFE0000
01FFFE0000
01FFFE0000
03FFFE0000
03FFFC0000
07FFFC0000
07FFFC0000
07FFF80000
0FFFF80000
0FFFF80000
0FFFF80000
1FFFF00000
1FFFF00000
1FFFF00000
3FFFE00000
3FFFE00000
3FFFE00000
3FFFC00000
7FFFC00000
7FFFC00000
7FFF800000
7FFF800000
FFFF800000
7FFF000000
7FFF000000
7006000000
ENDCHAR
STARTCHAR 0030
ENCODING 48
SWIDTH 393 0
DWIDTH 35 0
BBX 33 62 1 1
BITMAP
001F800000
007FE00000
01FFF00000
01FFF80000
03FFFC0000
07FFFC0000
07FFFE0000
0FFFFF0000
0FFFFF8000
1FFFFF8000
1FFFFFE000
1FFFFFF000
0FFFFFF800
1FFFFFF800
1FFFFFFC00
1FFFFFFC00
3FFFFFFE00
3FFFFFFE00
3FFFFFFE00
3FFFDFFE00
7FFF0FFF00
7FFE0FFF00
7FFC0FFF00
7FFC07FF80
7FFC07FF80
7FFC07FF80
7FFC03FF80
7FFC03FF80
7FF803FF80
FFF803FF80
FFF803FF80
FFF803FF80
FFFC03FF80
FFFC03FF80
FFFC07FF80
7FFC07FF80
7FFE07FF80
7FFF0FFF80
7FFF9FFF80
7FFFFFFF80
3FFFFFFF80
3FFFFFFF80
3FFFFFFF00
1FFFFFFF00
1FFFFFFF00
1FFFFFFF00
0FFFFFFF00
0FFFFFFE00
07FFFFFE00
07FFFFFE00
03FFFFFE00
03FFFFFC00
01FFFFFC00
01FFFFFC00
00FFFFF800
00FFFFF800
007FFFF800
003FFFF000
001FFFE000
0007FFE000
0003FFC000
0000FF0000
ENDCHAR
STARTCHAR 0031
ENCODING 49
SWIDTH 427 0
DWIDTH 38 0
BBX 35 59 2 2
BITMAP
00001E0000
0000FFC000
0001FFE000
0003FFF800
0007FFF800
001FFFFC00
007FFFFC00
00FFFFFC00
03FFFFFC00
0FFFFFFC00
1FFFFFFC00
3FFFFFFC00
FFFFFFFC00
FFFFFFFC00
FFFFFFFC00
7FFDFFFC00
3FF9FFFC00
1FF9FFFC00
0FF9FFFC00
07F3FFFC00
03E3FFFC00
01E3FFFC00
00C3FFFC00
0043FFFE00
0003FFFE00
0007FFFE00
0007FFFC00
0007FFFC00
0007FFFE00
0007FFFE00
0007FFFE00
0007FFFE00
000FFFFE00
000FFFFE00
000FFFFE00
000FFFFE00
000FFFFE00
000FFFFE00
000FFFFE00
000FFFFE00
001FFFFE00
001FFFFF00
001FFFFF00
001FFFFF00
001FFFFF00
001FFFFF00
001FFFFF00
003FFFFF00
003FFFFF00
003FFFFF80
003FFFFF80
003FFFFF80
003FFFFF80
003FFFFF80
003FFFFFC0
003FFFFFC0
0007FFFFE0
00001FFFC0
0000000F80
ENDCHAR
STARTCHAR 0032
ENCODING 50
SWIDTH 506 0
DWIDTH 45 0
BBX 43 61 1 1
BITMAP
000380000000
000FF8000000
003FFF000000
007FFFC00000
00FFFFF00000
01FFFFFC0000
03FFFFFE0000
07FFFFFF8000
0FFFFFFF8000
3FFFFFFF8000
7FFFFFFF8000
7FFFFFFFC000
FFFFFFFFC000
7FFFFFFFC000
7FFFFFFF8000
3FFF3FFF8000
1FFC17FF8000
0FF803FF8000
07F003FF8000
07E003FFC000
03C003FFC000
018007FF8000
000007FF8000
000007FF8000
000007FF0000
00000FFF0000
00000FFF0000
00000FFE0000
00001FFE0000
00001FFE0000
00003FFC0000
00003FFC0000
00007FF80000
00007FF80000
0000FFF00000
0000FFF00000
0001FFE003E0
0001FFFFFFE0
0003FFFFFFE0
0003FFFFFFE0
0007FFFFFFE0
0007FFFFFFC0
000FFFFFFFC0
000FFFFFFFC0
001FFFFFFFC0
003FFFFFFFC0
003FFFFFFF80
007FFFFFFF80
007FFFFFFF80
00FFFFFFFF80
01FFFFFFFF00
01FFFFFFFF00
0FFFFFFFFF00
1FFFFFFFFF00
1FFFFFFFFF00
1FFFFFFFFE00
1FFFFFFFF000
07FFFFFF8000
01FFFFFC0000
001FFFE00000
0000FE000000
ENDCHAR
STARTCHAR 0033
ENCODING 51
SWIDTH 472 0
DWIDTH 42 0
BBX 40 60 1 0
BITMAP
007FFF0000
03FFFF8000
0FFFFFC000
1FFFFFC000
1FFFFFE000
1FFFFFE000
1FFFFFE000
1FFFFFC000
0FFFFFC000
07FBFFC000
01C1FF8000
0001FF8000
0003FF8000
0007FF0000
0007FF0000
000FFF0000
001FFE0000
001FFE0000
003FFC0000
007FFE0000
007FFFE000
00FFFFFC00
01FFFFFF00
01FFFFFF80
03FFFFFFE0
07FFFFFFE0
07FFFFFFF0
07FFFFFFF0
07FFFFFFF8
03FFFFFFF8
007FFFFFF8
000801FFFC
0000007FFC
0000003FFC
0000001FFC
0000000FFE
0000000FFE
0000000FFE
00000007FE
0000000FFE
00000007FF
0000000FFF
0000000FFF
0000001FFE
0000003FFE
0000007FFE
780000FFFE
FF0007FFFC
FFF1FFFFFC
7FFFFFFFF8
7FFFFFFFF8
7FFFFFFFF0
3FFFFFFFE0
1FFFFFFFC0
07FFFFFFC0
01FFFFFF00
007FFFFE00
003FFFF800
0007FFE000
00007F8000
ENDCHAR
STARTCHAR 0034
ENCODING 52
SWIDTH 438 0
DWIDTH 39 0
BBX 37 61 1 -1
BITMAP
0007FC0000
003FFC0000
007FFC0000
00FFF80000
00FFF80000
00FFF80000
007FF80000
00FFF00000
00FFF00000
00FFF00000
01FFE00000
01FFE00000
01FFE00000
01FFE00000
03FFC00000
03FFC00000
03FFC00000
07FFC00000
07FF800000
07FF800000
07FF800000
0FFF001060
0FFF0FFFF0
0FFFFFFFF0
0FFFFFFFF0
1FFFFFFFF0
1FFFFFFFF8
1FFFFFFFF8
1FFFFFFFF8
3FFFFFFFF8
3FFFFFFFF8
3FFFFFFFF8
7FFFFFFFF8
7FFFFFFFE0
7FFFFFFF00
7FFFFFF800
FF003FF000
70003FF000
00007FF000
00007FF000
00007FF000
0000FFF000
0000FFF000
0000FFF000
0001FFF000
0001FFF000
0001FFF000
0003FFF800
0003FFF800
0003FFF800
0007FFF800
0007FFF800
0007FFF800
000FFFF800
000FFFFC00
000FFFFC00
001FFFFC00
001FFFFC00
001FFFFC00
003FFFF800
001E000000
ENDCHAR
STARTCHAR 0035
ENCODING 53
SWIDTH 483 0
DWIDTH 43 0
BBX 41 61 1 0
BITMAP
0000013FF000
00000FFFF800
007FFFFFF800
007FFFFFF800
007FFFFFF800
007FFFFFF800
007FFFFFF800
007FFFFFF000
007FFFFFE000
007FFFFF0000
007FFC000000
00FFF8000000
00FFF8000000
00FFF8000000
00FFF8000000
00FFF8000000
00FFF8000000
01FFFF800000
01FFFFE00000
01FFFFF80000
01FFFFFC0000
03FFFFFE0000
03FFFFFF0000
03FFFFFF8000
03FFFFFFC000
07FFFFFFE000
0FFFFFFFE000
0F8FFFFFF000
0F003FFFF800
00000FFFF800
000007FFFC00
000003FFFC00
000003FFFE00
000001FFFF00
000000FFFF00
000000FFFF00
0000007FFF00
0000007FFF00
0000007FFF00
0000007FFF80
0000007FFF80
0000003FFF80
0000003FFF80
0000007FFF80
E000007FFF80
F00000FFFF00
780000FFFF00
7C0001FFFF00
7F0003FFFE00
7FE007FFFE00
7FFFFFFFFC00
3FFFFFFFFC00
3FFFFFFFF800
3FFFFFFFF800
3FFFFFFFF000
1FFFFFFFE000
07FFFFFFC000
01FFFFFF8000
007FFFFF0000
000FFFFE0000
0001FFF80000
ENDCHAR
STARTCHAR 0036
ENCODING 54
SWIDTH 495 0
DWIDTH 44 0
BBX 42 64 1 -2
BITMAP
0000000C0000
0000007F0000
000007FF8000
00001FFFE000
00003FFFF000
0000FFFFF800
0001FFFFF800
0003FFFFFC00
0007FFFFFC00
001FFFFFFC00
003FFFFFF800
007FFFFFF000
00FFFF800000
00FFFC000000
01FFF0000000
03FFE0000000
03FFC0000000
07FFC0000000
0FFF80000000
1FFF80000000
1FFF80000000
1FFF80000000
3FFF80000000
3FFFC0000000
3FFFFFE00000
3FFFFFF80000
7FFFFFFE0000
7FFFFFFF8000
7FFFFFFFC000
7FFFFFFFE000
7FFFFFFFF000
7FFFFFFFF800
7FFFFFFFF800
7FFFFFFFFE00
FFFFFFFFFF00
FFFFC1FFFF00
FFFF807FFF80
FFFF803FFF80
7FFF001FFF80
7FFF001FFF80
7FFE000FFF80
7FFE000FFF80
7FFE000FFFC0
7FFE000FFFC0
3FFE000FFFC0
3FFC000FFFC0
3FFC000FFFC0
3FFC000FFFC0
1FFE001FFFC0
1FFE001FFF80
1FFF003FFF80
1FFF803FFF80
1FFFC07FFF00
0FFFE1FFFF00
0FFFFFFFFE00
07FFFFFFFE00
07FFFFFFFC00
03FFFFFFF800
00FFFFFFF000
007FFFFFE000
003FFFFFC000
000FFFFF0000
0003FFFC0000
0000FFC00000
ENDCHAR
STARTCHAR 0037
ENCODING 55
SWIDTH 416 0
DWIDTH 37 0
BBX 35 58 1 2
BITMAP
0000FFFFE0
1FFFFFFFE0
7FFFFFFFE0
7FFFFFFFE0
7FFFFFFFE0
7FFFFFFFE0
7FFFFFFFE0
7FFFFFFFE0
7FFFFFFFC0
7FFFFFFFC0
7FFFFFFFC0
7FFFFFFFC0
7FFFFFFFC0
7FFFFFFFC0
7FFFFFFFC0
7F000FFFC0
780007FFC0
70000FFFC0
00001FFFC0
00001FFFC0
00003FFFC0
00007FFF80
00007FFF80
0000FFFF80
0000FFFF00
0001FFFF00
0001FFFF00
0003FFFF00
0003FFFE00
0007FFFE00
0007FFFE00
000FFFFC00
000FFFFC00
001FFFFC00
003FFFFC00
003FFFF800
007FFFF800
007FFFF800
00FFFFF800
00FFFFF000
01FFFFF000
01FFFFF000
03FFFFF000
03FFFFE000
07FFFFE000
07FFFFE000
0FFFFFC000
0FFFFFC000
1FFFFFC000
1FFFFFC000
3FFFFFC000
3FFFFFC000
3FFFFFC000
7FFFFFC000
7FFFFE8000
7FFF800000
FFF0000000
7C00000000
ENDCHAR
STARTCHAR 0038
ENCODING 56
SWIDTH 495 0
DWIDTH 44 0
BBX 42 63 1 0
BITMAP
00001E000000
0000FFE00000
0007FFF80000
001FFFFC0000
003FFFFE0000
007FFFFF0000
00FFFFFF0000
01FFFFFF8000
01FFFFFF8000
03FFFFFF8000
03FFFFFF8000
03FFC0FF8000
03FFC0FF8000
03FFC0FFC000
03FFC0FFC000
03FFC1FF8000
01FFE3FF8000
01FFF7FF0000
00FFFFFE0000
007FFFFE0000
007FFFFC0000
007FFFFC0000
00FFFFFE0000
01FFFFFE0000
01FFFFFF0000
03FFFFFF8000
03FFFFFFC000
07FFFFFFE000
07FFFFFFF000
0FFFFFFFF000
0FFFFFFFF800
1FFFFFFFFC00
1FFFEFFFFC00
1FFFC3FFFE00
3FFF80FFFE00
3FFF007FFF00
3FFF003FFF00
7FFE001FFF80
7FFE001FFF80
7FFE000FFF80
7FFE000FFFC0
FFFE000FFFC0
FFFE0007FFC0
7FFF0007FFC0
7FFF800FFFC0
7FFFC00FFFC0
7FFFC01FFFC0
3FFFF03FFFC0
3FFFFFFFFFC0
3FFFFFFFFFC0
3FFFFFFFFFC0
1FFFFFFFFF80
1FFFFFFFFF00
0FFFFFFFFF00
07FFFFFFFE00
03FFFFFFFE00
01FFFFFFFC00
00FFFFFFF800
007FFFFFF000
001FFFFFE000
0003FFFF8000
0000FFFC0000
00000FF00000
ENDCHAR
STARTCHAR 0039
ENCODING 57
SWIDTH 461 0
DWIDTH 41 0
BBX 39 59 1 1
BITMAP
0001FF8000
01FFFFF000
03FFFFFE00
07FFFFFF80
0FFFFFFFC0
1FFFFFFFE0
1FFFFFFFF0
3FFFFFFFF0
3FFFFFFFF8
3FFFFFFFF8
3FFF8FFFFC
3FFC03FFFC
3FFC00FFFC
7FFC007FFC
7FFC007FFC
7FFC007FFC
7FFC007FFC
7FFC007FFC
7FFC007FFE
FFFC007FFE
FFFC007FFE
FFFC00FFFE
7FFE01FFFE
7FFF07FFFE
7FFFFFFFFE
7FFFFFFFFE
3FFFFFFFFE
3FFFFFFFFE
1FFFFFFFFE
0FFFFFFFFE
07FFFFFFFE
01FFFFFFFE
007FFFFFFC
0000FFFFFC
000000FFFC
0000003FFC
0000001FFC
0000001FFC
0000003FFC
0000003FFC
0000003FFC
0000003FFC
1C00007FFC
1F0000FFFC
1FC001FFFC
1FF007FFFC
1FFFBFFFFC
1FFFFFFFF8
1FFFFFFFF8
0FFFFFFFF8
0FFFFFFFF0
0FFFFFFFF0
0FFFFFFFE0
0FFFFFFFE0
07FFFFFFC0
03FFFFFFC0
00FFFFFF80
003FFFFF00
0007FFF800
ENDCHAR
STARTCHAR 003A
ENCODING 58
SWIDTH 202 0
DWIDTH 18 0
BBX 17 45 1 -1
BITMAP
01C000
0FF000
3FFC00
7FFC00
7FFE00
7FFF00
FFFF00
FFFF00
FFFF00
FFFF80
7FFF00
7FFF00
7FFF00
3FFE00
1FFC00
0FF000
020000
000000
000000
000000
000000
000000
000000
000000
000000
000000
000000
000000
00E000
07F800
1FFC00
3FFE00
7FFF00
7FFF00
FFFF00
FFFF00
FFFF80
7FFF80
7FFF00
7FFF00
3FFF00
1FFF00
1FFE00
07F800
008000
ENDCHAR
STARTCHAR 003B
ENCODING 59
SWIDTH 202 0
DWIDTH 18 0
BBX 21 59 -3 -15
BITMAP
001C00
00FF80
01FFE0
03FFF0
03FFF0
07FFF0
07FFF0
07FFF8
0FFFF8
0FFFF0
0FFFF0
07FFF0
07FFF0
03FFE0
01FFC0
007F80
000200
000000
000000
000000
000000
000000
000000
000000
000000
000000
000000
000000
000E00
00FF80
01FFC0
03FFE0
07FFE0
07FFF0
07FFF0
07FFF0
07FFF0
07FFF8
07FFF0
03FFF0
03FFF0
01FFF0
01FFE0
00FFC0
007F80
00FF00
01FF00
0FFF00
1FFE00
7FFE00
FFFC00
FFFC00
7FF800
1FF800
0FF000
07F000
03E000
01C000
00C000
ENDCHAR
STARTCHAR 003C
ENCODING 60
SWIDTH 472 0
DWIDTH 42 0
BBX 40 50 1 6
BITMAP
000000000C
000000001E
000000007E
00000001FF
00000007FF
0000001FFF
0000007FFF
000001FFFF
000003FFFF
00000FFFFF
00003FFFFF
0000FFFFFF
0003FFFFFF
000FFFFFFF
003FFFFFFF
01FFFFFFFF
07FFFFFFFF
3FFFFFFFFE
7FFFFFFFFE
7FFFFFFFF0
7FFFFFFC00
FFFFFFC000
FFFFF80000
FFFFE00000
FFFF800000
FFFFE00000
7FFFFE0000
7FFFFFC000
7FFFFFF800
1FFFFFFF80
0FFFFFFFF0
03FFFFFFFC
01FFFFFFFE
00FFFFFFFE
003FFFFFFE
001FFFFFFE
0007FFFFFE
0003FFFFFE
0000FFFFFE
00007FFFFE
00001FFFFE
00000FFFFE
000003FFFE
000001FFFE
0000007FFE
0000001FFF
00000007FF
00000001FF
000000003F
0000000003
ENDCHAR
STARTCHAR 003D
ENCODING 61
SWIDTH 472 0
DWIDTH 42 0
BBX 41 32 1 15
BITMAP
00107FFFFF00
7FFFFFFFFF00
7FFFFFFFFF00
7FFFFFFFFF00
7FFFFFFFFF00
7FFFFFFFFF00
7FFFFFFFFF80
7FFFFFFFFF80
7FFFFFFFFF80
7FFFFFFFFF80
7FFFFFFFFF80
7FFFFFFFCE00
0FFC00000000
000000000000
000000000000
000000000000
000000000000
000000000000
000000003000
00003FFFFF00
7FFFFFFFFF00
FFFFFFFFFF00
FFFFFFFFFF00
FFFFFFFFFF00
7FFFFFFFFF00
7FFFFFFFFF00
7FFFFFFFFF00
7FFFFFFFFF00
7FFFFFFFFF00
7FFFFFFFFF00
7FFFFFFFFE00
3FFFF0000000
ENDCHAR
STARTCHAR 003E
ENCODING 62
SWIDTH 472 0
DWIDTH 42 0
BBX 40 50 1 6
BITMAP
6000000000
7E00000000
7FC0000000
7FF0000000
7FFC000000
7FFF000000
7FFF800000
7FFFE00000
7FFFF00000
3FFFFC0000
3FFFFE0000
3FFFFF8000
3FFFFFC000
3FFFFFF000
3FFFFFF800
3FFFFFFE00
3FFFFFFF00
3FFFFFFFC0
1FFFFFFFE0
07FFFFFFF0
00FFFFFFFC
001FFFFFFE
0001FFFFFF
00003FFFFF
000007FFFF
000001FFFF
000003FFFF
00001FFFFF
0001FFFFFF
003FFFFFFF
07FFFFFFFF
7FFFFFFFFF
7FFFFFFFFC
7FFFFFFFE0
7FFFFFFF80
7FFFFFFE00
7FFFFFF800
7FFFFFE000
FFFFFF8000
FFFFFE0000
FFFFF80000
FFFFE00000
7FFF800000
7FFE000000
7FF8000000
7FE0000000
7F80000000
7F00000000
3800000000
3000000000
ENDCHAR
STARTCHAR 003F
ENCODING 63
SWIDTH 461 0
DWIDTH 41 0
BBX 39 65 1 -1
BITMAP
000F800000
00FFFFF000
03FFFFFF00
07FFFFFFE0
0FFFFFFFF0
0FFFFFFFF8
1FFFFFFFF8
3FFFFFFFFC
3FFFFFFFFC
3FFFFFFFFC
7FFFFFFFFC
7FFFFFFFFE
7FFFFFFFFE
7FFFFFFFFE
FFFE01FFFE
7FF801FFFE
3FE000FFFE
1F8000FFFE
070000FFFE
000000FFFE
000000FFFE
000000FFFE
000000FFFC
000000FFFC
000001FFFC
000003FFFC
00000FFFFC
00003FFFF8
0003FFFFF8
000FFFFFF0
000FFFFFE0
001FFFFFC0
003FFFFF00
003FFFFE00
003FFFF800
003FFFF000
003FFFC000
003FFF8000
003FFF0000
003FFF0000
003FFF0000
003FFF0000
003FFE0000
003FFE0000
0007E00000
0000000000
0000000000
0000000000
0000000000
0000000000
0001F80000
0007FC0000
001FFE0000
003FFF0000
003FFF0000
007FFF8000
007FFF8000
007FFF8000
007FFF8000
003FFF8000
003FFF8000
001FFF0000
000FFE0000
0007F80000
0001C00000
ENDCHAR
STARTCHAR 0040
ENCODING 64
SWIDTH 663 0
DWIDTH 59 0
BBX 57 77 1 -13
BITMAP
000000FFF8000000
00000FFFFF000000
00007FFFFFE00000
0001FFFFFFF00000
0007FFFFFFFC0000
001FFFFFFFFE0000
003FFFFFFFFF8000
00FFFFFFFFFF8000
00FFFFFFFFFFC000
01FFFFFFFFFFE000
03FFFFFFFFFFE000
03FFFFFFFFFFF000
07FFFFFFFFFFF000
07FFFFFFFFFFF000
0FFFFFFFFFFFF800
0FFFFFFFFFFFF800
1FFFFFFFFFFFF800
1FFFFFC007FFFC00
1FFFFE0003FFFC00
3FFFF80001FFFC00
3FFFF00001FFFE00
3FFFE00000FFFE00
3FFFC0001FFFFE00
7FFF8001FFFFFE00
7FFF0007FFFFFF00
7FFF001FFFFFFF00
7FFE003FFFFFFF00
7FFE007FFFFFFF00
7FFE00FFFFFFFF00
7FFE00FFFFFFFF80
FFFE03FFF07FFF80
FFFE03FFE03FFF80
FFFE03FFC01FFF80
FFFE07FF801FFF80
FFFE07FF801FFF80
FFFE07FF000FFF80
FFFE07FF000FFF80
FFFE07FF000FFF80
FFFE07FF000FFF80
FFFE07FF000FFF00
7FFE07FF001FFF00
7FFE07FF003FFF00
7FFE07FF807FFF00
7FFE07FF80FFFF00
7FFE07FFC3FFFE00
7FFE03FFFFFFFE00
7FFE03FFFFFFFE00
7FFF01FFFFFFFC00
7FFF01FFFFFFF800
7FFF00FFFFFFF000
7FFF007FFFFFC000
7FFF803FFFFF8000
3FFF801FFFFE0000
3FFF8007FFF00000
3FFFC000FF800000
3FFFC00000000000
3FFFE00000000000
1FFFE00000000000
1FFFF00000040000
1FFFF800003F0000
1FFFFC0003FF8000
0FFFFE3FFFFFC000
0FFFFFFFFFFFC000
0FFFFFFFFFFFE000
07FFFFFFFFFFF000
07FFFFFFFFFFF800
03FFFFFFFFFFF000
03FFFFFFFFFFE000
01FFFFFFFFFFC000
01FFFFFFFFFF8000
00FFFFFFFFFF0000
007FFFFFFFFE0000
003FFFFFFFF80000
000FFFFFFFF00000
0003FFFFFFC00000
00003FFFFF000000
000001FFFC000000
ENDCHAR
STARTCHAR 0041
ENCODING 65
SWIDTH 630 0
DWIDTH 56 0
BBX 54 62 1 -2
BITMAP
0000000F800000
0000007FC00000
000000FFC00000
000000FFE00000
000000FFE00000
000001FFE00000
000001FFE00000
000001FFF00000
000003FFF00000
000003FFF00000
000007FFF00000
000007FFF80000
000007FFF80000
00000FFFF80000
00000FFFF80000
00000FFFFC0000
00001FFFFC0000
00001FFFFC0000
00003FFFFC0000
00003FFFFE0000
00003FFFFE0000
00007FFFFE0000
00007FFFFF0000
00007FFFFF0000
0000FFFFFF0000
0000FFFFFF8000
0001FFFFFF8000
0001FFFFFF8000
0003FFFFFF8000
0003FFFFFFC000
0007FFFFFFC000
0007FFFFFFC000
0007FE3FFFE000
000FFC3FFFE000
000FF81FFFE000
001FF81FFFF000
001FF00FFFF000
003FE00FFFF000
003FE00FFFF800
007FC00FFFF800
007FC07FFFF800
007FFFFFFFFC00
00FFFFFFFFFC00
00FFFFFFFFFE00
01FFFFFFFFFE00
01FFFFFFFFFE00
03FFFFFFFFFF00
03FFFFFFFFFF00
07FFFE0FFFFF80
07FFF007FFFF80
07FFE007FFFF80
0FFFC007FFFFC0
0FFFC007FFFFC0
1FFFC003FFFFE0
1FFFC003FFFFE0
3FFF8003FFFFF0
3FFF8001FFFFF0
3FFF8001FFFFF8
7FFFC001FFFFF8
7FFFC000FFFFFC
FFFF0000F80078
7F000000000000
ENDCHAR
STARTCHAR 0042
ENCODING 66
SWIDTH 517 0
DWIDTH 46 0
BBX 44 60 1 1
BITMAP
00FFB0000000
07FFFF800000
1FFFFFF00000
7FFFFFFC0000
7FFFFFFF0000
7FFFFFFF0000
7FFFFFFF8000
FFFFFFFF8000
7FFFFFFF8000
7FFFFFFFC000
7FFFFFFFE000
7FFFFFFFF000
7FFFFFFFF000
7FFFFFFFF000
3FFF83FFF000
3FFF80FFF000
3FFF807FF000
3FFF807FF000
1FFF807FF000
1FFF807FF000
1FFF807FF000
1FFF807FE000
1FFFC07FE000
1FFFC0FFE000
1FFFE1FFE000
0FFFF7FFC000
0FFFFFFF8000
0FFFFFFE0000
0FFFFFFE0000
0FFFFFFF8000
0FFFFFFFF000
0FFFFFFFFC00
0FFFFFFFFE00
0FFFFFFFFE00
0FFFFFFFFF00
07FFFFFFFF80
07FFFC7FFFC0
07FFFC07FFC0
07FFF807FFE0
07FFF807FFE0
07FFF807FFF0
07FFFC07FFF0
07FFFC07FFF0
07FFFC0FFFF0
07FFFC1FFFF0
03FFFC3FFFF0
03FFFC7FFFE0
03FFFCFFFFE0
03FFFFFFFFE0
03FFFFFFFFE0
03FFFFFFFFC0
03FFFFFFFF80
03FFFFFFFF00
01FFFFFFFE00
01FFFFFFFC00
01FFFFFFF800
01FFFFFFF000
01FFFFFF8000
00FFFFF00000
007FFC000000
ENDCHAR
STARTCHAR 0043
ENCODING 67
SWIDTH 483 0
DWIDTH 43 0
BBX 41 60 1 1
BITMAP
000000400000
00000FFE0000
00007FFFC000
0001FFFFF000
000FFFFFF800
003FFFFFFE00
007FFFFFFF00
00FFFFFFFF80
01FFFFFFFF80
03FFFFFFFF80
07FFFFFFFF80
0FFFFFFFFF80
0FFFFFFFFF80
1FFFFFFFFF80
1FFFFFFFFF80
3FFFFFFFFF00
3FFFFFFFFF00
3FFFFFFE3600
7FFFFF800000
7FFFFE000000
7FFFFC000000
7FFFF8000000
FFFFF0000000
7FFFE0000000
7FFFE0000000
7FFFC0000000
FFFFC0000000
FFFFC0000000
FFFFC0000000
7FFFC0000000
7FFFC0000000
7FFFE0000000
7FFFF0000000
FFFFF8000200
FFFFFC00FF00
7FFFFF7FFF00
7FFFFFFFFF80
7FFFFFFFFF80
7FFFFFFFFF80
7FFFFFFFFF80
3FFFFFFFFF80
3FFFFFFFFF00
3FFFFFFFFF00
3FFFFFFFFF00
1FFFFFFFFF00
1FFFFFFFFF00
0FFFFFFFFF00
0FFFFFFFFF00
0FFFFFFFFF80
07FFFFFFFF00
07FFFFFFFF00
03FFFFFFFE00
03FFFFFFFC00
01FFFFFFF800
00FFFFFFF000
00FFFFFFF000
007FFFFFE000
0007FFFF8000
0001FFFE0000
000003F00000
ENDCHAR
STARTCHAR 0044
ENCODING 68
SWIDTH 461 0
DWIDTH 41 0
BBX 39 61 1 0
BITMAP
03F0000000
0FFFC00000
3FFFF80000
7FFFFE0000
FFFFFFC000
FFFFFFF000
FFFFFFF800
FFFFFFFC00
FFFFFFFE00
FFFFFFFE00
FFFFFFFF00
FFFFFFFF80
FFFFFFFFC0
FFFFFFFFC0
7FFFFFFFE0
7FFFFFFFF0
7FFFFFFFF0
7FFFC3FFF8
7FFF80FFF8
7FFF803FF8
7FFF801FFC
7FFF801FFC
7FFF801FFC
7FFF001FFE
7FFF801FFE
7FFF801FFE
3FFF801FFE
3FFF803FFE
3FFF803FFE
3FFFC03FFC
3FFFC07FFC
3FFFC07FFC
1FFFC0FFF8
1FFFC1FFF8
1FFFC3FFF0
1FFFC7FFF0
1FFFFFFFE0
1FFFFFFFE0
0FFFFFFFC0
0FFFFFFFC0
0FFFFFFF80
0FFFFFFF80
0FFFFFFF00
07FFFFFF00
07FFFFFE00
07FFFFFE00
07FFFFFC00
07FFFFF800
03FFFFF800
03FFFFF000
03FFFFE000
03FFFFC000
01FFFF8000
01FFFF0000
01FFFC0000
01FFF80000
00FFE00000
00FF800000
00FE000000
00F0000000
0040000000
ENDCHAR
STARTCHAR 0045
ENCODING 69
SWIDTH 495 0
DWIDTH 44 0
BBX 42 62 1 0
BITMAP
003FFF000000
01FFFFFC0000
0FFFFFFF8000
3FFFFFFF8000
7FFFFFFF8000
FFFFFFFF0000
7FFFFFFF0000
7FFFFFFF0000
3FFFFFFE0000
3FFFFFFE0000
3FFFFFFE0000
3FFFFFFE0000
1FFFFFFE0000
1FFFFFFE0000
1FFFFFFC0000
1FFFFFFE0000
1FFFFFFE0000
0FFFFFFC0000
0FFFFFF80000
0FFFF0000000
0FFFE0000000
0FFFE0000000
0FFFE0000000
07FFE0000000
07FFF0000000
07FFF07C0000
07FFFFFE0000
07FFFFFC0000
03FFFFFC0000
03FFFFFC0000
03FFFFFC0000
03FFFFFC0000
03FFFFFE0000
03FFFFFE0000
01FFFFEE0000
01FFF8000000
01FFF8000000
01FFFC000000
01FFFC001800
01FFFFFFFC00
00FFFFFFFC00
00FFFFFFFE00
01FFFFFFFE00
00FFFFFFFE00
00FFFFFFFF00
00FFFFFFFF00
007FFFFFFF00
00FFFFFFFF00
00FFFFFFFF00
00FFFFFFFF80
007FFFFFFF80
007FFFFFFF80
007FFFFFFF80
007FFFFFFF80
007FFFFFFFC0
007FFFFFFF80
007FFFFFF800
007FFFFFC000
003FFFFC0000
003FFFC00000
003FF8000000
001C00000000
ENDCHAR
STARTCHAR 0046
ENCODING 70
SWIDTH 506 0
DWIDTH 45 0
BBX 43 62 1 1
BITMAP
00000FFFFE00
009FFFFFFF00
07FFFFFFFF80
3FFFFFFFFF80
7FFFFFFFFF80
FFFFFFFFFF80
FFFFFFFFFF80
FFFFFFFFFFC0
FFFFFFFFFFC0
FFFFFFFFFFC0
FFFFFFFFFFC0
FFFFFFFFFFC0
FFFFFFFFFFE0
FFFFFFC00000
FFFFF8000000
FFFFC0000000
FFFFC0000000
FFFF80000000
7FFF80000000
7FFF80000000
7FFF80000000
7FFF80000000
7FFF80000000
7FFF8FC00000
7FFFFFE00000
7FFFFFE00000
7FFFFFE00000
7FFFFFE00000
7FFFFFC00000
7FFFFFC00000
7FFFFFC00000
7FFFFFC00000
7FFFFFE00000
7FFFFFE00000
7FFFFFE00000
FFFFC0E00000
FFFF80C00000
7FFF80000000
7FFF00000000
7FFF00000000
FFFF00000000
FFFF00000000
FFFF00000000
FFFF00000000
7FFF00000000
FFFF00000000
7FFF00000000
7FFF00000000
7FFF00000000
7FFF00000000
7FFF00000000
7FFF80000000
7FFF80000000
7FFF80000000
3FFF80000000
3FFFC0000000
3FFFC0000000
3FFFC0000000
3FFFE0000000
3FFFE0000000
1FFE00000000
1E0000000000
ENDCHAR
STARTCHAR 0047
ENCODING 71
SWIDTH 506 0
DWIDTH 45 0
BBX 43 60 1 1
BITMAP
00003FF00000
00007FFF8000
0001FFFFE000
0003FFFFF000
0007FFFFF800
000FFFFFFC00
000FFFFFFE00
001FFFFFFF00
003FFFFFFF00
007FFFFFFF80
007FFFFFFF80
00FFFFFFFF80
00FFFFFFFF00
01FFFFDFFE00
01FFFE03F800
03FFF0000000
03FFE0000000
03FFC0000000
07FF80000000
07FF80000000
07FF00000000
0FFF00000000
0FFF00000000
0FFE00000000
0FFE00000000
1FFE00000F80
1FFE0007FFE0
1FFC007FFFC0
1FFC03FFFFC0
3FFC03FFFFC0
3FFC01FFFFC0
3FFC01FFFFC0
3FFC01FFFFC0
3FFC00FFFFC0
7FFC00FFFFC0
7FFC00FFFFC0
7FFE00FFFFC0
7FFE00FFFFC0
7FFE00FFFFC0
7FFE00FFFFC0
7FFF00FFFFC0
FFFFC3FFFFC0
FFFFFFFFFFC0
FFFFFFFFFFC0
7FFFFFFFFFC0
7FFFFFFFFFC0
7FFFFFFFFFC0
7FFFFFFFFFC0
7FFFFFFFFF80
7FFFFFFFFF00
3FFFFFFFFC00
3FFFFFFFF800
1FFFFFFFF000
0FFFFFFFC000
07FFFFFF0000
03FFFFFC0000
01FFFFF00000
00FFFFC00000
007FFE000000
001FE0000000
ENDCHAR
STARTCHAR 0048
ENCODING 72
SWIDTH 562 0
DWIDTH 50 0
BBX 47 59 2 1
BITMAP
0007FE000000
007FFF800000
03FFFF007FFC
07FFFE00FFFE
0FFFFE00FFFE
0FFFFC01FFFE
07FFFC01FFFE
07FFFF01FFFC
07FFFF01FFFC
03FFFF01FFFC
03FFFE01FFFC
07FFFE01FFFC
07FFFE03FFFC
07FFFE03FFFC
07FFFE03FFFC
07FFFE03FFFC
07FFFE03FFFC
07FFFE03FFFC
07FFFE03FFFC
07FFFE03FFFC
0FFFFE03FFFC
0FFFFE07FFF8
0FFFFF9FFFF8
0FFFFFFFFFF8
0FFFFFFFFFF8
0FFFFFFFFFF8
0FFFFFFFFFF8
0FFFFFFFFFF8
0FFFFFFFFFF8
1FFFFFFFFFF8
1FFFFFFFFFF8
1FFFFFFFFFF8
1FFFFFFFFFF8
1FFFFFFFFFFC
1FFFFFFFFFFC
1FFFFFFFFFFC
1FFFFFFFFFFC
1FFFFFFFFFFC
1FFFFFFFFFFC
1FFFFDFFFFFC
3FFFF80FFFF8
3FFFF80FFFF8
3FFFF80FFFF8
3FFFF80FFFF8
3FFFF80FFFF8
3FFFF80FFFF8
3FFFF80FFFF8
3FFFF80FFFF8
3FFFF81FFFF8
3FFFF81FFFF0
3FFFF81FFFF0
7FFFF81FFFF0
7FFFF81FFFF0
7FFFF80FFFF0
7FFFF80FFFF0
7FFFF80FFFF0
FFFFF01FFC00
FFFFF01FE000
001FC01C0000
ENDCHAR
STARTCHAR 0049
ENCODING 73
SWIDTH 326 0
DWIDTH 29 0
BBX 27 60 1 0
BITMAP
007FFE00
00FFFFE0
01FFFFE0
01FFFFE0
01FFFFC0
00FFFFC0
00FFFFC0
01FFFFC0
01FFFFC0
01FFFF80
01FFFF80
01FFFF80
01FFFF80
03FFFF80
03FFFF80
03FFFF80
03FFFF80
03FFFF80
03FFFF80
03FFFF00
03FFFF00
07FFFF00
07FFFF00
07FFFF00
07FFFF00
07FFFF00
07FFFF00
07FFFF00
07FFFF00
07FFFF00
07FFFF00
07FFFF00
07FFFF00
07FFFF00
0FFFFF00
0FFFFF00
0FFFFF00
0FFFFF00
0FFFFF00
0FFFFF00
0FFFFF00
0FFFFF00
0FFFFF00
0FFFFF00
0FFFFF00
0FFFFF00
0FFFFF00
0FFFFF00
0FFFFF00
0FFFFE00
0FFFFE00
0FFFFC00
1FFFFC00
1FFFFE00
1FFFFE00
1FFFFE00
3FFFFC00
3FFFF000
FFF80000
7E000000
ENDCHAR
STARTCHAR 004A
ENCODING 74
SWIDTH 450 0
DWIDTH 40 0
BBX 39 61 1 -1
BITMAP
00003FC0F0
00003FFFF0
00003FFFF8
00003FFFF8
00007FFFF8
00007FFFF8
00007FFFF8
00007FFFF8
00007FFFF8
0000FFFFFC
0000FFFFFC
0000FFFFFC
0000FFFFFC
0000FFFFFC
0001FFFFF8
0001FFFFF8
0001FFFFF8
0001FFFFFC
0000FFFFFC
0001FFFFFC
0001FFFFFC
0001FFFFFC
0000FFFFFC
0001FFFFFC
0000FFFFFC
0001FFFFFC
0001FFFFFC
0000FFFFFE
0000FFFFFE
0000FFFFFE
0000FFFFFE
00007FFFFE
00007FFFFC
00007FFFFC
00003FFFFC
00003FFFFC
00003FFFFC
00001FFFFC
00001FFFFC
00001FFFFC
07F81FFFFC
7FFC0FFFF8
FFFC0FFFF8
7FFE0FFFF8
FFFF1FFFF8
7FFF1FFFF0
7FFF9FFFF0
FFFFCFFFE0
7FFFFFFFE0
7FFFFFFFE0
3FFFFFFFC0
3FFFFFFF80
1FFFFFFF80
0FFFFFFF00
0FFFFFFE00
07FFFFF800
01FFFFF000
007FFFE000
001FFFC000
0003FF0000
0000600000
ENDCHAR
STARTCHAR 004B
ENCODING 75
SWIDTH 551 0
DWIDTH 49 0
BBX 47 62 1 -1
BITMAP
000000000400
000001001E00
7FFFFF003E00
FFFFFF807F00
7FFFFF80FF80
3FFFFF81FFC0
3FFFFF81FFF4
3FFFFF03FFFE
3FFFFF07FFFC
3FFFFF07FFFC
3FFFFF0FFFF8
3FFFFF0FFFF0
3FFFFF1FFFE0
3FFFFF1FFFE0
3FFFFF3FFFC0
3FFFFF3FFF80
7FFFFF7FFF00
7FFFFF7FFF00
7FFFFF7FFE00
7FFFFFFFFC00
7FFFFFFFF800
7FFFFFFFF800
7FFFFFFFF000
7FFFFFFFF000
7FFFFFFFE000
7FFFFFFFE000
7FFFFFFFC000
7FFFFFFFC000
7FFFFFFF8000
7FFFFFFF8000
7FFFFFFF0000
7FFFFFFE0000
7FFFFFFC0000
7FFFFFFC0000
7FFFFFFE0000
7FFFFFFF0000
7FFFFFFF8000
7FFFFFFFC000
FFFFFFFFE000
FFFFFFFFF000
FFFFFFFFF800
FFFFFFFFF800
FFFFFFFFFC00
FFFFFFFFFE00
FFFFFFFFFF00
FFFFFF7FFF80
FFFFFF3FFF80
FFFFFF3FFFC0
FFFFFF1FFFE0
7FFFFE0FFFE0
7FFFFE0FFFF0
7FFFFE07FFF0
7FFFFE03FFF8
7FFFFE03FFF8
7FFFFF01FFFC
7FFFFF01FFFC
7FFFFF00FFFE
7FFFFF007FFE
7FFFFF007F06
FFFFFE007E00
7FFFFC007C00
000000003800
ENDCHAR
STARTCHAR 004C
ENCODING 76
SWIDTH 506 0
DWIDTH 45 0
BBX 43 62 1 -1
BITMAP
000007C00000
0001FFFE0000
001FFFFE0000
007FFFFE0000
007FFFFE0000
00FFFFFE0000
00FFFFFE0000
00FFFFFE0000
00FFFFFE0000
00FFFFFC0000
01FFFFFC0000
01FFFFFC0000
01FFFFFC0000
01FFFFFC0000
01FFFFFC0000
01FFFFF80000
01FFFFF80000
01FFFFF80000
01FFFFF80000
01FFFFF80000
01FFFFF80000
01FFFFF00000
01FFFFF00000
01FFFFF00000
03FFFFF00000
03FFFFF00000
03FFFFF00000
03FFFFE00000
03FFFFE00000
07FFFFE00000
07FFFFE00000
07FFFFE00000
07FFFFE00000
07FFFFC00000
07FFFFC00000
0FFFFFC00000
0FFFFFC00000
0FFFFFC00000
0FFFFFC00000
0FFFFF800000
0FFFFF800000
0FFFFFC00000
1FFFFFC02F00
1FFFFFFFFFC0
1FFFFFFFFFC0
1FFFFFFFFFC0
1FFFFFFFFF80
1FFFFFFFFFC0
1FFFFFFFFFC0
1FFFFFFFFFC0
1FFFFFFFFF80
1FFFFFFFFFC0
1FFFFFFFFFC0
1FFFFFFFFFC0
1FFFFFFFFFC0
1FFFFFFFFFE0
1FFFFFFFFFE0
1FFFFFFFFFC0
1FFFFFFFF000
3FFFFFFFF000
7FFF00000000
FF0000000000
ENDCHAR
STARTCHAR 004D
ENCODING 77
SWIDTH 652 0
DWIDTH 58 0
BBX 56 62 1 -1
BITMAP
00700000000000
00F80000000E00
00FC0000001F00
00FE0000007F00
00FE000000FF00
00FF000000FF00
00FF800001FF80
00FF800001FF80
00FFC00003FF80
00FFE00003FF80
00FFE00007FF80
00FFF00007FF80
01FFF8000FFF80
01FFF8000FFF80
01FFFC001FFFC0
01FFFC001FFFC0
01FFFE003FFFC0
01FFFF003FFFC0
03FFFF007FFFE0
03FFFF80FFFFE0
03FFFF80FFFFE0
03FFFFC1FFFFE0
03FFFFE1FFFFE0
03FFFFE3FFFFF0
03FFFFF7FFFFF0
07FFFFFFFFFFF0
07FFFFFFFFFFE0
07FFFFFFFFFFE0
07FFFFFFFFFFF0
07FFFFFFFFFFF0
07FFFFFFFFFFF0
07FFFFFFFFFFF0
0FFFFFFFFFFFF0
0FFFFFFFFFFFF0
0FFFFFFFFFFFF0
0FFFFF3FFFFFF0
0FFFFE3FBFFFF0
0FFFFE1FBFFFF8
0FFFFC0F3FFFF8
1FFFFC0F3FFFF8
1FFFF8003FFFF8
1FFFF8003FFFF8
1FFFF8003FFFF8
1FFFF0003FFFF8
1FFFF0003FFFF8
3FFFF0003FFFFC
3FFFE0003FFFFC
3FFFE0007FFFFC
3FFFE0007FFFFC
3FFFC0007FFFFC
3FFFC0007FFFFC
3FFFC0007FFFFE
7FFF80007FFFFE
7FFF80007FFFFE
7FFF80007FFFFE
7FFF80007FFFFE
7FFF00007FFFFF
7FFF00007FFFFE
FFFF00007FFFC4
7FFE0000000800
FE3E0000000000
C0000000000000
ENDCHAR
STARTCHAR 004E
ENCODING 78
SWIDTH 562 0
DWIDTH 50 0
BBX 48 58 1 1
BITMAP
003FC0000FF8
01FFFE003FFE
03FFFF01FFFE
03FFFF01FFFF
03FFFF01FFFF
03FFFF01FFFF
03FFFF01FFFF
07FFFF01FFFF
07FFFF01FFFF
07FFFF01FFFE
07FFFF01FFFE
07FFFF03FFFE
07FFFF03FFFE
0FFFFF83FFFE
0FFFFF83FFFE
0FFFFF83FFFE
0FFFFF83FFFE
0FFFFFC3FFFC
0FFFFFC3FFFC
0FFFFFC3FFFC
0FFFFFC3FFFC
1FFFFFE3FFFC
1FFFFFE3FFFC
1FFFFFE3FFFC
1FFFFFF3FFFC
1FFFFFF3FFFC
1FFFFFF3FFFC
1FFFFFF3FFF8
1FFFFFFBFFF8
1FFFFFFBFFF8
3FFFFFFBFFF8
3FFFFFFFFFF8
3FFFFFFFFFF8
3FFFFFFFFFF8
3FFFF7FFFFF8
3FFFF7FFFFF8
3FFFF7FFFFF8
3FFFF3FFFFF8
3FFFF3FFFFF8
3FFFE3FFFFF0
3FFFE1FFFFF0
3FFFE1FFFFF0
3FFFE1FFFFF0
3FFFE0FFFFF0
3FFFE0FFFFF0
3FFFE0FFFFF0
7FFFE07FFFF0
7FFFE07FFFF0
7FFFE07FFFF0
7FFFE03FFFF0
7FFFE03FFFF0
7FFFE03FFFF0
7FFFE03FFFF0
7FFFE03FFFF0
7FFFE01FFFF0
7FFFE03FFFE0
FFFF801FFFC0
FFE00000FC00
ENDCHAR
STARTCHAR 004F
ENCODING 79
SWIDTH 528 0
DWIDTH 47 0
BBX 45 63 1 -1
BITMAP
0003F0000000
0007FC000000
000FFF000000
000FFFC00000
001FFFF00000
003FFFF80000
007FFFFE0000
007FFFFF0000
00FFFFFFC000
00FFFFFFE000
01FFFFFFF000
01FFFFFFF000
03FFFFFFF800
03FFFFFFFC00
07FFFFFFFC00
07FFFFFFFE00
07FFFFFFFF00
0FFFFFFFFF00
0FFFFFFFFF80
1FFFFFFFFF80
1FFFFFFFFFC0
1FFFFFFFFFC0
3FFFFFFFFFE0
3FFFF07FFFE0
3FFFE01FFFE0
7FFFC00FFFF0
7FFFC00FFFF0
7FFFC00FFFF0
7FFF800FFFF8
7FFF800FFFF8
FFFF800FFFF8
FFFF800FFFF8
FFFF800FFFF8
7FFF800FFFF8
7FFF800FFFF8
7FFFC01FFFF8
7FFFE01FFFF8
7FFFF03FFFF8
7FFFF87FFFF8
7FFFFFFFFFF8
3FFFFFFFFFF8
3FFFFFFFFFF8
3FFFFFFFFFF0
3FFFFFFFFFF0
1FFFFFFFFFF0
1FFFFFFFFFF0
1FFFFFFFFFF0
0FFFFFFFFFE0
0FFFFFFFFFE0
0FFFFFFFFFE0
07FFFFFFFFC0
07FFFFFFFFC0
03FFFFFFFFC0
03FFFFFFFF80
01FFFFFFFF80
00FFFFFFFF00
007FFFFFFF00
003FFFFFFE00
000FFFFFF800
0007FFFFE000
0000FFFFC000
00003FFF0000
000003E00000
ENDCHAR
STARTCHAR 0050
ENCODING 80
SWIDTH 495 0
DWIDTH 44 0
BBX 42 61 1 0
BITMAP
0000FC000000
007FFFC00000
07FFFFFC0000
0FFFFFFF0000
0FFFFFFFC000
0FFFFFFFE000
0FFFFFFFF000
0FFFFFFFF000
0FFFFFFFF800
0FFFFFFFFC00
1FFFFFFFFC00
1FFFFFFFFE00
1FFFFFFFFE00
1FFFFFFFFE00
1FFFC07FFF00
1FFFC00FFF00
1FFFE007FF00
1FFFE007FF00
1FFFE007FF80
1FFFE007FF80
1FFFF007FF80
1FFFF007FF80
1FFFF007FF80
1FFFF00FFF80
1FFFF00FFF80
1FFFF81FFF80
1FFFF83FFF80
3FFFFCFFFFC0
3FFFFFFFFFC0
3FFFFFFFFF80
3FFFFFFFFF00
3FFFFFFFFE00
3FFFFFFFFC00
3FFFFFFFF800
3FFFFFFFF000
3FFFFFFFE000
3FFFFFFF8000
7FFFFE000000
7FFFFC000000
7FFFFE000000
7FFFFC000000
7FFFFC000000
7FFFFC000000
7FFFFC000000
7FFFFC000000
7FFFFC000000
7FFFFC000000
FFFFFE000000
7FFFFE000000
FFFFFE000000
FFFFFE000000
FFFFFE000000
FFFFFE000000
FFFFFE000000
FFFFFE000000
FFFFFE000000
FFFFFE000000
FFFFFE000000
FFFFFF000000
7FFFFF000000
7FFFFE000000
ENDCHAR
STARTCHAR 0051
ENCODING 81
SWIDTH 618 0
DWIDTH 55 0
BBX 53 66 1 -4
BITMAP
00000F00000000
0003FFE0000000
001FFFF8000000
003FFFFC000000
007FFFFE000000
00FFFFFF000000
00FFFFFFC00000
01FFFFFFE00000
01FFFFFFF00000
03FFFFFFF00000
07FFFFFFF80000
07FFFFFFFC0000
07FFFFFFFE0000
0FFFFFFFFF0000
0FFFFFFFFF8000
0FFFFFFFFF8000
1FFFFFFFFFC000
1FFFE0FFFFC000
1FFFC07FFFE000
1FFFC03FFFE000
3FFF801FFFE000
3FFF800FFFE000
3FFF8007FFF000
3FFF8007FFF000
3FFF8003FFF000
7FFF8003FFF000
7FFF8003FFF000
7FFF8001FFF000
7FFF8001FFF000
7FFF8001FFF800
7FFF8001FFF800
7FFF8003FFF800
FFFF8003FFF800
FFFFC003FFF800
FFFFE003FFF000
FFFFF007FFF000
FFFFFC1FFFF000
7FFFFFFFFFF000
7FFFFFFFFFF000
7FFFFFFFFFE000
7FFFFFFFFFE000
7FFFFFFFFFE000
7FFFFFFFFFE000
7FFFFFFFFFE000
3FFFFFFFFFC000
3FFFFFFFFF8000
3FFFFFFFFF8000
3FFFFFFFFF8000
1FFFFFFFFFC000
0FFFFFFFFFE000
0FFFFFFFFFF000
07FFFFFFFFF800
03FFFFFFFFFC00
01FFFFFFFFFC00
00FFFFFFFFFE00
007FFFFFFFFF00
003FFFFFFFFF80
000FFFFFFFFFC0
0003FFFFFFFFE0
0000FFF7FFFFE0
00000303FFFFF0
00000001FFFFF8
00000000FFFFF8
00000000FFFE00
000000007C0000
00000000200000
ENDCHAR
STARTCHAR 0052
ENCODING 82
SWIDTH 585 0
DWIDTH 52 0
BBX 50 62 1 -1
BITMAP
0000FF80000000
000FFFE0000000
03FFFFFC000000
0FFFFFFF000000
3FFFFFFFC00000
7FFFFFFFF00000
FFFFFFFFF80000
FFFFFFFFFE0000
7FFFFFFFFE0000
7FFFFFFFFF0000
7FFFFC1FFF8000
7FFFF803FF8000
7FFFF801FF8000
7FFFF800FF8000
7FFFF800FFC000
7FFFF800FFC000
7FFFF800FFC000
7FFFF800FFC000
7FFFF800FFC000
7FFFFC00FFC000
7FFFFC00FFC000
7FFFFC01FFC000
3FFFFC03FFC000
3FFFFE07FFC000
3FFFFF0FFFC000
3FFFFF3FFF8000
3FFFFFFFFF8000
3FFFFFFFFF8000
3FFFFFFFFF0000
3FFFFFFFFE0000
3FFFFFFFFC0000
3FFFFFFFC00000
3FFFFFFFC00000
1FFFFFFFE00000
3FFFFFFFE00000
1FFFFFFFF00000
1FFFFFFFF80000
1FFFFFFFF80000
1FFFFFFFFC0000
1FFFFFFFFE0000
1FFFFF7FFE0000
1FFFFF3FFF0000
1FFFFF1FFF0000
1FFFFF1FFF8000
1FFFFF0FFFC000
1FFFFF8FFFC000
1FFFFF87FFE000
1FFFFF83FFE000
1FFFFF83FFF000
1FFFFF81FFF800
1FFFFF81FFF800
0FFFFF81FFFC00
0FFFFF80FFFC00
0FFFFF80FFFE00
0FFFFFC07FFF00
0FFFFFC07FFF00
07FFFFC07FFF80
07FFFFC03FFF80
07FFFF803FFFC0
03FFFFC01FFE00
03FFFF801FE000
01FFFF000C0000
ENDCHAR
STARTCHAR 0053
ENCODING 83
SWIDTH 495 0
DWIDTH 44 0
BBX 43 62 1 -1
BITMAP
00007FFFE000
0003FFFFFF80
001FFFFFFFE0
003FFFFFFFC0
007FFFFFFFC0
00FFFFFFFF80
00FFFFFFFF80
01FFFFFFFF00
01FFFFFFFF00
01FFFFFFFE00
03FFFFFFFE00
03FFFFFFFC00
07FFFFFFFC00
07FFFFFFF800
07FFFFFFF800
0FFFFFFFF800
0FFFFFFFF000
0FFFFFFFF000
1FFFFFFFE000
1FFFFFFFE000
1FFFFFFFC000
1FFFFFFFC000
1FFFE03FC000
1FFFE003C000
0FFFE000C000
0FFFF0000000
0FFFFE000000
07FFFF800000
07FFFFE00000
03FFFFF80000
03FFFFFE0000
01FFFFFFC000
00FFFFFFF000
007FFFFFF800
001FFFFFFC00
0001FFFFFC00
00003FFFFE00
00000FFFFE00
000003FFFE00
000000FFFE00
0000007FFF00
0000007FFF80
040000FFFF80
1E0000FFFF80
3F8003FFFF80
7FE3FFFFFF80
7FFFFFFFFF00
7FFFFFFFFF00
FFFFFFFFFF00
FFFFFFFFFF00
FFFFFFFFFF00
FFFFFFFFFE00
FFFFFFFFFE00
7FFFFFFFFE00
3FFFFFFFFC00
1FFFFFFFF000
0FFFFFFFC000
07FFFFFF8000
01FFFFFE0000
007FFFFC0000
001FFFE00000
0001FF000000
ENDCHAR
STARTCHAR 0054
ENCODING 84
SWIDTH 573 0
DWIDTH 51 0
BBX 49 60 1 0
BITMAP
00003DF81FC000
1FFFFFFFFFF000
7FFFFFFFFFFC00
7FFFFFFFFFFC00
7FFFFFFFFFFE00
7FFFFFFFFFFE00
7FFFFFFFFFFF00
7FFFFFFFFFFF00
7FFFFFFFFFFF00
7FFFFFFFFFFF00
7FFFFFFFFFFF00
7FFFFFFFFFFF80
7FFFFFFFFFFF80
7FFFFFFFFFFF80
7FFFFFFFFFFF80
7FFFFFFFFFFF80
FFFFFFFFFFEE00
FFFFFFFFFC0000
7FFF1FFFF00000
7FF01FFFC00000
7F001FFFC00000
20001FFF800000
00001FFF800000
00001FFF000000
00001FFF000000
00001FFF000000
00001FFF000000
00001FFF000000
00001FFF000000
00001FFF000000
00001FFF000000
00001FFF000000
00001FFF000000
00001FFF000000
00001FFF000000
00001FFF000000
00003FFF000000
00003FFF000000
00003FFF000000
00003FFF000000
00003FFF000000
00003FFF000000
00003FFF000000
00003FFF000000
00003FFF000000
00003FFF000000
00003FFF000000
00003FFF000000
00003FFF000000
00003FFF000000
00003FFF000000
00003FFF000000
00003FFF000000
00003FFF000000
00003FFF000000
00003FFF000000
00003FFF000000
00001FFF000000
00001FFF000000
00001FFE000000
ENDCHAR
STARTCHAR 0055
ENCODING 85
SWIDTH 551 0
DWIDTH 49 0
BBX 47 59 1 2
BITMAP
01E000000000
03FF8000FFF8
03FFE000FFFC
03FFE000FFFC
07FFE001FFFC
07FFE000FFFC
07FFC000FFFC
07FFC000FFFC
0FFFC0007FFC
0FFFC0007FFC
0FFFC0007FFC
0FFFC0007FFC
1FFFC000FFFC
1FFFC000FFFC
1FFFC000FFFC
1FFF8000FFFC
1FFF8000FFFC
3FFF8000FFFC
3FFF8000FFFC
3FFF8000FFFC
3FFF8001FFFC
3FFF8001FFFC
7FFF8001FFFC
7FFF8001FFFC
7FFF8001FFFC
7FFF8001FFFC
7FFF8001FFFC
7FFF8003FFFC
7FFFC003FFFC
FFFFC003FFFE
FFFFC003FFFE
7FFFE003FFFC
7FFFF007FFFC
7FFFF807FFFC
7FFFFE07FFF8
7FFFFFFFFFF8
7FFFFFFFFFF8
7FFFFFFFFFF8
7FFFFFFFFFF0
7FFFFFFFFFF0
3FFFFFFFFFF0
3FFFFFFFFFE0
3FFFFFFFFFE0
3FFFFFFFFFE0
1FFFFFFFFFC0
1FFFFFFFFFC0
1FFFFFFFFF80
0FFFFFFFFF80
0FFFFFFFFF00
07FFFFFFFE00
03FFFFFFFC00
03FFFFFFFC00
01FFFFFFF800
01FFFFFFF000
00FFFFFFE000
007FFFFFC000
001FFFFF8000
0007FFFF0000
0000FFFE0000
ENDCHAR
STARTCHAR 0056
ENCODING 86
SWIDTH 596 0
DWIDTH 53 0
BBX 51 57 1 2
BITMAP
0000000000FF00
7C0000000FFFC0
FFC000007FFFE0
7FFC0000FFFFE0
7FFFF000FFFFC0
3FFFFC00FFFFC0
1FFFFE00FFFFC0
0FFFFF00FFFFC0
0FFFFF80FFFFC0
0FFFFF80FFFFC0
0FFFFF00FFFFC0
07FFFF00FFFF80
07FFFF80FFFF80
07FFFF80FFFF80
03FFFF80FFFF80
03FFFFC1FFFF00
03FFFFC1FFFF00
01FFFFC1FFFF00
01FFFFC1FFFF00
00FFFFC1FFFE00
00FFFFE1FFFE00
00FFFFE1FFFE00
007FFFE1FFFE00
007FFFE1FFFC00
003FFFF3FFFC00
003FFFF3FFFC00
001FFFF3FFFC00
001FFFF3FFF800
000FFFFBFFF800
000FFFFFFFF800
0007FFFFFFF800
0003FFFFFFF800
0003FFFFFFF000
0001FFFFFFF000
0001FFFFFFF000
0000FFFFFFF000
00007FFFFFE000
00007FFFFFE000
00003FFFFFE000
00003FFFFFE000
00001FFFFFE000
00000FFFFFC000
00000FFFFFC000
000007FFFFC000
000003FFFFC000
000003FFFFC000
000001FFFF8000
000000FFFF8000
000000FFFF8000
0000007FFF8000
0000003FFF8000
0000001FFF8000
0000001FFF0000
0000000FFF0000
00000007FF0000
00000007FF0000
00000003F00000
ENDCHAR
STARTCHAR 0057
ENCODING 87
SWIDTH 720 0
DWIDTH 64 0
BBX 62 62 1 0
BITMAP
0000000000004000
000000000000E000
3FE000000000F038
3FFF00000001FFFC
7FFF8003C001FFFC
7FFF8007E001FFFC
7FFF8007E003FFF8
FFFFC007F003FFF8
7FFFC007F003FFF8
FFFFE007F007FFF0
FFFFE007F807FFF0
7FFFE007F80FFFF0
7FFFF007F80FFFE0
7FFFF007F80FFFE0
7FFFF807FC1FFFE0
3FFFF807FC1FFFC0
3FFFF80FFC1FFFC0
3FFFFC0FFC3FFFC0
1FFFFC0FFE3FFFC0
1FFFFE0FFE3FFFC0
1FFFFE0FFE7FFFC0
0FFFFE0FFF7FFFC0
0FFFFF1FFFFFFFC0
07FFFF1FFFFFFFC0
07FFFF9FFFFFFF80
07FFFFDFFFFFFF80
03FFFFFFFFFFFF80
03FFFFFFFFFFFF80
01FFFFFFFFFFFF80
01FFFFFFFFFFFF00
00FFFFFFFFFFFF00
00FFFFFFFFFFFF00
00FFFFFFFFFFFF00
007FFFFFFFFFFF00
007FFFFFFFFFFE00
003FFFFFFFFFFE00
003FFFFFFFFFFE00
001FFFFFFFFFFE00
001FFFFFDFFFFE00
000FFFFF9FFFFE00
000FFFFF8FFFFC00
0007FFFF8FFFFC00
0007FFFF0FFFFC00
0003FFFF07FFFC00
0003FFFF07FFFC00
0001FFFE07FFFC00
0001FFFE07FFFC00
0000FFFC03FFFC00
0000FFFC03FFF800
00007FFC03FFF800
00007FF801FFF800
00003FF801FFF800
00003FF801FFF800
00001FF800FFF000
00001FF000FFF000
00000FF000FFF000
000007F0007FE000
000007F0007FC000
000003E0007C0000
000003E000000000
000001E000000000
000000C000000000
ENDCHAR
STARTCHAR 0058
ENCODING 88
SWIDTH 573 0
DWIDTH 51 0
BBX 49 58 1 1
BITMAP
000000001FFF00
000C00001FFF80
1FFF80003FFF80
3FFF80007FFF80
3FFF80007FFF80
7FFF8000FFFF80
FFFFC000FFFF00
FFFFE001FFFE00
7FFFE003FFFE00
7FFFF003FFFC00
7FFFF003FFFC00
7FFFF807FFFC00
7FFFF807FFF800
3FFFFC0FFFF800
3FFFFC0FFFF000
1FFFFE1FFFF000
1FFFFE1FFFE000
0FFFFE1FFFE000
0FFFFF1FFFE000
07FFFF3FFFC000
03FFFFFFFFC000
01FFFFFFFF8000
00FFFFFFFF8000
007FFFFFFF8000
003FFFFFFF0000
003FFFFFFE0000
001FFFFFFE0000
000FFFFFFC0000
0007FFFFFC0000
0007FFFFFC0000
0003FFFFF80000
0003FFFFF80000
0003FFFFF80000
0001FFFFF80000
0001FFFFF80000
0007FFFFF80000
000FFFFFFC0000
000FFFFFFC0000
001FFFFFFC0000
001FFFFFFE0000
003FFFFFFE0000
003FFFFFFE0000
007FFFFFFF0000
007FFF7FFF0000
00FFFF3FFF8000
00FFFF3FFF8000
01FFFE1FFF8000
01FFFE0FFFC000
01FFFE0FFFC000
03FFFE07FFE000
03FFFE03FFE000
07FFFC03FFF000
07FFFC01FFF000
07FFFC00FFF000
0FFFFC007FC000
0FFFF800380000
0FFFF800000000
0FFFF000000000
ENDCHAR
STARTCHAR 0059
ENCODING 89
SWIDTH 607 0
DWIDTH 54 0
BBX 52 61 1 0
BITMAP
000000000071F0
0000000003FFF0
000C000007FFF0
003E00000FFFE0
07FE000007FFC0
3FFF00000FFFC0
7FFF80001FFFC0
FFFF80001FFFC0
7FFFC0003FFF80
7FFFC0003FFF00
3FFFE0003FFF00
3FFFE0007FFE00
3FFFF0007FFE00
1FFFF000FFFE00
1FFFF800FFFC00
0FFFF801FFFC00
07FFFC01FFF800
07FFFC03FFF800
03FFFE07FFF000
03FFFE07FFF000
01FFFE0FFFE000
01FFFF0FFFE000
00FFFF1FFFC000
00FFFF9FFFC000
007FFFBFFF8000
007FFFBFFF8000
003FFFFFFF0000
003FFFFFFF0000
001FFFFFFE0000
001FFFFFFE0000
000FFFFFFC0000
000FFFFFFC0000
0007FFFFFC0000
0007FFFFF80000
0003FFFFF80000
0003FFFFF00000
0001FFFFF00000
0001FFFFE00000
0000FFFFE00000
0000FFFFC00000
00007FFF800000
00003FFF800000
00003FFF800000
00001FFF800000
00001FFF800000
00001FFF800000
00001FFF800000
00001FFF800000
00001FFF800000
00001FFFC00000
00001FFFC00000
00001FFFC00000
00001FFFC00000
00001FFFC00000
00001FFFC00000
00000FFFC00000
00000FFFE00000
00000FFFE00000
00000FFFC00000
00000FFF800000
00000FF0000000
ENDCHAR
STARTCHAR 005A
ENCODING 90
SWIDTH 596 0
DWIDTH 53 0
BBX 51 60 1 1
BITMAP
00001FFFE00000
0001FFFFFFF000
001FFFFFFFF000
01FFFFFFFFE000
07FFFFFFFFC000
0FFFFFFFFF8000
1FFFFFFFFF8000
1FFFFFFFFF0000
3FFFFFFFFE0000
3FFFFFFFFE0000
7FFFFFFFFC0000
7FFFFFFFFC0000
7FFFFFFFF80000
FFFFFFFFF00000
FFFFFFFFF00000
FFFFB7FFE00000
FF8007FFE00000
000007FFC00000
000007FFC00000
00000FFFC00000
00000FFF800000
00000FFF800000
00001FFF000000
00001FFF000000
00003FFF000000
00003FFE000000
00003FFE000000
00007FFE000000
00007FFC000000
00007FFC000000
0000FFFC000000
0000FFFC000000
0000FFF8000000
0001FFF8000000
0001FFF8000000
0001FFF8000000
0003FFF8000000
0003FFF0000000
0003FFF0000000
0007FFF0000000
0007FFF0000000
000FFFE0000000
000FFFC0000000
000FFF80000000
001FFF807FFFC0
001FFFBFFFFFE0
001FFFFFFFFFE0
003FFFFFFFFFE0
003FFFFFFFFFE0
003FFFFFFFFFE0
007FFFFFFFFFE0
007FFFFFFFFFC0
007FFFFFFFFFC0
007FFFFFFFFF80
007FFFFFFFFF00
007FFFFFFFFE00
00007FFFFFFC00
00000FFFFFF000
000001FFFFC000
0000003FFE0000
ENDCHAR
STARTCHAR 005B
ENCODING 91
SWIDTH 348 0
DWIDTH 31 0
BBX 29 85 1 -13
BITMAP
0001FFF0
7FFFFFF8
7FFFFFF8
7FFFFFF8
7FFFFFF8
7FFFFFF8
7FFFFFF8
7FFFFFF8
7FFFFFF8
7FFFFFF8
7FFFFFF8
7FFFFFF8
7FFF8000
7FFC0000
7FFC0000
7FFC0000
7FFC0000
7FFC0000
7FFC0000
7FFC0000
3FFC0000
7FFC0000
7FFC0000
7FFC0000
7FFC0000
7FFC0000
7FFC0000
7FFC0000
7FFC0000
7FFC0000
7FFC0000
7FFC0000
7FFC0000
7FFC0000
7FFC0000
7FFC0000
7FFC0000
7FFC0000
7FFC0000
7FFC0000
7FFC0000
7FFC0000
7FFC0000
7FFC0000
7FFC0000
7FFC0000
7FFC0000
7FFC0000
7FFC0000
7FFC0000
7FFC0000
7FFC0000
7FFC0000
7FFC0000
7FFC0000
7FFC0000
7FFC0000
7FFC0000
7FFC0000
7FFC0000
7FFC0000
7FFC0000
7FFC0000
7FFC0000
7FFC0000
7FFC0000
7FFC0000
FFFC0000
FFFC0000
FFFC0000
7FFC0000
7FFC0000
7FFCFFF0
7FFFFFF8
FFFFFFF8
FFFFFFF8
FFFFFFF8
FFFFFFF8
FFFFFFF8
FFFFFFF8
FFFFFFF8
7FFFFFF8
7FFFFFF8
7FFFFFF8
7FFE0000
ENDCHAR
STARTCHAR 005C
ENCODING 92
SWIDTH 450 0
DWIDTH 40 0
BBX 38 72 1 -5
BITMAP
4002000000
7FFF000000
7FFF000000
FFFF000000
7FFF800000
7FFF800000
7FFFC00000
7FFFC00000
7FFFC00000
3FFFE00000
3FFFE00000
3FFFE00000
1FFFF00000
1FFFF00000
1FFFF00000
1FFFF00000
0FFFF80000
0FFFF80000
0FFFF80000
07FFFC0000
07FFFC0000
03FFFC0000
03FFFE0000
03FFFE0000
01FFFE0000
01FFFE0000
01FFFF0000
00FFFF0000
00FFFF0000
007FFF8000
007FFF8000
007FFF8000
003FFFC000
003FFFC000
001FFFC000
001FFFC000
000FFFE000
000FFFE000
000FFFE000
0007FFF000
0007FFF000
0003FFF000
0003FFF800
0001FFF800
0001FFF800
0001FFFC00
0000FFFC00
0000FFFC00
00007FFE00
00007FFE00
00007FFE00
00003FFF00
00003FFF00
00001FFF00
00001FFF80
00000FFF80
00000FFF80
00000FFFC0
000007FFC0
000007FFE0
000003FFE0
000003FFE0
000001FFF0
000001FFF0
000000FFF8
000000FFF8
0000007FF8
0000007FFC
0000003FFC
0000003F1C
0000001C08
0000000800
ENDCHAR
STARTCHAR 005D
ENCODING 93
SWIDTH 348 0
DWIDTH 31 0
BBX 29 85 1 -13
BITMAP
0003FFF8
7FFFFFF8
7FFFFFF8
7FFFFFF8
7FFFFFF8
7FFFFFF8
7FFFFFF8
7FFFFFF8
7FFFFFF8
7FFFFFF8
7FFFFFF8
FFFFFFF8
3FF0FFF8
0001FFF8
0000FFF8
0001FFF8
0001FFF8
0001FFF8
0001FFF8
0001FFF8
0001FFF8
0001FFF8
0001FFF8
0001FFF8
0001FFF8
0001FFF8
0001FFF8
0001FFF8
0001FFF8
0001FFF8
0001FFF8
0001FFF8
0000FFF8
0000FFF8
0000FFF8
0000FFF8
0000FFF8
0000FFF8
0000FFF8
0000FFF8
0001FFF8
0001FFF8
0001FFF8
0001FFF8
0001FFF8
0001FFF8
0001FFF8
0001FFF8
0001FFF8
0000FFF8
0000FFF8
0000FFF8
0000FFF8
0000FFF8
0001FFF8
0001FFF8
0001FFF8
0001FFF8
0001FFF8
0001FFF8
0000FFF8
0000FFF8
0000FFF8
0000FFF0
0000FFF0
0000FFF0
0000FFF0
0000FFF0
0000FFF0
0000FFF0
0000FFF0
0000FFF8
000FFFF8
7FFFFFF8
FFFFFFF8
FFFFFFF8
FFFFFFF8
FFFFFFF8
7FFFFFF8
7FFFFFF8
7FFFFFF8
7FFFFFF8
7FFFFFF8
7FFFFFF0
07F80000
ENDCHAR
STARTCHAR 005E
ENCODING 94
SWIDTH 495 0
DWIDTH 44 0
BBX 42 37 1 28
BITMAP
00001F000000
00003FE00000
00007FE00000
0000FFF00000
0000FFF00000
0001FFF00000
0001FFF80000
0003FFF80000
0007FFFC0000
0007FFFC0000
000FFFFC0000
001FFFFE0000
001FFFFE0000
003FFFFF0000
007FFFFF0000
007FFFFF8000
00FFFBFF8000
00FFF3FFC000
01FFF1FFC000
03FFF1FFE000
03FFF1FFE000
07FFE1FFF000
07FFE0FFF000
0FFFE0FFF000
0FFFE0FFF800
1FFFC0FFF800
1FFFC0FFFC00
3FFFC07FFC00
3FFFC07FFE00
3FFF807FFE00
7FFF807FFF00
7FFF807FFF00
7FFF007FFF80
7FFF003FFF80
FFFE003FFFC0
FF80003FFF00
000000006000
ENDCHAR
STARTCHAR 005F
ENCODING 95
SWIDTH 382 0
DWIDTH 34 0
BBX 32 11 1 -10
BITMAP
7FFFFFFE
FFFFFFFF
FFFFFFFF
FFFFFFFF
7FFFFFFF
7FFFFFFF
7FFFFFFF
7FFFFFFF
7FFFFFFF
7FFFFFFF
7FFFFFFE
ENDCHAR
STARTCHAR 0060
ENCODING 96
SWIDTH 236 0
DWIDTH 21 0
BBX 18 14 1 63
BITMAP
7FF000
7FF800
FFF800
7FFC00
3FFC00
1FFE00
0FFF00
07FF00
03FF80
01FF80
00FFC0
007FC0
007FC0
003F00
ENDCHAR
STARTCHAR 0061
ENCODING 97
SWIDTH 630 0
DWIDTH 56 0
BBX 54 62 1 -2
BITMAP
0000000F800000
0000007FC00000
000000FFC00000
000000FFE00000
000000FFE00000
000001FFE00000
000001FFE00000
000001FFF00000
000003FFF00000
000003FFF00000
000007FFF00000
000007FFF80000
000007FFF80000
00000FFFF80000
00000FFFF80000
00000FFFFC0000
00001FFFFC0000
00001FFFFC0000
00003FFFFC0000
00003FFFFE0000
00003FFFFE0000
00007FFFFE0000
00007FFFFF0000
00007FFFFF0000
0000FFFFFF0000
0000FFFFFF8000
0001FFFFFF8000
0001FFFFFF8000
0003FFFFFF8000
0003FFFFFFC000
0007FFFFFFC000
0007FFFFFFC000
0007FE3FFFE000
000FFC3FFFE000
000FF81FFFE000
001FF81FFFF000
001FF00FFFF000
003FE00FFFF000
003FE00FFFF800
007FC00FFFF800
007FC07FFFF800
007FFFFFFFFC00
00FFFFFFFFFC00
00FFFFFFFFFE00
01FFFFFFFFFE00
01FFFFFFFFFE00
03FFFFFFFFFF00
03FFFFFFFFFF00
07FFFE0FFFFF80
07FFF007FFFF80
07FFE007FFFF80
0FFFC007FFFFC0
0FFFC007FFFFC0
1FFFC003FFFFE0
1FFFC003FFFFE0
3FFF8003FFFFF0
3FFF8001FFFFF0
3FFF8001FFFFF8
7FFFC001FFFFF8
7FFFC000FFFFFC
FFFF0000F80078
7F000000000000
ENDCHAR
STARTCHAR 0062
ENCODING 98
SWIDTH 517 0
DWIDTH 46 0
BBX 44 60 1 1
BITMAP
00FFB0000000
07FFFF800000
1FFFFFF00000
7FFFFFFC0000
7FFFFFFF0000
7FFFFFFF0000
7FFFFFFF8000
FFFFFFFF8000
7FFFFFFF8000
7FFFFFFFC000
7FFFFFFFE000
7FFFFFFFF000
7FFFFFFFF000
7FFFFFFFF000
3FFF83FFF000
3FFF80FFF000
3FFF807FF000
3FFF807FF000
1FFF807FF000
1FFF807FF000
1FFF807FF000
1FFF807FE000
1FFFC07FE000
1FFFC0FFE000
1FFFE1FFE000
0FFFF7FFC000
0FFFFFFF8000
0FFFFFFE0000
0FFFFFFE0000
0FFFFFFF8000
0FFFFFFFF000
0FFFFFFFFC00
0FFFFFFFFE00
0FFFFFFFFE00
0FFFFFFFFF00
07FFFFFFFF80
07FFFC7FFFC0
07FFFC07FFC0
07FFF807FFE0
07FFF807FFE0
07FFF807FFF0
07FFFC07FFF0
07FFFC07FFF0
07FFFC0FFFF0
07FFFC1FFFF0
03FFFC3FFFF0
03FFFC7FFFE0
03FFFCFFFFE0
03FFFFFFFFE0
03FFFFFFFFE0
03FFFFFFFFC0
03FFFFFFFF80
03FFFFFFFF00
01FFFFFFFE00
01FFFFFFFC00
01FFFFFFF800
01FFFFFFF000
01FFFFFF8000
00FFFFF00000
007FFC000000
ENDCHAR
STARTCHAR 0063
ENCODING 99
SWIDTH 483 0
DWIDTH 43 0
BBX 41 60 1 1
BITMAP
000000400000
00000FFE0000
00007FFFC000
0001FFFFF000
000FFFFFF800
003FFFFFFE00
007FFFFFFF00
00FFFFFFFF80
01FFFFFFFF80
03FFFFFFFF80
07FFFFFFFF80
0FFFFFFFFF80
0FFFFFFFFF80
1FFFFFFFFF80
1FFFFFFFFF80
3FFFFFFFFF00
3FFFFFFFFF00
3FFFFFFE3600
7FFFFF800000
7FFFFE000000
7FFFFC000000
7FFFF8000000
FFFFF0000000
7FFFE0000000
7FFFE0000000
7FFFC0000000
FFFFC0000000
FFFFC0000000
FFFFC0000000
7FFFC0000000
7FFFC0000000
7FFFE0000000
7FFFF0000000
FFFFF8000200
FFFFFC00FF00
7FFFFF7FFF00
7FFFFFFFFF80
7FFFFFFFFF80
7FFFFFFFFF80
7FFFFFFFFF80
3FFFFFFFFF80
3FFFFFFFFF00
3FFFFFFFFF00
3FFFFFFFFF00
1FFFFFFFFF00
1FFFFFFFFF00
0FFFFFFFFF00
0FFFFFFFFF00
0FFFFFFFFF80
07FFFFFFFF00
07FFFFFFFF00
03FFFFFFFE00
03FFFFFFFC00
01FFFFFFF800
00FFFFFFF000
00FFFFFFF000
007FFFFFE000
0007FFFF8000
0001FFFE0000
000003F00000
ENDCHAR
STARTCHAR 0064
ENCODING 100
SWIDTH 461 0
DWIDTH 41 0
BBX 39 61 1 0
BITMAP
03F0000000
0FFFC00000
3FFFF80000
7FFFFE0000
FFFFFFC000
FFFFFFF000
FFFFFFF800
FFFFFFFC00
FFFFFFFE00
FFFFFFFE00
FFFFFFFF00
FFFFFFFF80
FFFFFFFFC0
FFFFFFFFC0
7FFFFFFFE0
7FFFFFFFF0
7FFFFFFFF0
7FFFC3FFF8
7FFF80FFF8
7FFF803FF8
7FFF801FFC
7FFF801FFC
7FFF801FFC
7FFF001FFE
7FFF801FFE
7FFF801FFE
3FFF801FFE
3FFF803FFE
3FFF803FFE
3FFFC03FFC
3FFFC07FFC
3FFFC07FFC
1FFFC0FFF8
1FFFC1FFF8
1FFFC3FFF0
1FFFC7FFF0
1FFFFFFFE0
1FFFFFFFE0
0FFFFFFFC0
0FFFFFFFC0
0FFFFFFF80
0FFFFFFF80
0FFFFFFF00
07FFFFFF00
07FFFFFE00
07FFFFFE00
07FFFFFC00
07FFFFF800
03FFFFF800
03FFFFF000
03FFFFE000
03FFFFC000
01FFFF8000
01FFFF0000
01FFFC0000
01FFF80000
00FFE00000
00FF800000
00FE000000
00F0000000
0040000000
ENDCHAR
STARTCHAR 0065
ENCODING 101
SWIDTH 495 0
DWIDTH 44 0
BBX 42 62 1 0
BITMAP
003FFF000000
01FFFFFC0000
0FFFFFFF8000
3FFFFFFF8000
7FFFFFFF8000
FFFFFFFF0000
7FFFFFFF0000
7FFFFFFF0000
3FFFFFFE0000
3FFFFFFE0000
3FFFFFFE0000
3FFFFFFE0000
1FFFFFFE0000
1FFFFFFE0000
1FFFFFFC0000
1FFFFFFE0000
1FFFFFFE0000
0FFFFFFC0000
0FFFFFF80000
0FFFF0000000
0FFFE0000000
0FFFE0000000
0FFFE0000000
07FFE0000000
07FFF0000000
07FFF07C0000
07FFFFFE0000
07FFFFFC0000
03FFFFFC0000
03FFFFFC0000
03FFFFFC0000
03FFFFFC0000
03FFFFFE0000
03FFFFFE0000
01FFFFEE0000
01FFF8000000
01FFF8000000
01FFFC000000
01FFFC001800
01FFFFFFFC00
00FFFFFFFC00
00FFFFFFFE00
01FFFFFFFE00
00FFFFFFFE00
00FFFFFFFF00
00FFFFFFFF00
007FFFFFFF00
00FFFFFFFF00
00FFFFFFFF00
00FFFFFFFF80
007FFFFFFF80
007FFFFFFF80
007FFFFFFF80
007FFFFFFF80
007FFFFFFFC0
007FFFFFFF80
007FFFFFF800
007FFFFFC000
003FFFFC0000
003FFFC00000
003FF8000000
001C00000000
ENDCHAR
STARTCHAR 0066
ENCODING 102
SWIDTH 506 0
DWIDTH 45 0
BBX 43 62 1 1
BITMAP
00000FFFFE00
009FFFFFFF00
07FFFFFFFF80
3FFFFFFFFF80
7FFFFFFFFF80
FFFFFFFFFF80
FFFFFFFFFF80
FFFFFFFFFFC0
FFFFFFFFFFC0
FFFFFFFFFFC0
FFFFFFFFFFC0
FFFFFFFFFFC0
FFFFFFFFFFE0
FFFFFFC00000
FFFFF8000000
FFFFC0000000
FFFFC0000000
FFFF80000000
7FFF80000000
7FFF80000000
7FFF80000000
7FFF80000000
7FFF80000000
7FFF8FC00000
7FFFFFE00000
7FFFFFE00000
7FFFFFE00000
7FFFFFE00000
7FFFFFC00000
7FFFFFC00000
7FFFFFC00000
7FFFFFC00000
7FFFFFE00000
7FFFFFE00000
7FFFFFE00000
FFFFC0E00000
FFFF80C00000
7FFF80000000
7FFF00000000
7FFF00000000
FFFF00000000
FFFF00000000
FFFF00000000
FFFF00000000
7FFF00000000
FFFF00000000
7FFF00000000
7FFF00000000
7FFF00000000
7FFF00000000
7FFF00000000
7FFF80000000
7FFF80000000
7FFF80000000
3FFF80000000
3FFFC0000000
3FFFC0000000
3FFFC0000000
3FFFE0000000
3FFFE0000000
1FFE00000000
1E0000000000
ENDCHAR
STARTCHAR 0067
ENCODING 103
SWIDTH 506 0
DWIDTH 45 0
BBX 43 60 1 1
BITMAP
00003FF00000
00007FFF8000
0001FFFFE000
0003FFFFF000
0007FFFFF800
000FFFFFFC00
000FFFFFFE00
001FFFFFFF00
003FFFFFFF00
007FFFFFFF80
007FFFFFFF80
00FFFFFFFF80
00FFFFFFFF00
01FFFFDFFE00
01FFFE03F800
03FFF0000000
03FFE0000000
03FFC0000000
07FF80000000
07FF80000000
07FF00000000
0FFF00000000
0FFF00000000
0FFE00000000
0FFE00000000
1FFE00000F80
1FFE0007FFE0
1FFC007FFFC0
1FFC03FFFFC0
3FFC03FFFFC0
3FFC01FFFFC0
3FFC01FFFFC0
3FFC01FFFFC0
3FFC00FFFFC0
7FFC00FFFFC0
7FFC00FFFFC0
7FFE00FFFFC0
7FFE00FFFFC0
7FFE00FFFFC0
7FFE00FFFFC0
7FFF00FFFFC0
FFFFC3FFFFC0
FFFFFFFFFFC0
FFFFFFFFFFC0
7FFFFFFFFFC0
7FFFFFFFFFC0
7FFFFFFFFFC0
7FFFFFFFFFC0
7FFFFFFFFF80
7FFFFFFFFF00
3FFFFFFFFC00
3FFFFFFFF800
1FFFFFFFF000
0FFFFFFFC000
07FFFFFF0000
03FFFFFC0000
01FFFFF00000
00FFFFC00000
007FFE000000
001FE0000000
ENDCHAR
STARTCHAR 0068
ENCODING 104
SWIDTH 562 0
DWIDTH 50 0
BBX 47 59 2 1
BITMAP
0007FE000000
007FFF800000
03FFFF007FFC
07FFFE00FFFE
0FFFFE00FFFE
0FFFFC01FFFE
07FFFC01FFFE
07FFFF01FFFC
07FFFF01FFFC
03FFFF01FFFC
03FFFE01FFFC
07FFFE01FFFC
07FFFE03FFFC
07FFFE03FFFC
07FFFE03FFFC
07FFFE03FFFC
07FFFE03FFFC
07FFFE03FFFC
07FFFE03FFFC
07FFFE03FFFC
0FFFFE03FFFC
0FFFFE07FFF8
0FFFFF9FFFF8
0FFFFFFFFFF8
0FFFFFFFFFF8
0FFFFFFFFFF8
0FFFFFFFFFF8
0FFFFFFFFFF8
0FFFFFFFFFF8
1FFFFFFFFFF8
1FFFFFFFFFF8
1FFFFFFFFFF8
1FFFFFFFFFF8
1FFFFFFFFFFC
1FFFFFFFFFFC
1FFFFFFFFFFC
1FFFFFFFFFFC
1FFFFFFFFFFC
1FFFFFFFFFFC
1FFFFDFFFFFC
3FFFF80FFFF8
3FFFF80FFFF8
3FFFF80FFFF8
3FFFF80FFFF8
3FFFF80FFFF8
3FFFF80FFFF8
3FFFF80FFFF8
3FFFF80FFFF8
3FFFF81FFFF8
3FFFF81FFFF0
3FFFF81FFFF0
7FFFF81FFFF0
7FFFF81FFFF0
7FFFF80FFFF0
7FFFF80FFFF0
7FFFF80FFFF0
FFFFF01FFC00
FFFFF01FE000
001FC01C0000
ENDCHAR
STARTCHAR 0069
ENCODING 105
SWIDTH 326 0
DWIDTH 29 0
BBX 27 60 1 0
BITMAP
007FFE00
00FFFFE0
01FFFFE0
01FFFFE0
01FFFFC0
00FFFFC0
00FFFFC0
01FFFFC0
01FFFFC0
01FFFF80
01FFFF80
01FFFF80
01FFFF80
03FFFF80
03FFFF80
03FFFF80
03FFFF80
03FFFF80
03FFFF80
03FFFF00
03FFFF00
07FFFF00
07FFFF00
07FFFF00
07FFFF00
07FFFF00
07FFFF00
07FFFF00
07FFFF00
07FFFF00
07FFFF00
07FFFF00
07FFFF00
07FFFF00
0FFFFF00
0FFFFF00
0FFFFF00
0FFFFF00
0FFFFF00
0FFFFF00
0FFFFF00
0FFFFF00
0FFFFF00
0FFFFF00
0FFFFF00
0FFFFF00
0FFFFF00
0FFFFF00
0FFFFF00
0FFFFE00
0FFFFE00
0FFFFC00
1FFFFC00
1FFFFE00
1FFFFE00
1FFFFE00
3FFFFC00
3FFFF000
FFF80000
7E000000
ENDCHAR
STARTCHAR 006A
ENCODING 106
SWIDTH 450 0
DWIDTH 40 0
BBX 39 61 1 -1
BITMAP
00003FC0F0
00003FFFF0
00003FFFF8
00003FFFF8
00007FFFF8
00007FFFF8
00007FFFF8
00007FFFF8
00007FFFF8
0000FFFFFC
0000FFFFFC
0000FFFFFC
0000FFFFFC
0000FFFFFC
0001FFFFF8
0001FFFFF8
0001FFFFF8
0001FFFFFC
0000FFFFFC
0001FFFFFC
0001FFFFFC
0001FFFFFC
0000FFFFFC
0001FFFFFC
0000FFFFFC
0001FFFFFC
0001FFFFFC
0000FFFFFE
0000FFFFFE
0000FFFFFE
0000FFFFFE
00007FFFFE
00007FFFFC
00007FFFFC
00003FFFFC
00003FFFFC
00003FFFFC
00001FFFFC
00001FFFFC
00001FFFFC
07F81FFFFC
7FFC0FFFF8
FFFC0FFFF8
7FFE0FFFF8
FFFF1FFFF8
7FFF1FFFF0
7FFF9FFFF0
FFFFCFFFE0
7FFFFFFFE0
7FFFFFFFE0
3FFFFFFFC0
3FFFFFFF80
1FFFFFFF80
0FFFFFFF00
0FFFFFFE00
07FFFFF800
01FFFFF000
007FFFE000
001FFFC000
0003FF0000
0000600000
ENDCHAR
STARTCHAR 006B
ENCODING 107
SWIDTH 551 0
DWIDTH 49 0
BBX 47 62 1 -1
BITMAP
000000000400
000001001E00
7FFFFF003E00
FFFFFF807F00
7FFFFF80FF80
3FFFFF81FFC0
3FFFFF81FFF4
3FFFFF03FFFE
3FFFFF07FFFC
3FFFFF07FFFC
3FFFFF0FFFF8
3FFFFF0FFFF0
3FFFFF1FFFE0
3FFFFF1FFFE0
3FFFFF3FFFC0
3FFFFF3FFF80
7FFFFF7FFF00
7FFFFF7FFF00
7FFFFF7FFE00
7FFFFFFFFC00
7FFFFFFFF800
7FFFFFFFF800
7FFFFFFFF000
7FFFFFFFF000
7FFFFFFFE000
7FFFFFFFE000
7FFFFFFFC000
7FFFFFFFC000
7FFFFFFF8000
7FFFFFFF8000
7FFFFFFF0000
7FFFFFFE0000
7FFFFFFC0000
7FFFFFFC0000
7FFFFFFE0000
7FFFFFFF0000
7FFFFFFF8000
7FFFFFFFC000
FFFFFFFFE000
FFFFFFFFF000
FFFFFFFFF800
FFFFFFFFF800
FFFFFFFFFC00
FFFFFFFFFE00
FFFFFFFFFF00
FFFFFF7FFF80
FFFFFF3FFF80
FFFFFF3FFFC0
FFFFFF1FFFE0
7FFFFE0FFFE0
7FFFFE0FFFF0
7FFFFE07FFF0
7FFFFE03FFF8
7FFFFE03FFF8
7FFFFF01FFFC
7FFFFF01FFFC
7FFFFF00FFFE
7FFFFF007FFE
7FFFFF007F06
FFFFFE007E00
7FFFFC007C00
000000003800
ENDCHAR
STARTCHAR 006C
ENCODING 108
SWIDTH 506 0
DWIDTH 45 0
BBX 43 62 1 -1
BITMAP
000007C00000
0001FFFE0000
001FFFFE0000
007FFFFE0000
007FFFFE0000
00FFFFFE0000
00FFFFFE0000
00FFFFFE0000
00FFFFFE0000
00FFFFFC0000
01FFFFFC0000
01FFFFFC0000
01FFFFFC0000
01FFFFFC0000
01FFFFFC0000
01FFFFF80000
01FFFFF80000
01FFFFF80000
01FFFFF80000
01FFFFF80000
01FFFFF80000
01FFFFF00000
01FFFFF00000
01FFFFF00000
03FFFFF00000
03FFFFF00000
03FFFFF00000
03FFFFE00000
03FFFFE00000
07FFFFE00000
07FFFFE00000
07FFFFE00000
07FFFFE00000
07FFFFC00000
07FFFFC00000
0FFFFFC00000
0FFFFFC00000
0FFFFFC00000
0FFFFFC00000
0FFFFF800000
0FFFFF800000
0FFFFFC00000
1FFFFFC02F00
1FFFFFFFFFC0
1FFFFFFFFFC0
1FFFFFFFFFC0
1FFFFFFFFF80
1FFFFFFFFFC0
1FFFFFFFFFC0
1FFFFFFFFFC0
1FFFFFFFFF80
1FFFFFFFFFC0
1FFFFFFFFFC0
1FFFFFFFFFC0
1FFFFFFFFFC0
1FFFFFFFFFE0
1FFFFFFFFFE0
1FFFFFFFFFC0
1FFFFFFFF000
3FFFFFFFF000
7FFF00000000
FF0000000000
ENDCHAR
STARTCHAR 006D
ENCODING 109
SWIDTH 652 0
DWIDTH 58 0
BBX 56 62 1 -1
BITMAP
00700000000000
00F80000000E00
00FC0000001F00
00FE0000007F00
00FE000000FF00
00FF000000FF00
00FF800001FF80
00FF800001FF80
00FFC00003FF80
00FFE00003FF80
00FFE00007FF80
00FFF00007FF80
01FFF8000FFF80
01FFF8000FFF80
01FFFC001FFFC0
01FFFC001FFFC0
01FFFE003FFFC0
01FFFF003FFFC0
03FFFF007FFFE0
03FFFF80FFFFE0
03FFFF80FFFFE0
03FFFFC1FFFFE0
03FFFFE1FFFFE0
03FFFFE3FFFFF0
03FFFFF7FFFFF0
07FFFFFFFFFFF0
07FFFFFFFFFFE0
07FFFFFFFFFFE0
07FFFFFFFFFFF0
07FFFFFFFFFFF0
07FFFFFFFFFFF0
07FFFFFFFFFFF0
0FFFFFFFFFFFF0
0FFFFFFFFFFFF0
0FFFFFFFFFFFF0
0FFFFF3FFFFFF0
0FFFFE3FBFFFF0
0FFFFE1FBFFFF8
0FFFFC0F3FFFF8
1FFFFC0F3FFFF8
1FFFF8003FFFF8
1FFFF8003FFFF8
1FFFF8003FFFF8
1FFFF0003FFFF8
1FFFF0003FFFF8
3FFFF0003FFFFC
3FFFE0003FFFFC
3FFFE0007FFFFC
3FFFE0007FFFFC
3FFFC0007FFFFC
3FFFC0007FFFFC
3FFFC0007FFFFE
7FFF80007FFFFE
7FFF80007FFFFE
7FFF80007FFFFE
7FFF80007FFFFE
7FFF00007FFFFF
7FFF00007FFFFE
FFFF00007FFFC4
7FFE0000000800
FE3E0000000000
C0000000000000
ENDCHAR
STARTCHAR 006E
ENCODING 110
SWIDTH 562 0
DWIDTH 50 0
BBX 48 58 1 1
BITMAP
003FC0000FF8
01FFFE003FFE
03FFFF01FFFE
03FFFF01FFFF
03FFFF01FFFF
03FFFF01FFFF
03FFFF01FFFF
07FFFF01FFFF
07FFFF01FFFF
07FFFF01FFFE
07FFFF01FFFE
07FFFF03FFFE
07FFFF03FFFE
0FFFFF83FFFE
0FFFFF83FFFE
0FFFFF83FFFE
0FFFFF83FFFE
0FFFFFC3FFFC
0FFFFFC3FFFC
0FFFFFC3FFFC
0FFFFFC3FFFC
1FFFFFE3FFFC
1FFFFFE3FFFC
1FFFFFE3FFFC
1FFFFFF3FFFC
1FFFFFF3FFFC
1FFFFFF3FFFC
1FFFFFF3FFF8
1FFFFFFBFFF8
1FFFFFFBFFF8
3FFFFFFBFFF8
3FFFFFFFFFF8
3FFFFFFFFFF8
3FFFFFFFFFF8
3FFFF7FFFFF8
3FFFF7FFFFF8
3FFFF7FFFFF8
3FFFF3FFFFF8
3FFFF3FFFFF8
3FFFE3FFFFF0
3FFFE1FFFFF0
3FFFE1FFFFF0
3FFFE1FFFFF0
3FFFE0FFFFF0
3FFFE0FFFFF0
3FFFE0FFFFF0
7FFFE07FFFF0
7FFFE07FFFF0
7FFFE07FFFF0
7FFFE03FFFF0
7FFFE03FFFF0
7FFFE03FFFF0
7FFFE03FFFF0
7FFFE03FFFF0
7FFFE01FFFF0
7FFFE03FFFE0
FFFF801FFFC0
FFE00000FC00
ENDCHAR
STARTCHAR 006F
ENCODING 111
SWIDTH 528 0
DWIDTH 47 0
BBX 45 63 1 -1
BITMAP
0003F0000000
0007FC000000
000FFF000000
000FFFC00000
001FFFF00000
003FFFF80000
007FFFFE0000
007FFFFF0000
00FFFFFFC000
00FFFFFFE000
01FFFFFFF000
01FFFFFFF000
03FFFFFFF800
03FFFFFFFC00
07FFFFFFFC00
07FFFFFFFE00
07FFFFFFFF00
0FFFFFFFFF00
0FFFFFFFFF80
1FFFFFFFFF80
1FFFFFFFFFC0
1FFFFFFFFFC0
3FFFFFFFFFE0
3FFFF07FFFE0
3FFFE01FFFE0
7FFFC00FFFF0
7FFFC00FFFF0
7FFFC00FFFF0
7FFF800FFFF8
7FFF800FFFF8
FFFF800FFFF8
FFFF800FFFF8
FFFF800FFFF8
7FFF800FFFF8
7FFF800FFFF8
7FFFC01FFFF8
7FFFE01FFFF8
7FFFF03FFFF8
7FFFF87FFFF8
7FFFFFFFFFF8
3FFFFFFFFFF8
3FFFFFFFFFF8
3FFFFFFFFFF0
3FFFFFFFFFF0
1FFFFFFFFFF0
1FFFFFFFFFF0
1FFFFFFFFFF0
0FFFFFFFFFE0
0FFFFFFFFFE0
0FFFFFFFFFE0
07FFFFFFFFC0
07FFFFFFFFC0
03FFFFFFFFC0
03FFFFFFFF80
01FFFFFFFF80
00FFFFFFFF00
007FFFFFFF00
003FFFFFFE00
000FFFFFF800
0007FFFFE000
0000FFFFC000
00003FFF0000
000003E00000
ENDCHAR
STARTCHAR 0070
ENCODING 112
SWIDTH 495 0
DWIDTH 44 0
BBX 42 61 1 0
BITMAP
0000FC000000
007FFFC00000
07FFFFFC0000
0FFFFFFF0000
0FFFFFFFC000
0FFFFFFFE000
0FFFFFFFF000
0FFFFFFFF000
0FFFFFFFF800
0FFFFFFFFC00
1FFFFFFFFC00
1FFFFFFFFE00
1FFFFFFFFE00
1FFFFFFFFE00
1FFFC07FFF00
1FFFC00FFF00
1FFFE007FF00
1FFFE007FF00
1FFFE007FF80
1FFFE007FF80
1FFFF007FF80
1FFFF007FF80
1FFFF007FF80
1FFFF00FFF80
1FFFF00FFF80
1FFFF81FFF80
1FFFF83FFF80
3FFFFCFFFFC0
3FFFFFFFFFC0
3FFFFFFFFF80
3FFFFFFFFF00
3FFFFFFFFE00
3FFFFFFFFC00
3FFFFFFFF800
3FFFFFFFF000
3FFFFFFFE000
3FFFFFFF8000
7FFFFE000000
7FFFFC000000
7FFFFE000000
7FFFFC000000
7FFFFC000000
7FFFFC000000
7FFFFC000000
7FFFFC000000
7FFFFC000000
7FFFFC000000
FFFFFE000000
7FFFFE000000
FFFFFE000000
FFFFFE000000
FFFFFE000000
FFFFFE000000
FFFFFE000000
FFFFFE000000
FFFFFE000000
FFFFFE000000
FFFFFE000000
FFFFFF000000
7FFFFF000000
7FFFFE000000
ENDCHAR
STARTCHAR 0071
ENCODING 113
SWIDTH 618 0
DWIDTH 55 0
BBX 53 66 1 -4
BITMAP
00000F00000000
0003FFE0000000
001FFFF8000000
003FFFFC000000
007FFFFE000000
00FFFFFF000000
00FFFFFFC00000
01FFFFFFE00000
01FFFFFFF00000
03FFFFFFF00000
07FFFFFFF80000
07FFFFFFFC0000
07FFFFFFFE0000
0FFFFFFFFF0000
0FFFFFFFFF8000
0FFFFFFFFF8000
1FFFFFFFFFC000
1FFFE0FFFFC000
1FFFC07FFFE000
1FFFC03FFFE000
3FFF801FFFE000
3FFF800FFFE000
3FFF8007FFF000
3FFF8007FFF000
3FFF8003FFF000
7FFF8003FFF000
7FFF8003FFF000
7FFF8001FFF000
7FFF8001FFF000
7FFF8001FFF800
7FFF8001FFF800
7FFF8003FFF800
FFFF8003FFF800
FFFFC003FFF800
FFFFE003FFF000
FFFFF007FFF000
FFFFFC1FFFF000
7FFFFFFFFFF000
7FFFFFFFFFF000
7FFFFFFFFFE000
7FFFFFFFFFE000
7FFFFFFFFFE000
7FFFFFFFFFE000
7FFFFFFFFFE000
3FFFFFFFFFC000
3FFFFFFFFF8000
3FFFFFFFFF8000
3FFFFFFFFF8000
1FFFFFFFFFC000
0FFFFFFFFFE000
0FFFFFFFFFF000
07FFFFFFFFF800
03FFFFFFFFFC00
01FFFFFFFFFC00
00FFFFFFFFFE00
007FFFFFFFFF00
003FFFFFFFFF80
000FFFFFFFFFC0
0003FFFFFFFFE0
0000FFF7FFFFE0
00000303FFFFF0
00000001FFFFF8
00000000FFFFF8
00000000FFFE00
000000007C0000
00000000200000
ENDCHAR
STARTCHAR 0072
ENCODING 114
SWIDTH 585 0
DWIDTH 52 0
BBX 50 62 1 -1
BITMAP
0000FF80000000
000FFFE0000000
03FFFFFC000000
0FFFFFFF000000
3FFFFFFFC00000
7FFFFFFFF00000
FFFFFFFFF80000
FFFFFFFFFE0000
7FFFFFFFFE0000
7FFFFFFFFF0000
7FFFFC1FFF8000
7FFFF803FF8000
7FFFF801FF8000
7FFFF800FF8000
7FFFF800FFC000
7FFFF800FFC000
7FFFF800FFC000
7FFFF800FFC000
7FFFF800FFC000
7FFFFC00FFC000
7FFFFC00FFC000
7FFFFC01FFC000
3FFFFC03FFC000
3FFFFE07FFC000
3FFFFF0FFFC000
3FFFFF3FFF8000
3FFFFFFFFF8000
3FFFFFFFFF8000
3FFFFFFFFF0000
3FFFFFFFFE0000
3FFFFFFFFC0000
3FFFFFFFC00000
3FFFFFFFC00000
1FFFFFFFE00000
3FFFFFFFE00000
1FFFFFFFF00000
1FFFFFFFF80000
1FFFFFFFF80000
1FFFFFFFFC0000
1FFFFFFFFE0000
1FFFFF7FFE0000
1FFFFF3FFF0000
1FFFFF1FFF0000
1FFFFF1FFF8000
1FFFFF0FFFC000
1FFFFF8FFFC000
1FFFFF87FFE000
1FFFFF83FFE000
1FFFFF83FFF000
1FFFFF81FFF800
1FFFFF81FFF800
0FFFFF81FFFC00
0FFFFF80FFFC00
0FFFFF80FFFE00
0FFFFFC07FFF00
0FFFFFC07FFF00
07FFFFC07FFF80
07FFFFC03FFF80
07FFFF803FFFC0
03FFFFC01FFE00
03FFFF801FE000
01FFFF000C0000
ENDCHAR
STARTCHAR 0073
ENCODING 115
SWIDTH 495 0
DWIDTH 44 0
BBX 43 62 1 -1
BITMAP
00007FFFE000
0003FFFFFF80
001FFFFFFFE0
003FFFFFFFC0
007FFFFFFFC0
00FFFFFFFF80
00FFFFFFFF80
01FFFFFFFF00
01FFFFFFFF00
01FFFFFFFE00
03FFFFFFFE00
03FFFFFFFC00
07FFFFFFFC00
07FFFFFFF800
07FFFFFFF800
0FFFFFFFF800
0FFFFFFFF000
0FFFFFFFF000
1FFFFFFFE000
1FFFFFFFE000
1FFFFFFFC000
1FFFFFFFC000
1FFFE03FC000
1FFFE003C000
0FFFE000C000
0FFFF0000000
0FFFFE000000
07FFFF800000
07FFFFE00000
03FFFFF80000
03FFFFFE0000
01FFFFFFC000
00FFFFFFF000
007FFFFFF800
001FFFFFFC00
0001FFFFFC00
00003FFFFE00
00000FFFFE00
000003FFFE00
000000FFFE00
0000007FFF00
0000007FFF80
040000FFFF80
1E0000FFFF80
3F8003FFFF80
7FE3FFFFFF80
7FFFFFFFFF00
7FFFFFFFFF00
FFFFFFFFFF00
FFFFFFFFFF00
FFFFFFFFFF00
FFFFFFFFFE00
FFFFFFFFFE00
7FFFFFFFFE00
3FFFFFFFFC00
1FFFFFFFF000
0FFFFFFFC000
07FFFFFF8000
01FFFFFE0000
007FFFFC0000
001FFFE00000
0001FF000000
ENDCHAR
STARTCHAR 0074
ENCODING 116
SWIDTH 573 0
DWIDTH 51 0
BBX 49 60 1 0
BITMAP
00003DF81FC000
1FFFFFFFFFF000
7FFFFFFFFFFC00
7FFFFFFFFFFC00
7FFFFFFFFFFE00
7FFFFFFFFFFE00
7FFFFFFFFFFF00
7FFFFFFFFFFF00
7FFFFFFFFFFF00
7FFFFFFFFFFF00
7FFFFFFFFFFF00
7FFFFFFFFFFF80
7FFFFFFFFFFF80
7FFFFFFFFFFF80
7FFFFFFFFFFF80
7FFFFFFFFFFF80
FFFFFFFFFFEE00
FFFFFFFFFC0000
7FFF1FFFF00000
7FF01FFFC00000
7F001FFFC00000
20001FFF800000
00001FFF800000
00001FFF000000
00001FFF000000
00001FFF000000
00001FFF000000
00001FFF000000
00001FFF000000
00001FFF000000
00001FFF000000
00001FFF000000
00001FFF000000
00001FFF000000
00001FFF000000
00001FFF000000
00003FFF000000
00003FFF000000
00003FFF000000
00003FFF000000
00003FFF000000
00003FFF000000
00003FFF000000
00003FFF000000
00003FFF000000
00003FFF000000
00003FFF000000
00003FFF000000
00003FFF000000
00003FFF000000
00003FFF000000
00003FFF000000
00003FFF000000
00003FFF000000
00003FFF000000
00003FFF000000
00003FFF000000
00001FFF000000
00001FFF000000
00001FFE000000
ENDCHAR
STARTCHAR 0075
ENCODING 117
SWIDTH 551 0
DWIDTH 49 0
BBX 47 59 1 2
BITMAP
01E000000000
03FF8000FFF8
03FFE000FFFC
03FFE000FFFC
07FFE001FFFC
07FFE000FFFC
07FFC000FFFC
07FFC000FFFC
0FFFC0007FFC
0FFFC0007FFC
0FFFC0007FFC
0FFFC0007FFC
1FFFC000FFFC
1FFFC000FFFC
1FFFC000FFFC
1FFF8000FFFC
1FFF8000FFFC
3FFF8000FFFC
3FFF8000FFFC
3FFF8000FFFC
3FFF8001FFFC
3FFF8001FFFC
7FFF8001FFFC
7FFF8001FFFC
7FFF8001FFFC
7FFF8001FFFC
7FFF8001FFFC
7FFF8003FFFC
7FFFC003FFFC
FFFFC003FFFE
FFFFC003FFFE
7FFFE003FFFC
7FFFF007FFFC
7FFFF807FFFC
7FFFFE07FFF8
7FFFFFFFFFF8
7FFFFFFFFFF8
7FFFFFFFFFF8
7FFFFFFFFFF0
7FFFFFFFFFF0
3FFFFFFFFFF0
3FFFFFFFFFE0
3FFFFFFFFFE0
3FFFFFFFFFE0
1FFFFFFFFFC0
1FFFFFFFFFC0
1FFFFFFFFF80
0FFFFFFFFF80
0FFFFFFFFF00
07FFFFFFFE00
03FFFFFFFC00
03FFFFFFFC00
01FFFFFFF800
01FFFFFFF000
00FFFFFFE000
007FFFFFC000
001FFFFF8000
0007FFFF0000
0000FFFE0000
ENDCHAR
STARTCHAR 0076
ENCODING 118
SWIDTH 596 0
DWIDTH 53 0
BBX 51 57 1 2
BITMAP
0000000000FF00
7C0000000FFFC0
FFC000007FFFE0
7FFC0000FFFFE0
7FFFF000FFFFC0
3FFFFC00FFFFC0
1FFFFE00FFFFC0
0FFFFF00FFFFC0
0FFFFF80FFFFC0
0FFFFF80FFFFC0
0FFFFF00FFFFC0
07FFFF00FFFF80
07FFFF80FFFF80
07FFFF80FFFF80
03FFFF80FFFF80
03FFFFC1FFFF00
03FFFFC1FFFF00
01FFFFC1FFFF00
01FFFFC1FFFF00
00FFFFC1FFFE00
00FFFFE1FFFE00
00FFFFE1FFFE00
007FFFE1FFFE00
007FFFE1FFFC00
003FFFF3FFFC00
003FFFF3FFFC00
001FFFF3FFFC00
001FFFF3FFF800
000FFFFBFFF800
000FFFFFFFF800
0007FFFFFFF800
0003FFFFFFF800
0003FFFFFFF000
0001FFFFFFF000
0001FFFFFFF000
0000FFFFFFF000
00007FFFFFE000
00007FFFFFE000
00003FFFFFE000
00003FFFFFE000
00001FFFFFE000
00000FFFFFC000
00000FFFFFC000
000007FFFFC000
000003FFFFC000
000003FFFFC000
000001FFFF8000
000000FFFF8000
000000FFFF8000
0000007FFF8000
0000003FFF8000
0000001FFF8000
0000001FFF0000
0000000FFF0000
00000007FF0000
00000007FF0000
00000003F00000
ENDCHAR
STARTCHAR 0077
ENCODING 119
SWIDTH 720 0
DWIDTH 64 0
BBX 62 62 1 0
BITMAP
0000000000004000
000000000000E000
3FE000000000F038
3FFF00000001FFFC
7FFF8003C001FFFC
7FFF8007E001FFFC
7FFF8007E003FFF8
FFFFC007F003FFF8
7FFFC007F003FFF8
FFFFE007F007FFF0
FFFFE007F807FFF0
7FFFE007F80FFFF0
7FFFF007F80FFFE0
7FFFF007F80FFFE0
7FFFF807FC1FFFE0
3FFFF807FC1FFFC0
3FFFF80FFC1FFFC0
3FFFFC0FFC3FFFC0
1FFFFC0FFE3FFFC0
1FFFFE0FFE3FFFC0
1FFFFE0FFE7FFFC0
0FFFFE0FFF7FFFC0
0FFFFF1FFFFFFFC0
07FFFF1FFFFFFFC0
07FFFF9FFFFFFF80
07FFFFDFFFFFFF80
03FFFFFFFFFFFF80
03FFFFFFFFFFFF80
01FFFFFFFFFFFF80
01FFFFFFFFFFFF00
00FFFFFFFFFFFF00
00FFFFFFFFFFFF00
00FFFFFFFFFFFF00
007FFFFFFFFFFF00
007FFFFFFFFFFE00
003FFFFFFFFFFE00
003FFFFFFFFFFE00
001FFFFFFFFFFE00
001FFFFFDFFFFE00
000FFFFF9FFFFE00
000FFFFF8FFFFC00
0007FFFF8FFFFC00
0007FFFF0FFFFC00
0003FFFF07FFFC00
0003FFFF07FFFC00
0001FFFE07FFFC00
0001FFFE07FFFC00
0000FFFC03FFFC00
0000FFFC03FFF800
00007FFC03FFF800
00007FF801FFF800
00003FF801FFF800
00003FF801FFF800
00001FF800FFF000
00001FF000FFF000
00000FF000FFF000
000007F0007FE000
000007F0007FC000
000003E0007C0000
000003E000000000
000001E000000000
000000C000000000
ENDCHAR
STARTCHAR 0078
ENCODING 120
SWIDTH 573 0
DWIDTH 51 0
BBX 49 58 1 1
BITMAP
000000001FFF00
000C00001FFF80
1FFF80003FFF80
3FFF80007FFF80
3FFF80007FFF80
7FFF8000FFFF80
FFFFC000FFFF00
FFFFE001FFFE00
7FFFE003FFFE00
7FFFF003FFFC00
7FFFF003FFFC00
7FFFF807FFFC00
7FFFF807FFF800
3FFFFC0FFFF800
3FFFFC0FFFF000
1FFFFE1FFFF000
1FFFFE1FFFE000
0FFFFE1FFFE000
0FFFFF1FFFE000
07FFFF3FFFC000
03FFFFFFFFC000
01FFFFFFFF8000
00FFFFFFFF8000
007FFFFFFF8000
003FFFFFFF0000
003FFFFFFE0000
001FFFFFFE0000
000FFFFFFC0000
0007FFFFFC0000
0007FFFFFC0000
0003FFFFF80000
0003FFFFF80000
0003FFFFF80000
0001FFFFF80000
0001FFFFF80000
0007FFFFF80000
000FFFFFFC0000
000FFFFFFC0000
001FFFFFFC0000
001FFFFFFE0000
003FFFFFFE0000
003FFFFFFE0000
007FFFFFFF0000
007FFF7FFF0000
00FFFF3FFF8000
00FFFF3FFF8000
01FFFE1FFF8000
01FFFE0FFFC000
01FFFE0FFFC000
03FFFE07FFE000
03FFFE03FFE000
07FFFC03FFF000
07FFFC01FFF000
07FFFC00FFF000
0FFFFC007FC000
0FFFF800380000
0FFFF800000000
0FFFF000000000
ENDCHAR
STARTCHAR 0079
ENCODING 121
SWIDTH 607 0
DWIDTH 54 0
BBX 52 61 1 0
BITMAP
000000000071F0
0000000003FFF0
000C000007FFF0
003E00000FFFE0
07FE000007FFC0
3FFF00000FFFC0
7FFF80001FFFC0
FFFF80001FFFC0
7FFFC0003FFF80
7FFFC0003FFF00
3FFFE0003FFF00
3FFFE0007FFE00
3FFFF0007FFE00
1FFFF000FFFE00
1FFFF800FFFC00
0FFFF801FFFC00
07FFFC01FFF800
07FFFC03FFF800
03FFFE07FFF000
03FFFE07FFF000
01FFFE0FFFE000
01FFFF0FFFE000
00FFFF1FFFC000
00FFFF9FFFC000
007FFFBFFF8000
007FFFBFFF8000
003FFFFFFF0000
003FFFFFFF0000
001FFFFFFE0000
001FFFFFFE0000
000FFFFFFC0000
000FFFFFFC0000
0007FFFFFC0000
0007FFFFF80000
0003FFFFF80000
0003FFFFF00000
0001FFFFF00000
0001FFFFE00000
0000FFFFE00000
0000FFFFC00000
00007FFF800000
00003FFF800000
00003FFF800000
00001FFF800000
00001FFF800000
00001FFF800000
00001FFF800000
00001FFF800000
00001FFF800000
00001FFFC00000
00001FFFC00000
00001FFFC00000
00001FFFC00000
00001FFFC00000
00001FFFC00000
00000FFFC00000
00000FFFE00000
00000FFFE00000
00000FFFC00000
00000FFF800000
00000FF0000000
ENDCHAR
STARTCHAR 007A
ENCODING 122
SWIDTH 596 0
DWIDTH 53 0
BBX 51 60 1 1
BITMAP
00001FFFE00000
0001FFFFFFF000
001FFFFFFFF000
01FFFFFFFFE000
07FFFFFFFFC000
0FFFFFFFFF8000
1FFFFFFFFF8000
1FFFFFFFFF0000
3FFFFFFFFE0000
3FFFFFFFFE0000
7FFFFFFFFC0000
7FFFFFFFFC0000
7FFFFFFFF80000
FFFFFFFFF00000
FFFFFFFFF00000
FFFFB7FFE00000
FF8007FFE00000
000007FFC00000
000007FFC00000
00000FFFC00000
00000FFF800000
00000FFF800000
00001FFF000000
00001FFF000000
00003FFF000000
00003FFE000000
00003FFE000000
00007FFE000000
00007FFC000000
00007FFC000000
0000FFFC000000
0000FFFC000000
0000FFF8000000
0001FFF8000000
0001FFF8000000
0001FFF8000000
0003FFF8000000
0003FFF0000000
0003FFF0000000
0007FFF0000000
0007FFF0000000
000FFFE0000000
000FFFC0000000
000FFF80000000
001FFF807FFFC0
001FFFBFFFFFE0
001FFFFFFFFFE0
003FFFFFFFFFE0
003FFFFFFFFFE0
003FFFFFFFFFE0
007FFFFFFFFFE0
007FFFFFFFFFC0
007FFFFFFFFFC0
007FFFFFFFFF80
007FFFFFFFFF00
007FFFFFFFFE00
00007FFFFFFC00
00000FFFFFF000
000001FFFFC000
0000003FFE0000
ENDCHAR
STARTCHAR 007B
ENCODING 123
SWIDTH 348 0
DWIDTH 31 0
BBX 29 84 1 -9
BITMAP
00000780
00001F80
00003FC0
00007FC0
00007FE0
0000FFE0
0001FFF0
0001FFF0
0003FFF8
0007FFF8
0007FFF0
000FFFF0
000FFFC0
000FFF00
001FFF00
001FFE00
001FFE00
001FFC00
001FFC00
001FF800
003FF800
003FF800
003FF000
003FF000
007FF000
007FF000
007FE000
007FE000
00FFE000
00FFE000
00FFE000
01FFE000
01FFC000
01FFC000
01FFC000
0FFFC000
3FFF8000
7FFF8000
7FFF8000
7FFF8000
7FFF8000
7FFF8000
FFFFC000
7FFFC000
7FFFE000
7FFFE000
3FFFE000
00FFF000
00FFF000
007FF000
007FF000
007FF000
007FF000
007FF800
007FF800
007FF800
007FF800
007FF800
003FF800
003FF800
003FF800
003FF800
003FF800
003FF800
003FF800
003FFC00
003FFC00
003FFC00
003FFC00
003FFC00
003FFE00
003FFE00
001FFF80
001FFFE0
001FFFF0
000FFFF0
0007FFF0
0007FFE0
0003FFE0
0000FFE0
00007FE0
00003FC0
00001FC0
00000780
ENDCHAR
STARTCHAR 007C
ENCODING 124
SWIDTH 180 0
DWIDTH 16 0
BBX 14 90 1 -14
BITMAP
2000
3FF8
3FFC
7FFC
7FFC
7FFC
7FFC
7FFC
7FFC
7FFC
7FFC
7FFC
7FFC
7FFC
7FFC
7FFC
7FFC
FFFC
FFFC
FFFC
7FFC
7FFC
7FFC
7FFC
7FFC
7FFC
7FFC
7FFC
7FFC
7FFC
7FFC
7FFC
7FFC
7FFC
7FFC
7FFC
7FFC
7FFC
7FFC
7FFC
7FFC
7FFC
7FFC
7FFC
7FFC
7FFC
7FFC
7FFC
7FFC
7FFC
7FFC
7FFC
7FFC
7FFC
7FFC
7FFC
7FFC
7FFC
7FFC
7FFC
7FFC
7FFC
7FFC
7FFC
7FFC
7FFC
7FFC
7FFC
7FFC
7FFC
3FFC
7FFC
7FFC
7FFC
7FFC
7FFC
7FFC
7FFC
7FFC
7FFC
7FFC
7FFC
7FFC
7FFC
7FFC
7FFC
7FFC
3FFC
3FFC
3C00
ENDCHAR
STARTCHAR 007D
ENCODING 125
SWIDTH 348 0
DWIDTH 31 0
BBX 28 85 2 -10
BITMAP
10000000
1F000000
3FC00000
3FE00000
3FF00000
7FF80000
7FFC0000
7FFE0000
7FFF0000
7FFF8000
7FFF8000
3FFFC000
0FFFC000
07FFC000
03FFC000
03FFC000
03FFC000
03FFC000
01FFC000
01FFE000
01FFE000
00FFE000
00FFE000
00FFE000
01FFE000
01FFE000
01FFE000
01FFE000
00FFE000
00FFE000
00FFE000
00FFE000
00FFF000
00FFF000
00FFF000
00FFF000
007FF000
007FF800
007FFFC0
007FFFE0
003FFFF0
003FFFF0
001FFFF0
001FFFF0
000FFFF0
001FFFF0
001FFFE0
001FFFE0
001FFFC0
001FFE00
003FF800
003FF800
003FF800
003FF800
003FF800
007FF000
007FF000
007FF000
007FF000
007FE000
007FE000
00FFE000
00FFE000
00FFC000
01FFC000
01FFC000
03FFC000
03FF8000
03FF8000
07FF8000
0FFF8000
1FFF8000
3FFF0000
7FFF0000
FFFF0000
FFFE0000
FFFC0000
FFF80000
7FF80000
7FF00000
3FF00000
3FE00000
1FC00000
1F800000
0E000000
ENDCHAR
STARTCHAR 007E
ENCODING 126
SWIDTH 472 0
DWIDTH 42 0
BBX 40 20 1 21
BITMAP
00FF001FFF
03FF801FFF
07FFC01FFF
0FFFF03FFF
1FFFF83FFF
3FFFFF7FFF
7FFFFFFFFF
7FFFFFFFFF
7FFFFFFFFF
7FFFFFFFFF
7FFFFFFFFF
7FFFFFFFFE
7FFFFFFFFC
7FFFFFFFFC
7FFBFFFFF8
FFF1FFFFF0
FFF07FFFE0
FFE03FFFC0
FFE00FFF00
FFE000F800
ENDCHAR
STARTCHAR 00A0
ENCODING 160
SWIDTH 303 0
DWIDTH 27 0
BBX 0 0 0 0
BITMAP
ENDCHAR
STARTCHAR 00A1
ENCODING 161
SWIDTH 292 0
DWIDTH 26 0
BBX 24 67 1 -17
BITMAP
001C00
00FF80
01FFE0
03FFF0
03FFF0
07FFF0
07FFF0
07FFF0
07FFF0
0FFFF0
0FFFF0
0FFFF0
07FFF0
03FFE0
01FFE0
007FC0
000F00
000000
000000
000000
000000
000000
00F800
03FF00
07FF80
07FFC0
07FFC0
07FFE0
07FFE0
07FFE0
0FFFE0
0FFFE0
0FFFE0
0FFFE0
0FFFE0
0FFFE0
0FFFE0
1FFFE0
1FFFE0
1FFFE0
1FFFE0
1FFFF0
1FFFF0
3FFFF0
3FFFF0
3FFFF0
3FFFF0
3FFFF0
3FFFF0
3FFFF8
3FFFF8
7FFFF8
7FFFF8
7FFFF8
7FFFF8
7FFFFC
7FFFFC
7FFFFC
7FFFFC
7FFFFE
7FFFFE
FFFFFE
FFFFFE
FFFFFF
FFFFFF
7FFFFF
07FFFE
ENDCHAR
STARTCHAR 00A2
ENCODING 162
SWIDTH 495 0
DWIDTH 44 0
BBX 42 76 1 -7
BITMAP
0000003F8000
0000003FFC00
0000003FFC00
0000003FFC00
0000007FFC00
0000007FFC00
0000007FF800
0000007FF800
000000FFF800
00003FFFF800
0003FFFFF800
000FFFFFF800
001FFFFFFC00
003FFFFFFE00
007FFFFFFF00
00FFFFFFFF00
01FFFFFFFF80
03FFFFFFFF80
03FFFFFFFF80
07FFFFFFFF80
07FFFFFFFF80
0FFFFFFFFF80
0FFFFFFFFF80
1FFFFFFFFF80
1FFFFFFFFF80
3FFFFFFFFF80
3FFFFFFFFF80
3FFFFFFFFF80
3FFFFFFFFF80
7FFFEFFFFF00
7FFFCFFF3F00
7FFF8FFF0700
7FFF0FFF0000
7FFF1FFF0000
FFFE1FFE0000
FFFE1FFE0000
FFFC1FFE0000
FFFC3FFE0000
FFFC3FFE0000
FFFC3FFC0000
FFFC3FFC0000
FFFC7FFC0000
FFFC7FFC0000
FFFC7FF80000
FFFE7FF80000
FFFE7FF80000
7FFFFFF80000
7FFFFFF80000
7FFFFFF00000
7FFFFFF00700
3FFFFFF3FF80
3FFFFFFFFF80
3FFFFFFFFF80
1FFFFFFFFFC0
1FFFFFFFFFC0
1FFFFFFFFFC0
0FFFFFFFFFC0
07FFFFFFFFC0
07FFFFFFFFC0
03FFFFFFFFC0
01FFFFFFFFC0
00FFFFFFFF80
007FFFFFFF00
000FFFFFFE00
0007FFFFF800
0007FFFFF000
0007FFFF8000
000FFFF80000
000FFF000000
000FFF000000
000FFF000000
000FFE000000
001FFE000000
001FFE000000
0007FE000000
00007C000000
ENDCHAR
STARTCHAR 00A3
ENCODING 163
SWIDTH 540 0
DWIDTH 48 0
BBX 47 61 1 0
BITMAP
0000001C0000
000003FFC000
000007FFF000
00000FFFFC00
00001FFFFF00
00003FFFFF80
00007FFFFFC0
0000FFFFFFE0
0001FFFFFFE0
0003FFFFFFF0
0007FFFFFFF8
0007FFFFFFF8
0007FFF7FFFC
000FFFE7FFFC
000FFFF3FFFC
001FFFF1FFF8
001FFFF1FFFC
001FFFE0FFFC
003FFFE0FFFC
003FFFE07FF8
003FFFC03F00
003FFFC00000
003FFFC00000
003FFFC00000
003FFFC00000
007FFFC00000
7FFFFFFFFE00
7FFFFFFFFE00
7FFFFFFFFE00
7FFFFFFFFE00
7FFFFFFFFE00
7FFFFFFFFE00
FFFFFFFFFE00
FFFFFFFFFE00
FFFFFFFFFE00
FFFFFFFFFE00
007FFFC06000
007FFFC00000
007FFFC00000
007FFFC00000
007FFFC00000
007FFFC00000
007FFFC00000
003FFFC00000
003FFFC00000
003FFFC00000
0FFFFFF80000
7FFFFFFFFFFE
7FFFFFFFFFFC
7FFFFFFFFFFC
7FFFFFFFFFFC
7FFFFFFFFFFC
7FFFFFFFFFFC
7FFFFFFFFFF8
7FFFFFFFFFF8
7FFFFFFFFFF8
7FFFFFFFFFF8
3FFFFFFFFFF8
07FFFFFFFFF0
007FFFFFFFE0
00000007C000
ENDCHAR
STARTCHAR 00A4
ENCODING 164
SWIDTH 438 0
DWIDTH 39 0
BBX 37 37 1 13
BITMAP
0080000C00
01C0001C00
03F0003E00
07F8007F00
0FFDE8FF80
1FFFFFFFC0
3FFFFFFFE0
7FFFFFFFF0
FFFFFFFFF8
7FFFFFFFF8
3FFFFFFFF0
1FFFFFFFE0
1FFF8FFFC0
0FFF07FF80
07FE03FF00
03FC03FE00
07FC01FE00
07FC01FF00
07FC01FF00
07FC01FE00
07FC01FE00
07FC03FE00
07FC03FE00
03FE03FF00
07FF07FF80
0FFF8FFFC0
3FFFFFFFE0
7FFFFFFFF0
7FFFFFFFF8
7FFFFFFFF8
7FFFFFFFF0
3FFFFFFFE0
0FFFFFFFC0
07F8007F80
03F0003F00
01E0001E00
00C0000800
ENDCHAR
STARTCHAR 00A5
ENCODING 165
SWIDTH 607 0
DWIDTH 54 0
BBX 52 61 1 0
BITMAP
000000000071F0
0000000003FFF0
000C000007FFF0
003E00000FFFE0
07FE000007FFC0
3FFF00000FFFC0
7FFF80001FFFC0
FFFF80001FFF80
7FFFC0003FFF80
7FFFC0003FFF00
3FFFE0003FFF00
3FFFE0007FFE00
3FFFF0007FFE00
1FFFF000FFFE00
1FFFF800FFFC00
0FFFF801FFFC00
07FFFC01FFF800
07FFFC03FFF800
03FFFE07FFF000
03FFFE07FFF000
01FFFE0FFFE000
01FFFF0FFFE000
00FFFF1FFFC000
00FFFF9FFFC000
007FFFBFFF8000
007FFFBFFF8000
003FFFFFFFF000
07FFFFFFFFF000
07FFFFFFFFF000
07FFFFFFFFF800
07FFFFFFFFF800
07FFFFFFFFF800
07FFFFFFFFF800
07FFFFFFFFF800
07FFFFFFFFF800
07FFFFFFFFF800
07FFFFFFFFF800
07FFFFFFF9C000
01FFFFFFE00000
0000FFFFC00000
00007FFF800000
003FFFFFBC0000
03FFFFFFFFF800
03FFFFFFFFF800
03FFFFFFFFF800
03FFFFFFFFF800
03FFFFFFFFF800
03FFFFFFFFF800
03FFFFFFFFF800
03FFFFFFFFF800
03FFFFFFFFF800
03FFFFFFFFF800
03FFFFFFC00000
00781FFFC00000
00001FFFC00000
00000FFFC00000
00000FFFE00000
00000FFFE00000
00000FFFC00000
00000FFF800000
00000FF0000000
ENDCHAR
STARTCHAR 00A6
ENCODING 166
SWIDTH 180 0
DWIDTH 16 0
BBX 14 90 1 -14
BITMAP
3FC0
7FFC
7FFC
7FFC
7FFC
FFFC
7FFC
7FFC
7FFC
7FFC
7FFC
7FFC
7FFC
7FFC
7FFC
7FFC
7FFC
7FFC
7FFC
7FFC
7FFC
7FFC
7FFC
7FFC
7FFC
7FFC
7FFC
7FFC
7FFC
7FFC
7FFC
7FFC
7FFC
7FFC
3FFC
7FFC
7FFC
7FFC
7FFC
7FFC
0000
0000
0000
0000
0000
0000
0000
0000
0000
0000
0000
7FF8
7FFC
7FFC
7FFC
7FF8
7FF8
7FF8
7FFC
7FFC
7FFC
7FFC
7FFC
7FFC
FFFC
FFFC
FFFC
7FFC
7FFC
7FFC
7FFC
7FFC
7FFC
7FFC
7FFC
7FFC
7FFC
7FFC
FFFC
7FFC
7FFC
7FFC
7FFC
7FFC
7FFC
7FFC
7FFC
7FFC
7FF8
0008
ENDCHAR
STARTCHAR 00A7
ENCODING 167
SWIDTH 495 0
DWIDTH 44 0
BBX 42 76 1 -7
BITMAP
00007FE00000
0001FFF80000
0007FFFE0000
000FFFFF0000
001FFFFF8000
007FFFFFC000
01FFFFFFE000
01FFFFFFF000
03FFFFFFF800
03FFFFFFF800
03FFFFFFF800
03FFFFFFF800
03FFFFFFF800
07FFFFFFF000
07FFFFFFF000
07FFFE03E000
07FFFC01E000
07FFF8000000
03FFF8000000
03FFF8000000
01FFFC000000
01FFFE000000
03FFFF000000
07FFFFC00000
0FFFFFF80000
0FFFFFFF0000
0FFFFFFFC000
1FFFFFFFF000
1FFFFFFFF800
1FFFFFFFFC00
3FFFFFFFFE00
3FFFFFFFFF00
3FFFFFFFFF80
7FFFFFFFFF80
7FFFE0FFFFC0
7FFF803FFFC0
FFFE001FFFC0
FFFE001FFFC0
FFFE000FFFC0
FFFF001FFFC0
7FFF807FFFC0
7FFFF3FFFFC0
3FFFFFFFFF80
1FFFFFFFFF80
1FFFFFFFFF80
0FFFFFFFFF00
07FFFFFFFF00
01FFFFFFFE00
00FFFFFFFE00
003FFFFFFE00
0007FFFFFE00
0000FFFFFC00
00003FFFF800
00000FFFF000
000007FFF000
000007FFF000
000003FFF800
000007FFF800
006007FFF800
00F00FFFF800
01FC1FFFF800
01FFFFFFF800
03FFFFFFF800
03FFFFFFF800
03FFFFFFF800
03FFFFFFF800
03FFFFFFF800
03FFFFFFF000
01FFFFFFF000
00FFFFFFE000
007FFFFF8000
003FFFFF0000
001FFFFC0000
0007FFF80000
0001FFE00000
00003E000000
ENDCHAR
STARTCHAR 00A8
ENCODING 168
SWIDTH 303 0
DWIDTH 27 0
BBX 25 10 1 62
BITMAP
1E007E00
3F80FF00
7FC0FF80
7FC0FF80
7FC1FF80
FFC1FF80
FFC0FF00
7F80FF00
3F807E00
0E000000
ENDCHAR
STARTCHAR 00A9
ENCODING 169
SWIDTH 663 0
DWIDTH 59 0
BBX 57 57 1 3
BITMAP
00000007C0000000
000003FFFF000000
00003FFFFFE00000
0001FFFFFFF80000
0007FFFFFFFE0000
001FFFFFFFFF0000
007FFFFFFFFFC000
00FFFFFFFFFFC000
01FFFFFFFFFFE000
03FFFFE03FFFF000
03FFFE0007FFF000
07FFF00003FFF800
07FFE00000FFF800
0FFF8000007FFC00
0FFF0002003FFC00
1FFE007FC01FFC00
1FFC01FFF00FFE00
3FF803FFF80FFE00
3FF007FFFC07FF00
3FE007FFFC03FF00
7FE00FFFFC03FF00
7FC00FFFFC03FF00
7FC01FFFFC01FF80
7F801FFFFC01FF80
7F803FFFFC01FF80
7F803FF80801FF80
FF803FF00001FF80
FF803FE00001FF80
FF803FE00000FF80
FF803FE00000FF80
FF803FE00000FF80
FF803FE00000FF80
7FC03FE00001FF80
7FC03FE00001FF00
7FC03FF00001FF00
7FE03FFC0001FF00
7FE01FFFFC01FF00
7FF01FFFFC01FE00
7FF00FFFFC01FE00
3FF80FFFFC03FE00
3FF807FFFC03FC00
3FFC03FFF803FC00
1FFE00FFF007F800
1FFE001FC00FF800
0FFF0000001FF000
0FFF8000007FE000
07FFE00001FFE000
07FFF0000FFFC000
03FFFFFFFFFF8000
01FFFFFFFFFF0000
00FFFFFFFFFC0000
00FFFFFFFFF80000
003FFFFFFFF00000
001FFFFFFFC00000
0007FFFFFF800000
0000FFFFFE000000
000007FFF0000000
ENDCHAR
STARTCHAR 00AA
ENCODING 170
SWIDTH 326 0
DWIDTH 29 0
BBX 27 31 1 29
BITMAP
00078000
000F8000
000FC000
001FC000
001FC000
001FC000
003FE000
003FE000
003FE000
007FF000
007FF000
007FF000
00FFF800
00FFF800
01FFF800
01FFF800
03E7FC00
03E3FC00
07C3FC00
0783FE00
0FFFFE00
0FFFFE00
0FFFFF00
1FFFFF00
1FE1FF80
3F81FF80
3F81FFC0
7F81FFC0
7F80FFE0
7F80FFE0
F8000000
ENDCHAR
STARTCHAR 00AB
ENCODING 171
SWIDTH 472 0
DWIDTH 42 0
BBX 40 40 1 1
BITMAP
0000300002
0000F00007
0001F0000F
0007F0001F
000FF0003F
001FF0007F
003FF001FF
007FF003FF
00FFF007FF
00FFF00FFF
01FFF03FFF
03FFF07FFF
07FFF0FFFF
0FFFF3FFFF
1FFFE7FFFF
3FFFCFFFFE
7FFF0FFFE0
7FFC0FFF00
FFF00FFC00
FFC00FF800
FF800FFC00
FFE00FFF00
FFF80FFFC0
FFFF07FFF0
7FFFE3FFFC
7FFFF1FFFE
1FFFF0FFFF
0FFFF07FFF
07FFF03FFF
01FFF01FFF
00FFF00FFF
007FF00FFF
003FF007FF
000FF003FF
0007F001FF
0003F000FF
0001F0007F
0000F0001F
000030000F
0000000003
ENDCHAR
STARTCHAR 00AC
ENCODING 172
SWIDTH 472 0
DWIDTH 42 0
BBX 40 23 1 15
BITMAP
7FFFFFFFFF
7FFFFFFFFF
7FFFFFFFFF
7FFFFFFFFF
7FFFFFFFFF
7FFFFFFFFF
7FFFFFFFFF
7FFFFFFFFF
7FFFFFFFFF
7FFFFFFFFF
7FFFFFFFFF
FFFFFFFFFF
7FFFFFFFFF
0600001FFF
0000001FFF
0000001FFF
0000001FFF
0000001FFF
0000001FFF
0000001FFF
0000001FFF
0000001FFF
00000000FE
ENDCHAR
STARTCHAR 00AD
ENCODING 173
SWIDTH 382 0
DWIDTH 34 0
BBX 32 14 1 24
BITMAP
7FFFFFFF
7FFFFFFF
7FFFFFFF
7FFFFFFF
7FFFFFFF
7FFFFFFF
7FFFFFFF
7FFFFFFF
7FFFFFFF
7FFFFFFF
7FFFFFFF
FFFFFFFF
7FFFFFEF
0C000000
ENDCHAR
STARTCHAR 00AE
ENCODING 174
SWIDTH 450 0
DWIDTH 40 0
BBX 38 37 1 26
BITMAP
0007FF0000
007FFFE000
01FFFFF000
03FFFFFC00
07FFFFFE00
0FFFFFFF00
0FF800FF80
1FF0001FC0
3FE07007E0
3FC7FC03E0
3F8FFF03F0
7F0FEF81F0
7F0FC381F8
7E0FE3C1F8
7E0FE3C1F8
7E0FE781F8
FC0FFF81FC
FC0FFF81FC
FC0FFE01FC
FC0FFE01FC
FC07FF01FC
7C07FF81FC
7C07F781FC
7E07F7C1F8
7E07F3E3F8
7F07F3E3F8
3F87F1F7F0
3FC7F1CFF0
1FE0000FF0
1FF8003FE0
0FFE007FE0
0FFFE1FFC0
07FFFFFF80
03FFFFFF80
00FFFFFE00
003FFFFC00
0003FFE000
ENDCHAR
STARTCHAR 00AF
ENCODING 175
SWIDTH 326 0
DWIDTH 29 0
BBX 27 8 1 63
BITMAP
7FFFFFC0
7FFFFFE0
7FFFFFE0
7FFFFFE0
7FFFFFE0
7FFFFFE0
FFFFFFE0
3F800000
ENDCHAR
STARTCHAR 00B0
ENCODING 176
SWIDTH 326 0
DWIDTH 29 0
BBX 27 30 1 34
BITMAP
00040000
007FE000
01FFF000
07FFFC00
0FFFFE00
1FFFFF00
1FFFFF80
3FFFFF80
3FF0FFC0
7FE0FFC0
7FC07FC0
7F807FC0
FF803FE0
FF803FE0
FF803FE0
FF803FE0
7F803FE0
7F803FC0
7FC07FC0
7FC07FC0
7FE0FF80
3FF1FF80
3FFFFF00
1FFFFE00
0FFFFE00
07FFFC00
03FFF800
01FFF000
00FFC000
000F0000
ENDCHAR
STARTCHAR 00B1
ENCODING 177
SWIDTH 472 0
DWIDTH 42 0
BBX 40 52 1 -1
BITMAP
0003FFC000
0003FFC000
0003FFC000
0003FFC000
0003FFC000
0003FFC000
0003FFC000
0003FFC000
0003FFC000
0003FFC000
0003FFC000
0003FFC000
0003FFC000
7FFFFFFFFE
7FFFFFFFFF
FFFFFFFFFF
FFFFFFFFFF
FFFFFFFFFF
FFFFFFFFFF
FFFFFFFFFF
FFFFFFFFFF
FFFFFFFFFF
FFFFFFFFFF
FFFFFFFFFF
FFFFFFFFFF
7E1FFFFFFE
0003FFC000
0003FFC000
0003FFC000
0003FFC000
0003FFC000
0003FFC000
0003FFE000
0003FFE000
0003FFE000
0003FFC000
0003FFC000
0003FFC000
0000000000
0000000000
0000000000
7FFFFFFFFC
FFFFFFFFFE
FFFFFFFFFE
FFFFFFFFFE
7FFFFFFFFE
7FFFFFFFFE
7FFFFFFFFE
7FFFFFFFFE
7FFFFFFFFE
7FFFFFFFFE
00F7FC0800
ENDCHAR
STARTCHAR 00B2
ENCODING 178
SWIDTH 270 0
DWIDTH 24 0
BBX 22 31 1 31
BITMAP
018000
07F000
0FFC00
1FFF00
3FFF80
7FFF80
FFFF80
7FFF80
3E1F80
1C1F80
181F80
001F80
003F00
003F00
003F00
007E00
007E00
00FC00
00FC1C
01FFFC
01FFF8
03FFF8
03FFF8
07FFF8
0FFFF8
0FFFF0
3FFFF0
3FFFF0
3FFFC0
0FFE00
006000
ENDCHAR
STARTCHAR 00B3
ENCODING 179
SWIDTH 247 0
DWIDTH 22 0
BBX 20 30 1 30
BITMAP
0FF800
3FF800
3FFC00
3FF800
3FF800
00F800
01F000
03F000
03F000
07E000
0FFE00
0FFF80
1FFFC0
1FFFC0
1FFFE0
071FE0
0007E0
0003E0
0003F0
0003F0
0003F0
0003F0
0007F0
F01FE0
FFFFE0
7FFFC0
3FFFC0
1FFF80
07FE00
00F800
ENDCHAR
STARTCHAR 00B4
ENCODING 180
SWIDTH 236 0
DWIDTH 21 0
BBX 18 14 2 63
BITMAP
03FF80
07FF80
07FFC0
0FFF80
0FFF00
1FFE00
3FFC00
3FF800
7FF000
7FE000
FFC000
FF8000
FF8000
3F0000
ENDCHAR
STARTCHAR 00B5
ENCODING 181
SWIDTH 551 0
DWIDTH 49 0
BBX 47 62 1 -14
BITMAP
000000000F80
1FFE0001FF80
7FFE000FFFC0
7FFE000FFFC0
7FFF000FFFC0
7FFE000FFFE0
7FFE0007FFE0
7FFE0007FFF0
7FFC0007FFF0
7FFC0007FFF8
7FFC0007FFF8
7FFE0007FFFC
7FFE0007FFFC
7FFE0007FFFE
7FFE0007FFFC
7FFE0007FFFC
7FFF0007FFFC
7FFF0007FFFC
7FFF0007FFFC
7FFF000FFFFC
7FFF000FFFFC
7FFF800FFFFC
7FFF801FFFFC
7FFF803FFFFC
7FFFC03FFFFC
7FFFC0FFFFF8
FFFFE3FFFFF8
FFFFFFFFFFF8
FFFFFFFFFFF8
FFFFFFFFFFF8
7FFFFFFFFFF0
7FFFFFFFFFF0
7FFFFFFFFFF0
7FFFFFFFFFE0
7FFFFFFFFFE0
7FFFFFFFFFC0
7FFFFFFFFFC0
7FFFFFFFFF80
7FFFFFFFFF80
7FFFFFFFFF00
7FFFFFFFFF00
7FFFFFFFFE00
7FFFFFFFFC00
7FFFFFFFF000
7FFDFFFFC000
7FFCFFFE0000
7FFC00000000
7FFC00000000
FFFC00000000
7FFC00000000
7FFC00000000
7FFC00000000
7FFC00000000
7FFC00000000
7FFC00000000
7FFC00000000
7FFC00000000
7FFC00000000
7FFC00000000
7FF800000000
7FF800000000
000800000000
ENDCHAR
STARTCHAR 00B6
ENCODING 182
SWIDTH 393 0
DWIDTH 35 0
BBX 33 70 1 -7
BITMAP
000FFFFF00
007FFFFF00
01FFFFFF00
07FFFFFF00
0FFFFFFF00
1FFFFFFF00
1FFFFFFF00
3FFFFFFF00
7FFFFFFF00
7FFFFFFF00
7FFFFFFF00
7FFFFFFF00
7FFFF8FF00
FFFFE0FF00
FFFFE0FF00
7FFFE0FF00
7FFFE0FF00
7FFFE0FF00
7FFFE0FF00
7FFFE0FF00
7FFFE0FF00
7FFFE0FF00
7FFFE0FF00
7FFFE0FF00
7FFFE0FF00
7FFFE0FF00
7FFFE0FF00
7FFFE0FF00
7FFFE0FF80
7FFFE0FF80
3FFFE0FF80
3FFFE0FF80
1FFFE0FF80
0FFFE0FF80
0FFFE0FF00
07FFF0FF00
00FFF0FF00
003FF0FF00
003FF0FF00
003FF0FF00
003FF0FF00
003FF0FF00
003FF0FF00
003FF0FF80
003FF0FF80
003FF0FF80
003FF0FF80
001FF0FF80
001FF0FF80
001FF0FF80
001FF0FF80
001FF0FF00
001FF1FF00
001FF1FF00
001FF1FF00
001FF1FF00
001FF1FF00
001FF1FF00
001FF1FF00
001FF1FF00
003FF0FF00
003FF0FF00
003FF0FF00
003FF0FF00
003FF0FF00
003FF0FF00
003FF0FF00
003FF0FF00
003FE0FF00
001860E000
ENDCHAR
STARTCHAR 00B7
ENCODING 183
SWIDTH 202 0
DWIDTH 18 0
BBX 17 17 1 23
BITMAP
00F000
07F800
1FFC00
3FFE00
7FFE00
7FFF00
7FFF00
FFFF00
FFFF80
FFFF80
7FFF00
7FFF00
3FFF00
3FFE00
1FFC00
07F000
03C000
ENDCHAR
STARTCHAR 00B8
ENCODING 184
SWIDTH 303 0
DWIDTH 27 0
BBX 25 19 1 -15
BITMAP
01FF0000
01FF0000
01FF8000
01FF8000
01FFC000
00FFC000
00FFF000
007FF800
003FFE00
000FFF00
0003FF00
7803FF80
7F83FF80
FFFFFF80
FFFFFF00
FFFFFF00
3FFFFE00
0FFFFC00
01FFC000
ENDCHAR
STARTCHAR 00B9
ENCODING 185
SWIDTH 225 0
DWIDTH 20 0
BBX 17 30 2 31
BITMAP
007000
01FC00
03FC00
0FFE00
3FFE00
7FFE00
FFFE00
FFFE00
7DFE00
3DFE00
19FE00
09FE00
03FE00
03FE00
03FE00
03FE00
03FE00
03FE00
03FE00
07FE00
07FE00
07FF00
07FF00
07FF00
07FF00
07FF00
07FF00
07FF80
01FF80
000100
ENDCHAR
STARTCHAR 00BA
ENCODING 186
SWIDTH 281 0
DWIDTH 25 0
BBX 23 31 1 31
BITMAP
01E000
03F800
07FE00
07FF00
0FFF80
0FFFC0
1FFFE0
1FFFF0
3FFFF0
3FFFF8
3FFFF8
7FCFFC
7FC3FC
7F83FC
FF83FE
FF83FE
FF83FE
7F83FE
7FC7FE
7FFFFE
7FFFFC
7FFFFC
3FFFFC
3FFFFC
3FFFFC
1FFFF8
1FFFF8
0FFFF0
07FFF0
01FFC0
007F00
ENDCHAR
STARTCHAR 00BB
ENCODING 187
SWIDTH 472 0
DWIDTH 42 0
BBX 40 40 1 1
BITMAP
6000000000
F800060000
FC00070000
7E00078000
7F000FC000
7F800FE000
7FC00FF800
7FE00FFC00
7FF00FFE00
7FF80FFF00
7FFC0FFF80
7FFE0FFFE0
7FFF0FFFF0
7FFF0FFFF8
3FFF87FFFE
0FFFC7FFFF
03FFE0FFFF
00FFE01FFF
003FE007FF
000FE001FF
001FE000FF
007FE007FF
03FFE01FFF
1FFFE07FFE
7FFFE1FFFE
7FFFC3FFFC
7FFF87FFF8
7FFE07FFF0
FFFC07FFE0
FFF807FFC0
FFF007FF80
FFC007FF00
FF8007FE00
FF0007FC00
7E0007F800
7C0007F000
780007F000
70000FC000
60000F8000
00000E0000
ENDCHAR
STARTCHAR 00BC
ENCODING 188
SWIDTH 562 0
DWIDTH 50 0
BBX 47 63 2 -1
BITMAP
000000001800
007000003F00
01FC00003FC0
03FC00007FE0
0FFE00007FE0
3FFE0000FFC0
7FFE0000FFC0
FFFE0001FF80
FFFE0001FF80
7DFE0003FF00
3DFE0007FF00
19FE0007FE00
09FE000FFE00
03FE000FFC00
03FE001FFC00
03FE001FF800
03FE003FF800
03FE003FF000
03FE007FF000
03FE007FE000
07FE00FFE000
07FE01FFC000
07FF01FF8000
07FF03FF8000
07FF03FF0000
07FF07FF0000
07FF0FFE0000
07FF0FFC0000
07FF9FFC0000
01FF9FF80000
00013FF80000
00003FF00000
00007FE00600
0000FFE07E00
0000FFC07E00
0001FFC07E00
0001FF80FE00
0003FF00FC00
0007FF00FC00
0007FE00FC00
000FFE01F800
000FFC01F800
001FF801F800
003FF801F85C
003FF003FFFC
007FF003FFFE
007FE003FFFE
00FFC007FFFE
01FFC007FFFE
01FF8007FFF8
03FF0007FFC0
03FF000407C0
07FE000007C0
0FFE00000FC0
0FFC00000FC0
1FF800000FE0
1FF800001FE0
3FF000001FE0
1FE000001FE0
0FC000003FE0
07C000003FE0
000000003FF0
000000003FE0
ENDCHAR
STARTCHAR 00BD
ENCODING 189
SWIDTH 562 0
DWIDTH 50 0
BBX 47 61 2 1
BITMAP
000000001800
007000003F00
01FC00003FC0
03FC00007FE0
0FFE00007FE0
3FFE0000FFC0
7FFE0000FFC0
FFFE0001FF80
FFFE0001FF80
7DFE0003FF00
3DFE0007FF00
19FE0007FE00
09FE000FFE00
03FE000FFC00
03FE001FFC00
03FE001FF800
03FE003FF800
03FE003FF000
03FE007FF000
03FE007FE000
07FE00FFE000
07FE01FFC000
07FF01FF8000
07FF03FF8000
07FF03FF0000
07FF07FF0000
07FF0FFE0000
07FF0FFC0000
07FF9FFC0000
01FF9FF80000
00013FF80000
00003FF1F000
00007FE7FE00
0000FFEFFF80
0000FFCFFFC0
0001FFFFFFC0
0001FFBFFFC0
0003FF3FFFC0
0007FF1FBFC0
0007FE1F0FC0
000FFE0C0FC0
000FFC000FC0
001FF8000FC0
003FF8001F80
003FF0001F80
007FF0001F80
007FE0003F00
00FFC0003F00
01FFC0007E06
01FF80007FFE
03FF0000FFFE
03FF0000FFFE
07FE0001FFFC
0FFE0003FFFC
0FFC0003FFFC
1FF80007FFFC
1FF8000FFFF8
3FF0001FFFF8
1FE0001FFFF8
0FC0000FFF80
07C00001FC00
ENDCHAR
STARTCHAR 00BE
ENCODING 190
SWIDTH 562 0
DWIDTH 50 0
BBX 48 63 1 -1
BITMAP
000000000C00
000000001F80
0FF800001FE0
3FF800003FF0
3FFC00003FF0
3FF800007FE0
3FF800007FE0
00F80000FFC0
01F00000FFC0
03F00001FF80
03F00003FF80
07E00003FF00
0FFE0007FF00
0FFF8007FE00
1FFFC00FFE00
1FFFC00FFC00
1FFFE01FFC00
071FE01FF800
0007E03FF800
0003E03FF000
0003F07FF000
0003F0FFE000
0003F0FFC000
0003F1FFC000
0007F1FF8000
F01FE3FF8000
FFFFE7FF0000
7FFFC7FE0000
3FFFCFFE0000
1FFF8FFC0000
07FE1FFC0000
00F81FF80000
00003FF00300
00007FF03F00
00007FE03F00
0000FFE03F00
0000FFC07F00
0001FF807E00
0003FF807E00
0003FF007E00
0007FF00FC00
0007FE00FC00
000FFC00FC00
001FFC00FC2E
001FF801FFFE
003FF801FFFF
003FF001FFFF
007FE003FFFF
00FFE003FFFF
00FFC003FFFC
01FF8003FFE0
01FF800203E0
03FF000003E0
07FF000007E0
07FE000007E0
0FFC000007F0
0FFC00000FF0
1FF800000FF0
0FF000000FF0
07E000001FF0
03E000001FF0
000000001FF8
000000001FF0
ENDCHAR
STARTCHAR 00BF
ENCODING 191
SWIDTH 461 0
DWIDTH 41 0
BBX 39 64 1 -17
BITMAP
00000F8000
00003FC000
0000FFF000
0001FFF800
0001FFF800
0003FFFC00
0003FFFC00
0003FFFC00
0003FFFC00
0001FFFC00
0001FFFC00
0000FFF800
0000FFF000
00007FC000
00001E0000
0000000000
0000000000
0000000000
0000000000
0000000000
0000FFF800
0000FFF800
0000FFF800
0000FFF800
0000FFF800
0000FFF800
0001FFF800
0003FFF800
0007FFFC00
001FFFFC00
003FFFF800
00FFFFF800
01FFFFF800
07FFFFF000
0FFFFFF000
1FFFFFE000
1FFFFF0000
3FFFF80000
3FFFE00000
7FFF800000
7FFF000000
7FFE000000
7FFE000000
7FFE000000
7FFE000000
7FFE000000
FFFE0001E0
FFFE0003F0
FFFF000FFC
FFFF003FFE
FFFFC0FFFE
7FFFFFFFFE
7FFFFFFFFE
7FFFFFFFFC
7FFFFFFFFC
7FFFFFFFFC
7FFFFFFFF8
3FFFFFFFF8
3FFFFFFFF0
1FFFFFFFF0
0FFFFFFFE0
07FFFFFFC0
00FFFFFF00
0003FFFC00
ENDCHAR
STARTCHAR 00C0
ENCODING 192
SWIDTH 630 0
DWIDTH 56 0
BBX 54 79 1 -2
BITMAP
0003FFC0000000
0003FFC0000000
0003FFE0000000
0001FFE0000000
0000FFF0000000
00007FF0000000
00003FF8000000
00001FFC000000
00001FFC000000
00000FFE000000
000007FE000000
000003FE000000
000001FF000000
000001F8000000
00000000000000
00000000000000
00000000000000
0000000F800000
0000007FC00000
000000FFC00000
000000FFE00000
000000FFE00000
000001FFE00000
000001FFE00000
000001FFF00000
000003FFF00000
000003FFF00000
000007FFF00000
000007FFF80000
000007FFF80000
00000FFFF80000
00000FFFF80000
00000FFFFC0000
00001FFFFC0000
00001FFFFC0000
00003FFFFC0000
00003FFFFE0000
00003FFFFE0000
00007FFFFE0000
00007FFFFF0000
00007FFFFF0000
0000FFFFFF0000
0000FFFFFF8000
0001FFFFFF8000
0001FFFFFF8000
0003FFFFFF8000
0003FFFFFFC000
0007FFFFFFC000
0007FFFFFFC000
0007FE3FFFE000
000FFC3FFFE000
000FF81FFFE000
001FF81FFFF000
001FF00FFFF000
003FE00FFFF000
003FE00FFFF800
007FC00FFFF800
007FC07FFFF800
007FFFFFFFFC00
00FFFFFFFFFC00
00FFFFFFFFFE00
01FFFFFFFFFE00
01FFFFFFFFFE00
03FFFFFFFFFF00
03FFFFFFFFFF00
07FFFE0FFFFF80
07FFF007FFFF80
07FFE007FFFF80
0FFFC007FFFFC0
0FFFC007FFFFC0
1FFFC003FFFFE0
1FFFC003FFFFE0
3FFF8003FFFFF0
3FFF8001FFFFF0
3FFF8001FFFFF8
7FFFC001FFFFF8
7FFFC000FFFFFC
FFFF0000F80078
7F000000000000
ENDCHAR
STARTCHAR 00C1
ENCODING 193
SWIDTH 630 0
DWIDTH 56 0
BBX 54 79 1 -2
BITMAP
00000000FFE000
00000001FFE000
00000001FFE000
00000003FFC000
00000007FF8000
00000007FF8000
0000000FFF0000
0000001FFE0000
0000001FFC0000
0000001FF80000
0000003FF00000
0000003FE00000
0000007FE00000
0000000FC00000
00000000000000
00000000000000
00000000000000
0000000F800000
0000007FC00000
000000FFC00000
000000FFE00000
000000FFE00000
000001FFE00000
000001FFE00000
000001FFF00000
000003FFF00000
000003FFF00000
000007FFF00000
000007FFF80000
000007FFF80000
00000FFFF80000
00000FFFF80000
00000FFFFC0000
00001FFFFC0000
00001FFFFC0000
00003FFFFC0000
00003FFFFE0000
00003FFFFE0000
00007FFFFE0000
00007FFFFF0000
00007FFFFF0000
0000FFFFFF0000
0000FFFFFF8000
0001FFFFFF8000
0001FFFFFF8000
0003FFFFFF8000
0003FFFFFFC000
0007FFFFFFC000
0007FFFFFFC000
0007FE3FFFE000
000FFC3FFFE000
000FF81FFFE000
001FF81FFFF000
001FF00FFFF000
003FE00FFFF000
003FE00FFFF800
007FC00FFFF800
007FC07FFFF800
007FFFFFFFFC00
00FFFFFFFFFC00
00FFFFFFFFFE00
01FFFFFFFFFE00
01FFFFFFFFFE00
03FFFFFFFFFF00
03FFFFFFFFFF00
07FFFE0FFFFF80
07FFF007FFFF80
07FFE007FFFF80
0FFFC007FFFFC0
0FFFC007FFFFC0
1FFFC003FFFFE0
1FFFC003FFFFE0
3FFF8003FFFFF0
3FFF8001FFFFF0
3FFF8001FFFFF8
7FFFC001FFFFF8
7FFFC000FFFFFC
FFFF0000F80078
7F000000000000
ENDCHAR
STARTCHAR 00C2
ENCODING 194
SWIDTH 630 0
DWIDTH 56 0
BBX 54 79 1 -2
BITMAP
0000000E000000
0000007F000000
000000FFC00000
000003FFE00000
000007FFF00000
00000FFFFC0000
00001FFFFE0000
00003FFFFF0000
00007FFFFF8000
0000FFFBFFC000
0001FFE1FFC000
0001FFC0FFC000
0000FF807FC000
00007C001F0000
00000000000000
00000000000000
00000000000000
0000000F800000
0000007FC00000
000000FFC00000
000000FFE00000
000000FFE00000
000001FFE00000
000001FFE00000
000001FFF00000
000003FFF00000
000003FFF00000
000007FFF00000
000007FFF80000
000007FFF80000
00000FFFF80000
00000FFFF80000
00000FFFFC0000
00001FFFFC0000
00001FFFFC0000
00003FFFFC0000
00003FFFFE0000
00003FFFFE0000
00007FFFFE0000
00007FFFFF0000
00007FFFFF0000
0000FFFFFF0000
0000FFFFFF8000
0001FFFFFF8000
0001FFFFFF8000
0003FFFFFF8000
0003FFFFFFC000
0007FFFFFFC000
0007FFFFFFC000
0007FE3FFFE000
000FFC3FFFE000
000FF81FFFE000
001FF81FFFF000
001FF00FFFF000
003FE00FFFF000
003FE00FFFF800
007FC00FFFF800
007FC07FFFF800
007FFFFFFFFC00
00FFFFFFFFFC00
00FFFFFFFFFE00
01FFFFFFFFFE00
01FFFFFFFFFE00
03FFFFFFFFFF00
03FFFFFFFFFF00
07FFFE0FFFFF80
07FFF007FFFF80
07FFE007FFFF80
0FFFC007FFFFC0
0FFFC007FFFFC0
1FFFC003FFFFE0
1FFFC003FFFFE0
3FFF8003FFFFF0
3FFF8001FFFFF0
3FFF8001FFFFF8
7FFFC001FFFFF8
7FFFC000FFFFFC
FFFF0000F80078
7F000000000000
ENDCHAR
STARTCHAR 00C3
ENCODING 195
SWIDTH 630 0
DWIDTH 56 0
BBX 54 78 1 -2
BITMAP
000007C07FC000
00000FE07FC000
00003FF87FC000
00003FFC7FC000
00007FFFFFC000
00007FFFFFC000
0000FFFFFFC000
0000FFFFFFC000
0000FFFFFF8000
0000FFFFFF0000
0000FF3FFE0000
0000FE0FFC0000
0000FE03F80000
00000000000000
00000000000000
00000000000000
0000000F800000
0000007FC00000
000000FFC00000
000000FFE00000
000000FFE00000
000001FFE00000
000001FFE00000
000001FFF00000
000003FFF00000
000003FFF00000
000007FFF00000
000007FFF80000
000007FFF80000
00000FFFF80000
00000FFFF80000
00000FFFFC0000
00001FFFFC0000
00001FFFFC0000
00003FFFFC0000
00003FFFFE0000
00003FFFFE0000
00007FFFFE0000
00007FFFFF0000
00007FFFFF0000
0000FFFFFF0000
0000FFFFFF8000
0001FFFFFF8000
0001FFFFFF8000
0003FFFFFF8000
0003FFFFFFC000
0007FFFFFFC000
0007FFFFFFC000
0007FE3FFFE000
000FFC3FFFE000
000FF81FFFE000
001FF81FFFF000
001FF00FFFF000
003FE00FFFF000
003FE00FFFF800
007FC00FFFF800
007FC07FFFF800
007FFFFFFFFC00
00FFFFFFFFFC00
00FFFFFFFFFE00
01FFFFFFFFFE00
01FFFFFFFFFE00
03FFFFFFFFFF00
03FFFFFFFFFF00
07FFFE0FFFFF80
07FFF007FFFF80
07FFE007FFFF80
0FFFC007FFFFC0
0FFFC007FFFFC0
1FFFC003FFFFE0
1FFFC003FFFFE0
3FFF8003FFFFF0
3FFF8001FFFFF0
3FFF8001FFFFF8
7FFFC001FFFFF8
7FFFC000FFFFFC
FFFF0000F80078
7F000000000000
ENDCHAR
STARTCHAR 00C4
ENCODING 196
SWIDTH 630 0
DWIDTH 56 0
BBX 54 74 1 -2
BITMAP
00000E003E0000
00001FC07F8000
00003FC0FF8000
00007FC0FFC000
00007FE0FFC000
00007FE0FF8000
00007FC0FF8000
00003FC0FF0000
00001F803E0000
00000700000000
00000000000000
00000000000000
0000000F800000
0000007FC00000
000000FFC00000
000000FFE00000
000000FFE00000
000001FFE00000
000001FFE00000
000001FFF00000
000003FFF00000
000003FFF00000
000007FFF00000
000007FFF80000
000007FFF80000
00000FFFF80000
00000FFFF80000
00000FFFFC0000
00001FFFFC0000
00001FFFFC0000
00003FFFFC0000
00003FFFFE0000
00003FFFFE0000
00007FFFFE0000
00007FFFFF0000
00007FFFFF0000
0000FFFFFF0000
0000FFFFFF8000
0001FFFFFF8000
0001FFFFFF8000
0003FFFFFF8000
0003FFFFFFC000
0007FFFFFFC000
0007FFFFFFC000
0007FE3FFFE000
000FFC3FFFE000
000FF81FFFE000
001FF81FFFF000
001FF00FFFF000
003FE00FFFF000
003FE00FFFF800
007FC00FFFF800
007FC07FFFF800
007FFFFFFFFC00
00FFFFFFFFFC00
00FFFFFFFFFE00
01FFFFFFFFFE00
01FFFFFFFFFE00
03FFFFFFFFFF00
03FFFFFFFFFF00
07FFFE0FFFFF80
07FFF007FFFF80
07FFE007FFFF80
0FFFC007FFFFC0
0FFFC007FFFFC0
1FFFC003FFFFE0
1FFFC003FFFFE0
3FFF8003FFFFF0
3FFF8001FFFFF0
3FFF8001FFFFF8
7FFFC001FFFFF8
7FFFC000FFFFFC
FFFF0000F80078
7F000000000000
ENDCHAR
STARTCHAR 00C5
ENCODING 197
SWIDTH 630 0
DWIDTH 56 0
BBX 54 79 1 -2
BITMAP
0000003E000000
000003FFC00000
00000FFFF00000
00001FFFFC0000
00003FFFFE0000
00007FFFFF0000
0000FFE3FF0000
0000FF81FF8000
0001FF80FF8000
0001FF00FF8000
0001FF00FF8000
0001FF007F8000
0001FF007FC000
0001FF007F8000
0000FF00FF8000
0000FF80FF8000
0000FFC1FF0000
00007FFFFE0000
00003FFFFC0000
00001FFFF80000
00000FFFF00000
000007FFE00000
000001FFE00000
000001FFE00000
000001FFF00000
000003FFF00000
000003FFF00000
000007FFF00000
000007FFF80000
000007FFF80000
00000FFFF80000
00000FFFF80000
00000FFFFC0000
00001FFFFC0000
00001FFFFC0000
00003FFFFC0000
00003FFFFE0000
00003FFFFE0000
00007FFFFE0000
00007FFFFF0000
00007FFFFF0000
0000FFFFFF0000
0000FFFFFF8000
0001FFFFFF8000
0001FFFFFF8000
0003FFFFFF8000
0003FFFFFFC000
0007FFFFFFC000
0007FFFFFFC000
0007FE3FFFE000
000FFC3FFFE000
000FF81FFFE000
001FF81FFFF000
001FF00FFFF000
003FE00FFFF000
003FE00FFFF800
007FC00FFFF800
007FC07FFFF800
007FFFFFFFFC00
00FFFFFFFFFC00
00FFFFFFFFFE00
01FFFFFFFFFE00
01FFFFFFFFFE00
03FFFFFFFFFF00
03FFFFFFFFFF00
07FFFE0FFFFF80
07FFF007FFFF80
07FFE007FFFF80
0FFFC007FFFFC0
0FFFC007FFFFC0
1FFFC003FFFFE0
1FFFC003FFFFE0
3FFF8003FFFFF0
3FFF8001FFFFF0
3FFF8001FFFFF8
7FFFC001FFFFF8
7FFFC000FFFFFC
FFFF0000F80078
7F000000000000
ENDCHAR
STARTCHAR 00C6
ENCODING 198
SWIDTH 731 0
DWIDTH 65 0
BBX 63 64 1 -2
BITMAP
0000000007000000
00000001FFFFC000
0000003FFFFFFC00
0000007FFFFFFE00
000000FFFFFFFC00
000000FFFFFFFC00
000001FFFFFFFC00
000001FFFFFFFC00
000001FFFFFFF800
000003FFFFFFF800
000003FFFFFFF800
000003FFFFFFF800
000007FFFFFFF000
000007FFFFFFF000
00000FFFFFFFF000
00000FFFFFFFF000
00000FFFFFFFF800
00001FFFFFFFF000
00001FFFFFFFE000
00001FFFFFE00000
00003FFFFF800000
00003FFFFF000000
00003FFFFF800000
00007FFFFF800000
00007FFFFF800000
0000FFFFFFC07000
0000FFFFFFCFF000
0001FFFFFFFFF000
0001FFFFFFFFF000
0001FFFFFFFFF000
0003FFFFFFFFF000
0003FFFFFFFFF000
0007FFFFFFFFF000
0007FE7FFFFFF800
000FFC3FFFFFF800
000FFC3FFFF80000
001FF81FFFE00000
001FF01FFFE00000
001FF00FFFF00020
003FE00FFFF041E0
003FE00FFFFFFFF0
007FC00FFFFFFFF0
007FC0FFFFFFFFF8
00FFFFFFFFFFFFF8
00FFFFFFFFFFFFF8
01FFFFFFFFFFFFF8
01FFFFFFFFFFFFFC
01FFFFFFFFFFFFFC
03FFFFFFFFFFFFFC
03FFFF8FFFFFFFFC
07FFFC07FFFFFFFC
07FFF007FFFFFFFE
0FFFE007FFFFFFFE
0FFFC007FFFFFFFE
0FFFC003FFFFFFFE
1FFFC003FFFFFFFE
1FFFC003FFFFFFF0
3FFF8003FFFFFF80
3FFF8001FFFFF800
7FFF8001FFFF8000
7FFFC000FFF00000
7FFFC000FF000000
FFF8000060000000
6000000000000000
ENDCHAR
STARTCHAR 00C7
ENCODING 199
SWIDTH 483 0
DWIDTH 43 0
BBX 41 76 1 -15
BITMAP
000000400000
00000FFE0000
00007FFFC000
0001FFFFF000
000FFFFFF800
003FFFFFFE00
007FFFFFFF00
00FFFFFFFF80
01FFFFFFFF80
03FFFFFFFF80
07FFFFFFFF80
0FFFFFFFFF80
0FFFFFFFFF80
1FFFFFFFFF80
1FFFFFFFFF80
3FFFFFFFFF00
3FFFFFFFFF00
3FFFFFFE3600
7FFFFF800000
7FFFFE000000
7FFFFC000000
7FFFF8000000
FFFFF0000000
7FFFE0000000
7FFFE0000000
7FFFC0000000
FFFFC0000000
FFFFC0000000
FFFFC0000000
7FFFC0000000
7FFFC0000000
7FFFE0000000
7FFFF0000000
FFFFF8000200
FFFFFC00FF00
7FFFFF7FFF00
7FFFFFFFFF80
7FFFFFFFFF80
7FFFFFFFFF80
7FFFFFFFFF80
3FFFFFFFFF80
3FFFFFFFFF00
3FFFFFFFFF00
3FFFFFFFFF00
1FFFFFFFFF00
1FFFFFFFFF00
0FFFFFFFFF00
0FFFFFFFFF00
0FFFFFFFFF80
07FFFFFFFF00
07FFFFFFFF00
03FFFFFFFE00
03FFFFFFFC00
01FFFFFFF800
00FFFFFFF000
00FFFFFFF000
007FFFFFE000
0007FFFF8000
0003FFFE0000
0003FFF00000
0003FF000000
0003FF800000
0001FF800000
0001FFE00000
0000FFF00000
00003FFC0000
00001FFE0000
000007FE0000
007007FF0000
00FF07FF0000
01FFFFFF0000
01FFFFFE0000
01FFFFFE0000
007FFFFC0000
001FFFF80000
0003FF800000
ENDCHAR
STARTCHAR 00C8
ENCODING 200
SWIDTH 495 0
DWIDTH 44 0
BBX 42 77 1 0
BITMAP
1FF000000000
7FF800000000
FFFC00000000
7FFC00000000
3FFE00000000
1FFF00000000
0FFF80000000
03FFC0000000
01FFC0000000
00FFE0000000
007FE0000000
003FF0000000
003F00000000
000000000000
000000000000
003FFF000000
01FFFFFC0000
0FFFFFFF8000
3FFFFFFF8000
7FFFFFFF8000
FFFFFFFF0000
7FFFFFFF0000
7FFFFFFF0000
3FFFFFFE0000
3FFFFFFE0000
3FFFFFFE0000
3FFFFFFE0000
1FFFFFFE0000
1FFFFFFE0000
1FFFFFFC0000
1FFFFFFE0000
1FFFFFFE0000
0FFFFFFC0000
0FFFFFF80000
0FFFF0000000
0FFFE0000000
0FFFE0000000
0FFFE0000000
07FFE0000000
07FFF0000000
07FFF07C0000
07FFFFFE0000
07FFFFFC0000
03FFFFFC0000
03FFFFFC0000
03FFFFFC0000
03FFFFFC0000
03FFFFFE0000
03FFFFFE0000
01FFFFEE0000
01FFF8000000
01FFF8000000
01FFFC000000
01FFFC001800
01FFFFFFFC00
00FFFFFFFC00
00FFFFFFFE00
01FFFFFFFE00
00FFFFFFFE00
00FFFFFFFF00
00FFFFFFFF00
007FFFFFFF00
00FFFFFFFF00
00FFFFFFFF00
00FFFFFFFF80
007FFFFFFF80
007FFFFFFF80
007FFFFFFF80
007FFFFFFF80
007FFFFFFFC0
007FFFFFFF80
007FFFFFF800
007FFFFFC000
003FFFFC0000
003FFFC00000
003FF8000000
001C00000000
ENDCHAR
STARTCHAR 00C9
ENCODING 201
SWIDTH 495 0
DWIDTH 44 0
BBX 42 79 1 0
BITMAP
000003C00000
0001FFE00000
0001FFE00000
0003FFC00000
0003FF800000
0003FF800000
0007FF000000
0007FE000000
000FFC000000
000FFC000000
000FF8000000
001FF0000000
001FF0000000
003FE0000000
003FE0000000
000000000000
000000000000
003FFF000000
01FFFFFC0000
0FFFFFFF8000
3FFFFFFF8000
7FFFFFFF8000
FFFFFFFF0000
7FFFFFFF0000
7FFFFFFF0000
3FFFFFFE0000
3FFFFFFE0000
3FFFFFFE0000
3FFFFFFE0000
1FFFFFFE0000
1FFFFFFE0000
1FFFFFFC0000
1FFFFFFE0000
1FFFFFFE0000
0FFFFFFC0000
0FFFFFF80000
0FFFF0000000
0FFFE0000000
0FFFE0000000
0FFFE0000000
07FFE0000000
07FFF0000000
07FFF07C0000
07FFFFFE0000
07FFFFFC0000
03FFFFFC0000
03FFFFFC0000
03FFFFFC0000
03FFFFFC0000
03FFFFFE0000
03FFFFFE0000
01FFFFEE0000
01FFF8000000
01FFF8000000
01FFFC000000
01FFFC001800
01FFFFFFFC00
00FFFFFFFC00
00FFFFFFFE00
01FFFFFFFE00
00FFFFFFFE00
00FFFFFFFF00
00FFFFFFFF00
007FFFFFFF00
00FFFFFFFF00
00FFFFFFFF00
00FFFFFFFF80
007FFFFFFF80
007FFFFFFF80
007FFFFFFF80
007FFFFFFF80
007FFFFFFFC0
007FFFFFFF80
007FFFFFF800
007FFFFFC000
003FFFFC0000
003FFFC00000
003FF8000000
001C00000000
ENDCHAR
STARTCHAR 00CA
ENCODING 202
SWIDTH 495 0
DWIDTH 44 0
BBX 42 78 1 0
BITMAP
000F00000000
003F80000000
007FE0000000
01FFF0000000
03FFFC000000
07FFFE000000
0FFFFF800000
1FFFFFC00000
1FFFFFE00000
3FFDFFE00000
7FF07FE00000
7FE03FC00000
FFC01F000000
7F8000000000
1C0000000000
000000000000
003FFF000000
01FFFFFC0000
0FFFFFFF8000
3FFFFFFF8000
7FFFFFFF8000
FFFFFFFF0000
7FFFFFFF0000
7FFFFFFF0000
3FFFFFFE0000
3FFFFFFE0000
3FFFFFFE0000
3FFFFFFE0000
1FFFFFFE0000
1FFFFFFE0000
1FFFFFFC0000
1FFFFFFE0000
1FFFFFFE0000
0FFFFFFC0000
0FFFFFF80000
0FFFF0000000
0FFFE0000000
0FFFE0000000
0FFFE0000000
07FFE0000000
07FFF0000000
07FFF07C0000
07FFFFFE0000
07FFFFFC0000
03FFFFFC0000
03FFFFFC0000
03FFFFFC0000
03FFFFFC0000
03FFFFFE0000
03FFFFFE0000
01FFFFEE0000
01FFF8000000
01FFF8000000
01FFFC000000
01FFFC001800
01FFFFFFFC00
00FFFFFFFC00
00FFFFFFFE00
01FFFFFFFE00
00FFFFFFFE00
00FFFFFFFF00
00FFFFFFFF00
007FFFFFFF00
00FFFFFFFF00
00FFFFFFFF00
00FFFFFFFF80
007FFFFFFF80
007FFFFFFF80
007FFFFFFF80
007FFFFFFF80
007FFFFFFFC0
007FFFFFFF80
007FFFFFF800
007FFFFFC000
003FFFFC0000
003FFFC00000
003FF8000000
001C00000000
ENDCHAR
STARTCHAR 00CB
ENCODING 203
SWIDTH 495 0
DWIDTH 44 0
BBX 42 74 1 0
BITMAP
00003E000000
00007F000000
0F007F800000
1FC0FFC00000
3FC0FFC00000
3FE0FF800000
7FE0FF800000
7FE07F800000
7FE07F000000
3FC00C000000
1F8000000000
070000000000
003FFF000000
01FFFFFC0000
0FFFFFFF8000
3FFFFFFF8000
7FFFFFFF8000
FFFFFFFF0000
7FFFFFFF0000
7FFFFFFF0000
3FFFFFFE0000
3FFFFFFE0000
3FFFFFFE0000
3FFFFFFE0000
1FFFFFFE0000
1FFFFFFE0000
1FFFFFFC0000
1FFFFFFE0000
1FFFFFFE0000
0FFFFFFC0000
0FFFFFF80000
0FFFF0000000
0FFFE0000000
0FFFE0000000
0FFFE0000000
07FFE0000000
07FFF0000000
07FFF07C0000
07FFFFFE0000
07FFFFFC0000
03FFFFFC0000
03FFFFFC0000
03FFFFFC0000
03FFFFFC0000
03FFFFFE0000
03FFFFFE0000
01FFFFEE0000
01FFF8000000
01FFF8000000
01FFFC000000
01FFFC001800
01FFFFFFFC00
00FFFFFFFC00
00FFFFFFFE00
01FFFFFFFE00
00FFFFFFFE00
00FFFFFFFF00
00FFFFFFFF00
007FFFFFFF00
00FFFFFFFF00
00FFFFFFFF00
00FFFFFFFF80
007FFFFFFF80
007FFFFFFF80
007FFFFFFF80
007FFFFFFF80
007FFFFFFFC0
007FFFFFFF80
007FFFFFF800
007FFFFFC000
003FFFFC0000
003FFFC00000
003FF8000000
001C00000000
ENDCHAR
STARTCHAR 00CC
ENCODING 204
SWIDTH 326 0
DWIDTH 29 0
BBX 27 77 1 0
BITMAP
07FF0000
07FF8000
07FFC000
03FFC000
01FFE000
00FFE000
00FFF000
007FF800
003FF800
001FF800
000FFC00
0007FC00
0007FE00
0003F000
00000000
00000000
00000000
007FFE00
00FFFFE0
01FFFFE0
01FFFFE0
01FFFFC0
00FFFFC0
00FFFFC0
01FFFFC0
01FFFFC0
01FFFF80
01FFFF80
01FFFF80
01FFFF80
03FFFF80
03FFFF80
03FFFF80
03FFFF80
03FFFF80
03FFFF80
03FFFF00
03FFFF00
07FFFF00
07FFFF00
07FFFF00
07FFFF00
07FFFF00
07FFFF00
07FFFF00
07FFFF00
07FFFF00
07FFFF00
07FFFF00
07FFFF00
07FFFF00
0FFFFF00
0FFFFF00
0FFFFF00
0FFFFF00
0FFFFF00
0FFFFF00
0FFFFF00
0FFFFF00
0FFFFF00
0FFFFF00
0FFFFF00
0FFFFF00
0FFFFF00
0FFFFF00
0FFFFF00
0FFFFE00
0FFFFE00
0FFFFC00
1FFFFC00
1FFFFE00
1FFFFE00
1FFFFE00
3FFFFC00
3FFFF000
FFF80000
7E000000
ENDCHAR
STARTCHAR 00CD
ENCODING 205
SWIDTH 326 0
DWIDTH 29 0
BBX 32 77 1 0
BITMAP
00000FFE
00001FFE
00001FFF
00003FFE
00003FFC
00007FF8
0000FFF0
0000FFE0
0001FFC0
0001FF80
0003FF00
0003FE00
0003FE00
0000FC00
00000000
00000000
00000000
007FFE00
00FFFFE0
01FFFFE0
01FFFFE0
01FFFFC0
00FFFFC0
00FFFFC0
01FFFFC0
01FFFFC0
01FFFF80
01FFFF80
01FFFF80
01FFFF80
03FFFF80
03FFFF80
03FFFF80
03FFFF80
03FFFF80
03FFFF80
03FFFF00
03FFFF00
07FFFF00
07FFFF00
07FFFF00
07FFFF00
07FFFF00
07FFFF00
07FFFF00
07FFFF00
07FFFF00
07FFFF00
07FFFF00
07FFFF00
07FFFF00
0FFFFF00
0FFFFF00
0FFFFF00
0FFFFF00
0FFFFF00
0FFFFF00
0FFFFF00
0FFFFF00
0FFFFF00
0FFFFF00
0FFFFF00
0FFFFF00
0FFFFF00
0FFFFF00
0FFFFF00
0FFFFE00
0FFFFE00
0FFFFC00
1FFFFC00
1FFFFE00
1FFFFE00
1FFFFE00
3FFFFC00
3FFFF000
FFF80000
7E000000
ENDCHAR
STARTCHAR 00CE
ENCODING 206
SWIDTH 326 0
DWIDTH 29 0
BBX 31 77 1 0
BITMAP
00007000
0001FC00
0007FE00
001FFF00
003FFF80
007FFFE0
00FFFFF0
01FFFFF8
03FFFFFC
07FFDFFE
0FFF0FFE
0FFE07FE
07FC03FE
01E000FC
00000000
00000000
00000000
007FFE00
00FFFFE0
01FFFFE0
01FFFFE0
01FFFFC0
00FFFFC0
00FFFFC0
01FFFFC0
01FFFFC0
01FFFF80
01FFFF80
01FFFF80
01FFFF80
03FFFF80
03FFFF80
03FFFF80
03FFFF80
03FFFF80
03FFFF80
03FFFF00
03FFFF00
07FFFF00
07FFFF00
07FFFF00
07FFFF00
07FFFF00
07FFFF00
07FFFF00
07FFFF00
07FFFF00
07FFFF00
07FFFF00
07FFFF00
07FFFF00
0FFFFF00
0FFFFF00
0FFFFF00
0FFFFF00
0FFFFF00
0FFFFF00
0FFFFF00
0FFFFF00
0FFFFF00
0FFFFF00
0FFFFF00
0FFFFF00
0FFFFF00
0FFFFF00
0FFFFF00
0FFFFE00
0FFFFE00
0FFFFC00
1FFFFC00
1FFFFE00
1FFFFE00
1FFFFE00
3FFFFC00
3FFFF000
FFF80000
7E000000
ENDCHAR
STARTCHAR 00CF
ENCODING 207
SWIDTH 326 0
DWIDTH 29 0
BBX 30 72 1 0
BITMAP
007001F0
01FC03F8
01FE07FC
03FE07FC
03FE07FC
03FE07FC
03FE07FC
03FE07F8
01FC01F0
00780000
00000000
00000000
007FFE00
00FFFFE0
01FFFFE0
01FFFFE0
01FFFFC0
00FFFFC0
00FFFFC0
01FFFFC0
01FFFFC0
01FFFF80
01FFFF80
01FFFF80
01FFFF80
03FFFF80
03FFFF80
03FFFF80
03FFFF80
03FFFF80
03FFFF80
03FFFF00
03FFFF00
07FFFF00
07FFFF00
07FFFF00
07FFFF00
07FFFF00
07FFFF00
07FFFF00
07FFFF00
07FFFF00
07FFFF00
07FFFF00
07FFFF00
07FFFF00
0FFFFF00
0FFFFF00
0FFFFF00
0FFFFF00
0FFFFF00
0FFFFF00
0FFFFF00
0FFFFF00
0FFFFF00
0FFFFF00
0FFFFF00
0FFFFF00
0FFFFF00
0FFFFF00
0FFFFF00
0FFFFE00
0FFFFE00
0FFFFC00
1FFFFC00
1FFFFE00
1FFFFE00
1FFFFE00
3FFFFC00
3FFFF000
FFF80000
7E000000
ENDCHAR
STARTCHAR 00D0
ENCODING 208
SWIDTH 483 0
DWIDTH 43 0
BBX 43 61 0 0
BITMAP
003F00000000
01FFFC000000
03FFFF800000
0FFFFFE00000
0FFFFFFC0000
0FFFFFFF0000
0FFFFFFF8000
0FFFFFFF8000
0FFFFFFFC000
0FFFFFFFE000
0FFFFFFFF000
0FFFFFFFF800
0FFFFFFFF800
0FFFFFFFFC00
0FFFFFFFFE00
0FFFFFFFFE00
0FFFFFFFFF00
0FFFFC3FFF00
07FFF80FFF80
07FFF807FF80
07FFFFC3FFC0
07FFFFC1FFC0
07FFFFC1FFC0
7FFFFFE1FFC0
FFFFFFE1FFC0
FFFFFFE1FFE0
FFFFFFE3FFE0
FFFFFFE3FFE0
FFFFFFE3FFE0
FFFFFFE7FFC0
7FFFFFE7FFC0
7FFFFFCFFF80
7FFFFC0FFF80
7FFFFC1FFF00
7FFFFC3FFF00
09FFFC7FFF00
01FFFFFFFE00
01FFFFFFFE00
01FFFFFFFC00
00FFFFFFFC00
00FFFFFFF800
00FFFFFFF800
00FFFFFFF000
00FFFFFFF000
007FFFFFE000
007FFFFFC000
007FFFFFC000
007FFFFF8000
007FFFFF0000
003FFFFF0000
003FFFFE0000
003FFFFC0000
003FFFF80000
001FFFF00000
001FFFC00000
001FFF000000
001FFC000000
000FF0000000
000FC0000000
000F00000000
000C00000000
ENDCHAR
STARTCHAR 00D1
ENCODING 209
SWIDTH 562 0
DWIDTH 50 0
BBX 48 75 1 1
BITMAP
00000F80FF80
00003FC0FF80
00007FE0FF80
0000FFF8FF80
0000FFFFFF80
0001FFFFFF80
0001FFFFFF80
0001FFFFFF80
0001FFFFFF00
0001FEFFFE00
0001FC7FFC00
0001FC1FF800
0001FC0FE000
000000000000
000000000000
000000000000
000000000000
003FC0000FF8
01FFFE003FFE
03FFFF01FFFE
03FFFF01FFFF
03FFFF01FFFF
03FFFF01FFFF
03FFFF01FFFF
07FFFF01FFFF
07FFFF01FFFF
07FFFF01FFFE
07FFFF01FFFE
07FFFF03FFFE
07FFFF03FFFE
0FFFFF83FFFE
0FFFFF83FFFE
0FFFFF83FFFE
0FFFFF83FFFE
0FFFFFC3FFFC
0FFFFFC3FFFC
0FFFFFC3FFFC
0FFFFFC3FFFC
1FFFFFE3FFFC
1FFFFFE3FFFC
1FFFFFE3FFFC
1FFFFFF3FFFC
1FFFFFF3FFFC
1FFFFFF3FFFC
1FFFFFF3FFF8
1FFFFFFBFFF8
1FFFFFFBFFF8
3FFFFFFBFFF8
3FFFFFFFFFF8
3FFFFFFFFFF8
3FFFFFFFFFF8
3FFFF7FFFFF8
3FFFF7FFFFF8
3FFFF7FFFFF8
3FFFF3FFFFF8
3FFFF3FFFFF8
3FFFE3FFFFF0
3FFFE1FFFFF0
3FFFE1FFFFF0
3FFFE1FFFFF0
3FFFE0FFFFF0
3FFFE0FFFFF0
3FFFE0FFFFF0
7FFFE07FFFF0
7FFFE07FFFF0
7FFFE07FFFF0
7FFFE03FFFF0
7FFFE03FFFF0
7FFFE03FFFF0
7FFFE03FFFF0
7FFFE03FFFF0
7FFFE01FFFF0
7FFFE03FFFE0
FFFF801FFFC0
FFE00000FC00
ENDCHAR
STARTCHAR 00D2
ENCODING 210
SWIDTH 528 0
DWIDTH 47 0
BBX 45 78 1 -1
BITMAP
7FF000000000
7FF800000000
7FFC00000000
3FFC00000000
1FFE00000000
0FFE00000000
07FF00000000
03FF80000000
03FF80000000
01FFC0000000
00FFC0000000
007FC0000000
003FE0000000
003F00000000
000000000000
0003F0000000
0007FC000000
000FFF000000
000FFFC00000
001FFFF00000
003FFFF80000
007FFFFE0000
007FFFFF0000
00FFFFFFC000
00FFFFFFE000
01FFFFFFF000
01FFFFFFF000
03FFFFFFF800
03FFFFFFFC00
07FFFFFFFC00
07FFFFFFFE00
07FFFFFFFF00
0FFFFFFFFF00
0FFFFFFFFF80
1FFFFFFFFF80
1FFFFFFFFFC0
1FFFFFFFFFC0
3FFFFFFFFFE0
3FFFF07FFFE0
3FFFE01FFFE0
7FFFC00FFFF0
7FFFC00FFFF0
7FFFC00FFFF0
7FFF800FFFF8
7FFF800FFFF8
FFFF800FFFF8
FFFF800FFFF8
FFFF800FFFF8
7FFF800FFFF8
7FFF800FFFF8
7FFFC01FFFF8
7FFFE01FFFF8
7FFFF03FFFF8
7FFFF87FFFF8
7FFFFFFFFFF8
3FFFFFFFFFF8
3FFFFFFFFFF8
3FFFFFFFFFF0
3FFFFFFFFFF0
1FFFFFFFFFF0
1FFFFFFFFFF0
1FFFFFFFFFF0
0FFFFFFFFFE0
0FFFFFFFFFE0
0FFFFFFFFFE0
07FFFFFFFFC0
07FFFFFFFFC0
03FFFFFFFFC0
03FFFFFFFF80
01FFFFFFFF80
00FFFFFFFF00
007FFFFFFF00
003FFFFFFE00
000FFFFFF800
0007FFFFE000
0000FFFFC000
00003FFF0000
000003E00000
ENDCHAR
STARTCHAR 00D3
ENCODING 211
SWIDTH 528 0
DWIDTH 47 0
BBX 45 78 1 -1
BITMAP
00000FFE0000
00001FFE0000
00003FFE0000
00003FFC0000
00007FF80000
00007FF00000
0000FFE00000
0001FFE00000
0001FFC00000
0003FF800000
0003FF000000
0003FE000000
0007FC000000
0000FC000000
000000000000
0003F0000000
0007FC000000
000FFF000000
000FFFC00000
001FFFF00000
003FFFF80000
007FFFFE0000
007FFFFF0000
00FFFFFFC000
00FFFFFFE000
01FFFFFFF000
01FFFFFFF000
03FFFFFFF800
03FFFFFFFC00
07FFFFFFFC00
07FFFFFFFE00
07FFFFFFFF00
0FFFFFFFFF00
0FFFFFFFFF80
1FFFFFFFFF80
1FFFFFFFFFC0
1FFFFFFFFFC0
3FFFFFFFFFE0
3FFFF07FFFE0
3FFFE01FFFE0
7FFFC00FFFF0
7FFFC00FFFF0
7FFFC00FFFF0
7FFF800FFFF8
7FFF800FFFF8
FFFF800FFFF8
FFFF800FFFF8
FFFF800FFFF8
7FFF800FFFF8
7FFF800FFFF8
7FFFC01FFFF8
7FFFE01FFFF8
7FFFF03FFFF8
7FFFF87FFFF8
7FFFFFFFFFF8
3FFFFFFFFFF8
3FFFFFFFFFF8
3FFFFFFFFFF0
3FFFFFFFFFF0
1FFFFFFFFFF0
1FFFFFFFFFF0
1FFFFFFFFFF0
0FFFFFFFFFE0
0FFFFFFFFFE0
0FFFFFFFFFE0
07FFFFFFFFC0
07FFFFFFFFC0
03FFFFFFFFC0
03FFFFFFFF80
01FFFFFFFF80
00FFFFFFFF00
007FFFFFFF00
003FFFFFFE00
000FFFFFF800
0007FFFFE000
0000FFFFC000
00003FFF0000
000003E00000
ENDCHAR
STARTCHAR 00D4
ENCODING 212
SWIDTH 528 0
DWIDTH 47 0
BBX 45 78 1 -1
BITMAP
0007C0000000
000FF0000000
001FFC000000
007FFF000000
00FFFF800000
01FFFFC00000
03FFFFE00000
07FFFFF00000
0FFFFFF80000
1FFE7FFC0000
1FFC3FFC0000
1FF00FFC0000
0FE007F80000
00C000000000
000000000000
0003F0000000
0007FC000000
000FFF000000
000FFFC00000
001FFFF00000
003FFFF80000
007FFFFE0000
007FFFFF0000
00FFFFFFC000
00FFFFFFE000
01FFFFFFF000
01FFFFFFF000
03FFFFFFF800
03FFFFFFFC00
07FFFFFFFC00
07FFFFFFFE00
07FFFFFFFF00
0FFFFFFFFF00
0FFFFFFFFF80
1FFFFFFFFF80
1FFFFFFFFFC0
1FFFFFFFFFC0
3FFFFFFFFFE0
3FFFF07FFFE0
3FFFE01FFFE0
7FFFC00FFFF0
7FFFC00FFFF0
7FFFC00FFFF0
7FFF800FFFF8
7FFF800FFFF8
FFFF800FFFF8
FFFF800FFFF8
FFFF800FFFF8
7FFF800FFFF8
7FFF800FFFF8
7FFFC01FFFF8
7FFFE01FFFF8
7FFFF03FFFF8
7FFFF87FFFF8
7FFFFFFFFFF8
3FFFFFFFFFF8
3FFFFFFFFFF8
3FFFFFFFFFF0
3FFFFFFFFFF0
1FFFFFFFFFF0
1FFFFFFFFFF0
1FFFFFFFFFF0
0FFFFFFFFFE0
0FFFFFFFFFE0
0FFFFFFFFFE0
07FFFFFFFFC0
07FFFFFFFFC0
03FFFFFFFFC0
03FFFFFFFF80
01FFFFFFFF80
00FFFFFFFF00
007FFFFFFF00
003FFFFFFE00
000FFFFFF800
0007FFFFE000
0000FFFFC000
00003FFF0000
000003E00000
ENDCHAR
STARTCHAR 00D5
ENCODING 213
SWIDTH 528 0
DWIDTH 47 0
BBX 45 78 1 -1
BITMAP
00001FF00000
00701FF00000
03FC1FF00000
07FE1FF00000
0FFFFFF00000
0FFFFFF00000
1FFFFFF00000
1FFFFFF00000
1FFFFFE00000
1FFFFFC00000
1FFFFFC00000
1FE3FF800000
1FE0FE000000
1FC000000000
1E0000000000
0003F0000000
0007FC000000
000FFF000000
000FFFC00000
001FFFF00000
003FFFF80000
007FFFFE0000
007FFFFF0000
00FFFFFFC000
00FFFFFFE000
01FFFFFFF000
01FFFFFFF000
03FFFFFFF800
03FFFFFFFC00
07FFFFFFFC00
07FFFFFFFE00
07FFFFFFFF00
0FFFFFFFFF00
0FFFFFFFFF80
1FFFFFFFFF80
1FFFFFFFFFC0
1FFFFFFFFFC0
3FFFFFFFFFE0
3FFFF07FFFE0
3FFFE01FFFE0
7FFFC00FFFF0
7FFFC00FFFF0
7FFFC00FFFF0
7FFF800FFFF8
7FFF800FFFF8
FFFF800FFFF8
FFFF800FFFF8
FFFF800FFFF8
7FFF800FFFF8
7FFF800FFFF8
7FFFC01FFFF8
7FFFE01FFFF8
7FFFF03FFFF8
7FFFF87FFFF8
7FFFFFFFFFF8
3FFFFFFFFFF8
3FFFFFFFFFF8
3FFFFFFFFFF0
3FFFFFFFFFF0
1FFFFFFFFFF0
1FFFFFFFFFF0
1FFFFFFFFFF0
0FFFFFFFFFE0
0FFFFFFFFFE0
0FFFFFFFFFE0
07FFFFFFFFC0
07FFFFFFFFC0
03FFFFFFFFC0
03FFFFFFFF80
01FFFFFFFF80
00FFFFFFFF00
007FFFFFFF00
003FFFFFFE00
000FFFFFF800
0007FFFFE000
0000FFFFC000
00003FFF0000
000003E00000
ENDCHAR
STARTCHAR 00D6
ENCODING 214
SWIDTH 528 0
DWIDTH 47 0
BBX 45 73 1 -1
BITMAP
01C007C00000
03F00FE00000
07F81FF00000
0FF81FF00000
0FF81FF00000
0FF81FF00000
0FF81FF00000
0FF81FE00000
03F007C00000
01E000000000
0003F0000000
0007FC000000
000FFF000000
000FFFC00000
001FFFF00000
003FFFF80000
007FFFFE0000
007FFFFF0000
00FFFFFFC000
00FFFFFFE000
01FFFFFFF000
01FFFFFFF000
03FFFFFFF800
03FFFFFFFC00
07FFFFFFFC00
07FFFFFFFE00
07FFFFFFFF00
0FFFFFFFFF00
0FFFFFFFFF80
1FFFFFFFFF80
1FFFFFFFFFC0
1FFFFFFFFFC0
3FFFFFFFFFE0
3FFFF07FFFE0
3FFFE01FFFE0
7FFFC00FFFF0
7FFFC00FFFF0
7FFFC00FFFF0
7FFF800FFFF8
7FFF800FFFF8
FFFF800FFFF8
FFFF800FFFF8
FFFF800FFFF8
7FFF800FFFF8
7FFF800FFFF8
7FFFC01FFFF8
7FFFE01FFFF8
7FFFF03FFFF8
7FFFF87FFFF8
7FFFFFFFFFF8
3FFFFFFFFFF8
3FFFFFFFFFF8
3FFFFFFFFFF0
3FFFFFFFFFF0
1FFFFFFFFFF0
1FFFFFFFFFF0
1FFFFFFFFFF0
0FFFFFFFFFE0
0FFFFFFFFFE0
0FFFFFFFFFE0
07FFFFFFFFC0
07FFFFFFFFC0
03FFFFFFFFC0
03FFFFFFFF80
01FFFFFFFF80
00FFFFFFFF00
007FFFFFFF00
003FFFFFFE00
000FFFFFF800
0007FFFFE000
0000FFFFC000
00003FFF0000
000003E00000
ENDCHAR
STARTCHAR 00D7
ENCODING 215
SWIDTH 427 0
DWIDTH 38 0
BBX 36 35 1 13
BITMAP
0180001800
01E0003C00
03F800FE00
07F801FF00
0FFC01FF80
1FFE03FFC0
3FFF07FFE0
7FFF8FFFF0
FFFFDFFFF0
7FFFFFFFE0
3FFFFFFFC0
1FFFFFFF80
0FFFFFFF00
07FFFFFE00
03FFFFFC00
01FFFFFC00
00FFFFF800
007FFFE000
007FFFF000
00FFFFF800
01FFFFF800
03FFFFFC00
03FFFFFE00
07FFFFFF00
1FFFFFFF80
3FFFFFFFE0
7FFFFFFFF0
FFFF9FFFF0
7FFF8FFFE0
3FFF07FFC0
1FFE03FF80
0FFC01FF00
07F800FE00
03F0007C00
01C0003800
ENDCHAR
STARTCHAR 00D8
ENCODING 216
SWIDTH 528 0
DWIDTH 47 0
BBX 48 64 0 -1
BITMAP
000000001E06
0001F8003FFF
0003FE007FFF
0007FF807FFE
0007FFE0FFFE
000FFFF8FFFC
001FFFFDFFFC
003FFFFFFFF8
003FFFFFFFF0
007FFFFFFFF0
007FFFFFFFE0
00FFFFFFFFE0
00FFFFFFFFC0
01FFFFFFFF80
01FFFFFFFF80
03FFFFFFFF00
03FFFFFFFF00
03FFFFFFFF80
07FFFFFFFF80
07FFFFFFFFC0
0FFFFFFFFFC0
0FFFFFFFFFE0
0FFFFFFFFFE0
1FFFFFFFFFF0
1FFFE7FFFFF0
1FFF8FFFFFF0
3FFF0FFFFFF8
3FFF1FFFFFF8
3FFE1FFFFFF8
3FFE3FFFFFFC
3FFC3FFDFFFC
7FFC7FFDFFFC
7FFC7FF9FFFC
7FFCFFF1FFFC
3FFDFFF1FFFC
3FFDFFE1FFFC
3FFFFFC1FFFC
3FFFFFC3FFFC
3FFFFF83FFFC
3FFFFF87FFFC
3FFFFF0FFFFC
1FFFFE3FFFFC
1FFFFFFFFFFC
1FFFFFFFFFF8
1FFFFFFFFFF8
0FFFFFFFFFF8
0FFFFFFFFFF8
0FFFFFFFFFF8
07FFFFFFFFF0
07FFFFFFFFF0
07FFFFFFFFF0
03FFFFFFFFE0
07FFFFFFFFE0
0FFFFFFFFFE0
0FFFFFFFFFC0
1FFFFFFFFFC0
1FFFFFFFFF80
3FFFFFFFFF80
7FFFFFFFFF00
7FFFFFFFFC00
FFF1FFFFF000
FFE07FFFE000
C3C01FFF8000
018001F00000
ENDCHAR
STARTCHAR 00D9
ENCODING 217
SWIDTH 551 0
DWIDTH 49 0
BBX 47 75 1 2
BITMAP
000FFE000000
000FFE000000
001FFF000000
000FFF800000
0007FF800000
0003FFC00000
0001FFC00000
0000FFE00000
00007FF00000
00003FF00000
00001FF80000
00001FF80000
00000FF80000
000007E00000
000000000000
000000000000
01E000000000
03FF8000FFF8
03FFE000FFFC
03FFE000FFFC
07FFE001FFFC
07FFE000FFFC
07FFC000FFFC
07FFC000FFFC
0FFFC0007FFC
0FFFC0007FFC
0FFFC0007FFC
0FFFC0007FFC
1FFFC000FFFC
1FFFC000FFFC
1FFFC000FFFC
1FFF8000FFFC
1FFF8000FFFC
3FFF8000FFFC
3FFF8000FFFC
3FFF8000FFFC
3FFF8001FFFC
3FFF8001FFFC
7FFF8001FFFC
7FFF8001FFFC
7FFF8001FFFC
7FFF8001FFFC
7FFF8001FFFC
7FFF8003FFFC
7FFFC003FFFC
FFFFC003FFFE
FFFFC003FFFE
7FFFE003FFFC
7FFFF007FFFC
7FFFF807FFFC
7FFFFE07FFF8
7FFFFFFFFFF8
7FFFFFFFFFF8
7FFFFFFFFFF8
7FFFFFFFFFF0
7FFFFFFFFFF0
3FFFFFFFFFF0
3FFFFFFFFFE0
3FFFFFFFFFE0
3FFFFFFFFFE0
1FFFFFFFFFC0
1FFFFFFFFFC0
1FFFFFFFFF80
0FFFFFFFFF80
0FFFFFFFFF00
07FFFFFFFE00
03FFFFFFFC00
03FFFFFFFC00
01FFFFFFF800
01FFFFFFF000
00FFFFFFE000
007FFFFFC000
001FFFFF8000
0007FFFF0000
0000FFFE0000
ENDCHAR
STARTCHAR 00DA
ENCODING 218
SWIDTH 551 0
DWIDTH 49 0
BBX 47 75 1 2
BITMAP
00000007FF00
00000007FF00
0000000FFF80
0000001FFF00
0000001FFE00
0000003FFC00
0000007FF800
0000007FF000
000000FFE000
000000FFC000
000001FF8000
000001FF8000
000001FF0000
0000007E0000
000000000000
000000000000
01E000000000
03FF8000FFF8
03FFE000FFFC
03FFE000FFFC
07FFE001FFFC
07FFE000FFFC
07FFC000FFFC
07FFC000FFFC
0FFFC0007FFC
0FFFC0007FFC
0FFFC0007FFC
0FFFC0007FFC
1FFFC000FFFC
1FFFC000FFFC
1FFFC000FFFC
1FFF8000FFFC
1FFF8000FFFC
3FFF8000FFFC
3FFF8000FFFC
3FFF8000FFFC
3FFF8001FFFC
3FFF8001FFFC
7FFF8001FFFC
7FFF8001FFFC
7FFF8001FFFC
7FFF8001FFFC
7FFF8001FFFC
7FFF8003FFFC
7FFFC003FFFC
FFFFC003FFFE
FFFFC003FFFE
7FFFE003FFFC
7FFFF007FFFC
7FFFF807FFFC
7FFFFE07FFF8
7FFFFFFFFFF8
7FFFFFFFFFF8
7FFFFFFFFFF8
7FFFFFFFFFF0
7FFFFFFFFFF0
3FFFFFFFFFF0
3FFFFFFFFFE0
3FFFFFFFFFE0
3FFFFFFFFFE0
1FFFFFFFFFC0
1FFFFFFFFFC0
1FFFFFFFFF80
0FFFFFFFFF80
0FFFFFFFFF00
07FFFFFFFE00
03FFFFFFFC00
03FFFFFFFC00
01FFFFFFF800
01FFFFFFF000
00FFFFFFE000
007FFFFFC000
001FFFFF8000
0007FFFF0000
0000FFFE0000
ENDCHAR
STARTCHAR 00DB
ENCODING 219
SWIDTH 551 0
DWIDTH 49 0
BBX 47 75 1 2
BITMAP
000000380000
000001FC0000
000007FF0000
00000FFF8000
00001FFFC000
00007FFFE000
0000FFFFF000
0001FFFFFC00
0003FFFFFE00
0003FFEFFE00
0007FF87FF00
0007FF03FF00
0003FC01FE00
0001F000FC00
000000000000
000000000000
01E000000000
03FF8000FFF8
03FFE000FFFC
03FFE000FFFC
07FFE001FFFC
07FFE000FFFC
07FFC000FFFC
07FFC000FFFC
0FFFC0007FFC
0FFFC0007FFC
0FFFC0007FFC
0FFFC0007FFC
1FFFC000FFFC
1FFFC000FFFC
1FFFC000FFFC
1FFF8000FFFC
1FFF8000FFFC
3FFF8000FFFC
3FFF8000FFFC
3FFF8000FFFC
3FFF8001FFFC
3FFF8001FFFC
7FFF8001FFFC
7FFF8001FFFC
7FFF8001FFFC
7FFF8001FFFC
7FFF8001FFFC
7FFF8003FFFC
7FFFC003FFFC
FFFFC003FFFE
FFFFC003FFFE
7FFFE003FFFC
7FFFF007FFFC
7FFFF807FFFC
7FFFFE07FFF8
7FFFFFFFFFF8
7FFFFFFFFFF8
7FFFFFFFFFF8
7FFFFFFFFFF0
7FFFFFFFFFF0
3FFFFFFFFFF0
3FFFFFFFFFE0
3FFFFFFFFFE0
3FFFFFFFFFE0
1FFFFFFFFFC0
1FFFFFFFFFC0
1FFFFFFFFF80
0FFFFFFFFF80
0FFFFFFFFF00
07FFFFFFFE00
03FFFFFFFC00
03FFFFFFFC00
01FFFFFFF800
01FFFFFFF000
00FFFFFFE000
007FFFFFC000
001FFFFF8000
0007FFFF0000
0000FFFE0000
ENDCHAR
STARTCHAR 00DC
ENCODING 220
SWIDTH 551 0
DWIDTH 49 0
BBX 47 70 1 2
BITMAP
00007C007000
0001FE03F800
0001FF03FC00
0003FF03FE00
0003FF07FE00
0001FF07FE00
0001FF03FE00
0000FE03FC00
00007C01F800
00000000E000
000000000000
01E000000000
03FF8000FFF8
03FFE000FFFC
03FFE000FFFC
07FFE001FFFC
07FFE000FFFC
07FFC000FFFC
07FFC000FFFC
0FFFC0007FFC
0FFFC0007FFC
0FFFC0007FFC
0FFFC0007FFC
1FFFC000FFFC
1FFFC000FFFC
1FFFC000FFFC
1FFF8000FFFC
1FFF8000FFFC
3FFF8000FFFC
3FFF8000FFFC
3FFF8000FFFC
3FFF8001FFFC
3FFF8001FFFC
7FFF8001FFFC
7FFF8001FFFC
7FFF8001FFFC
7FFF8001FFFC
7FFF8001FFFC
7FFF8003FFFC
7FFFC003FFFC
FFFFC003FFFE
FFFFC003FFFE
7FFFE003FFFC
7FFFF007FFFC
7FFFF807FFFC
7FFFFE07FFF8
7FFFFFFFFFF8
7FFFFFFFFFF8
7FFFFFFFFFF8
7FFFFFFFFFF0
7FFFFFFFFFF0
3FFFFFFFFFF0
3FFFFFFFFFE0
3FFFFFFFFFE0
3FFFFFFFFFE0
1FFFFFFFFFC0
1FFFFFFFFFC0
1FFFFFFFFF80
0FFFFFFFFF80
0FFFFFFFFF00
07FFFFFFFE00
03FFFFFFFC00
03FFFFFFFC00
01FFFFFFF800
01FFFFFFF000
00FFFFFFE000
007FFFFFC000
001FFFFF8000
0007FFFF0000
0000FFFE0000
ENDCHAR
STARTCHAR 00DD
ENCODING 221
SWIDTH 607 0
DWIDTH 54 0
BBX 52 77 1 0
BITMAP
00000003FF8000
00000007FF8000
00000007FF8000
0000000FFF0000
0000001FFE0000
0000001FFE0000
0000003FFC0000
0000003FF80000
0000007FF00000
0000007FE00000
000000FFC00000
000000FF800000
000001FF800000
0000003F000000
00000000000000
00000000000000
000000000071F0
0000000003FFF0
000C000007FFF0
003E00000FFFE0
07FE000007FFC0
3FFF00000FFFC0
7FFF80001FFFC0
FFFF80001FFFC0
7FFFC0003FFF80
7FFFC0003FFF00
3FFFE0003FFF00
3FFFE0007FFE00
3FFFF0007FFE00
1FFFF000FFFE00
1FFFF800FFFC00
0FFFF801FFFC00
07FFFC01FFF800
07FFFC03FFF800
03FFFE07FFF000
03FFFE07FFF000
01FFFE0FFFE000
01FFFF0FFFE000
00FFFF1FFFC000
00FFFF9FFFC000
007FFFBFFF8000
007FFFBFFF8000
003FFFFFFF0000
003FFFFFFF0000
001FFFFFFE0000
001FFFFFFE0000
000FFFFFFC0000
000FFFFFFC0000
0007FFFFFC0000
0007FFFFF80000
0003FFFFF80000
0003FFFFF00000
0001FFFFF00000
0001FFFFE00000
0000FFFFE00000
0000FFFFC00000
00007FFF800000
00003FFF800000
00003FFF800000
00001FFF800000
00001FFF800000
00001FFF800000
00001FFF800000
00001FFF800000
00001FFF800000
00001FFFC00000
00001FFFC00000
00001FFFC00000
00001FFFC00000
00001FFFC00000
00001FFFC00000
00000FFFC00000
00000FFFE00000
00000FFFE00000
00000FFFC00000
00000FFF800000
00000FF0000000
ENDCHAR
STARTCHAR 00DE
ENCODING 222
SWIDTH 506 0
DWIDTH 45 0
BBX 43 61 1 0
BITMAP
7FFF00000000
7FFF00000000
7FFF00000000
7FFF00000000
7FFF00000000
7FFF00000000
7FFF80000000
7FFF80000000
FFFFF8000000
7FFFFF800000
7FFFFFFC0000
7FFFFFFF0000
7FFFFFFF8000
7FFFFFFFC000
7FFFFFFFE000
7FFFFFFFF000
7FFFFFFFF800
7FFFFFFFF800
7FFFFFFFFC00
7FFFFFFFFC00
3FFFFFFFFE00
3FFF80FFFE00
3FFF803FFE00
3FFF801FFF00
3FFF800FFF00
3FFF800FFF00
3FFF8007FF80
3FFF8007FF80
3FFF8007FF80
3FFFC007FF80
3FFFC00FFF80
3FFFC00FFF80
3FFFC00FFF80
3FFFC01FFFC0
3FFFC01FFFC0
1FFFC01FFFC0
1FFFE03FFF80
1FFFE07FFFC0
1FFFE1FFFFC0
1FFFFFFFFFE0
1FFFFFFFFFC0
1FFFFFFFFF80
1FFFFFFFFF80
1FFFFFFFFF00
1FFFFFFFFE00
1FFFFFFFFC00
1FFFFFFFF000
1FFFFFFFE000
1FFFFFFF8000
1FFFF8000000
1FFFF0000000
1FFFF0000000
1FFFF8000000
1FFFF8000000
1FFFF8000000
1FFFF0000000
1FFFF0000000
1FFFF0000000
1FFFF0000000
0FFFF0000000
07FFE0000000
ENDCHAR
STARTCHAR 00DF
ENCODING 223
SWIDTH 562 0
DWIDTH 50 0
BBX 48 68 1 -6
BITMAP
000FF8000000
003FFF800000
00FFFFF00000
01FFFFFC0000
03FFFFFE0000
03FFFFFF0000
0FFFFFFF0000
1FFFFFFF8000
3FFFFFFF8000
3FFFFFFF8000
7FFFFFFFC000
7FFFFFFFE000
7FFFFFFFE000
7FFE07FFE000
7FFC01FFF000
FFFC01FFF000
FFFC00FFF000
FFFC00FFF000
FFFC00FFF000
FFFC00FFE000
7FFC00FFE000
7FFC00FFE000
7FFC01FFE000
7FFC01FFE000
7FFC03FFC000
7FFC07FF8000
7FFC0FFF0000
7FFC0FFE0000
7FFC0FFC0000
7FFC0FFFE000
7FFE0FFFFC00
7FFE0FFFFF00
7FFE0FFFFFC0
3FFE0FFFFFE0
3FFE07FFFFF0
3FFE07FFFFF8
3FFE07FFFFFC
3FFE03FFFFFC
3FFE003FFFFC
3FFE0007FFFE
3FFE0003FFFE
3FFE0000FFFE
3FFF0000FFFF
3FFF00007FFF
3FFF00007FFF
1FFF00007FFF
1FFF00007FFF
1FFF0000FFFF
1FFF0000FFFE
1FFF0003FFFE
1FFF0007FFFE
1FFF003FFFFE
1FFF00FFFFFE
1FFF01FFFFFC
1FFF01FFFFFC
1FFF01FFFFF8
1FFF01FFFFF0
0FFF01FFFFC0
0FFF81FFFFC0
0FFF81FFFF80
0FFF80FFFE00
0FFF80FFF000
0FFF80F00000
0FFF80000000
0FFF80000000
07FF00000000
03FE00000000
003800000000
ENDCHAR
STARTCHAR 00E0
ENCODING 224
SWIDTH 630 0
DWIDTH 56 0
BBX 54 79 1 -2
BITMAP
0003FFC0000000
0003FFC0000000
0003FFE0000000
0001FFE0000000
0000FFF0000000
00007FF0000000
00003FF8000000
00001FFC000000
00001FFC000000
00000FFE000000
000007FE000000
000003FE000000
000001FF000000
000001F8000000
00000000000000
00000000000000
00000000000000
0000000F800000
0000007FC00000
000000FFC00000
000000FFE00000
000000FFE00000
000001FFE00000
000001FFE00000
000001FFF00000
000003FFF00000
000003FFF00000
000007FFF00000
000007FFF80000
000007FFF80000
00000FFFF80000
00000FFFF80000
00000FFFFC0000
00001FFFFC0000
00001FFFFC0000
00003FFFFC0000
00003FFFFE0000
00003FFFFE0000
00007FFFFE0000
00007FFFFF0000
00007FFFFF0000
0000FFFFFF0000
0000FFFFFF8000
0001FFFFFF8000
0001FFFFFF8000
0003FFFFFF8000
0003FFFFFFC000
0007FFFFFFC000
0007FFFFFFC000
0007FE3FFFE000
000FFC3FFFE000
000FF81FFFE000
001FF81FFFF000
001FF00FFFF000
003FE00FFFF000
003FE00FFFF800
007FC00FFFF800
007FC07FFFF800
007FFFFFFFFC00
00FFFFFFFFFC00
00FFFFFFFFFE00
01FFFFFFFFFE00
01FFFFFFFFFE00
03FFFFFFFFFF00
03FFFFFFFFFF00
07FFFE0FFFFF80
07FFF007FFFF80
07FFE007FFFF80
0FFFC007FFFFC0
0FFFC007FFFFC0
1FFFC003FFFFE0
1FFFC003FFFFE0
3FFF8003FFFFF0
3FFF8001FFFFF0
3FFF8001FFFFF8
7FFFC001FFFFF8
7FFFC000FFFFFC
FFFF0000F80078
7F000000000000
ENDCHAR
STARTCHAR 00E1
ENCODING 225
SWIDTH 630 0
DWIDTH 56 0
BBX 54 79 1 -2
BITMAP
00000000FFE000
00000001FFE000
00000001FFE000
00000003FFC000
00000007FF8000
00000007FF8000
0000000FFF0000
0000001FFE0000
0000001FFC0000
0000001FF80000
0000003FF00000
0000003FE00000
0000007FE00000
0000000FC00000
00000000000000
00000000000000
00000000000000
0000000F800000
0000007FC00000
000000FFC00000
000000FFE00000
000000FFE00000
000001FFE00000
000001FFE00000
000001FFF00000
000003FFF00000
000003FFF00000
000007FFF00000
000007FFF80000
000007FFF80000
00000FFFF80000
00000FFFF80000
00000FFFFC0000
00001FFFFC0000
00001FFFFC0000
00003FFFFC0000
00003FFFFE0000
00003FFFFE0000
00007FFFFE0000
00007FFFFF0000
00007FFFFF0000
0000FFFFFF0000
0000FFFFFF8000
0001FFFFFF8000
0001FFFFFF8000
0003FFFFFF8000
0003FFFFFFC000
0007FFFFFFC000
0007FFFFFFC000
0007FE3FFFE000
000FFC3FFFE000
000FF81FFFE000
001FF81FFFF000
001FF00FFFF000
003FE00FFFF000
003FE00FFFF800
007FC00FFFF800
007FC07FFFF800
007FFFFFFFFC00
00FFFFFFFFFC00
00FFFFFFFFFE00
01FFFFFFFFFE00
01FFFFFFFFFE00
03FFFFFFFFFF00
03FFFFFFFFFF00
07FFFE0FFFFF80
07FFF007FFFF80
07FFE007FFFF80
0FFFC007FFFFC0
0FFFC007FFFFC0
1FFFC003FFFFE0
1FFFC003FFFFE0
3FFF8003FFFFF0
3FFF8001FFFFF0
3FFF8001FFFFF8
7FFFC001FFFFF8
7FFFC000FFFFFC
FFFF0000F80078
7F000000000000
ENDCHAR
STARTCHAR 00E2
ENCODING 226
SWIDTH 630 0
DWIDTH 56 0
BBX 54 79 1 -2
BITMAP
0000000E000000
0000007F000000
000000FFC00000
000003FFE00000
000007FFF00000
00000FFFFC0000
00001FFFFE0000
00003FFFFF0000
00007FFFFF8000
0000FFFBFFC000
0001FFE1FFC000
0001FFC0FFC000
0000FF807FC000
00007C001F0000
00000000000000
00000000000000
00000000000000
0000000F800000
0000007FC00000
000000FFC00000
000000FFE00000
000000FFE00000
000001FFE00000
000001FFE00000
000001FFF00000
000003FFF00000
000003FFF00000
000007FFF00000
000007FFF80000
000007FFF80000
00000FFFF80000
00000FFFF80000
00000FFFFC0000
00001FFFFC0000
00001FFFFC0000
00003FFFFC0000
00003FFFFE0000
00003FFFFE0000
00007FFFFE0000
00007FFFFF0000
00007FFFFF0000
0000FFFFFF0000
0000FFFFFF8000
0001FFFFFF8000
0001FFFFFF8000
0003FFFFFF8000
0003FFFFFFC000
0007FFFFFFC000
0007FFFFFFC000
0007FE3FFFE000
000FFC3FFFE000
000FF81FFFE000
001FF81FFFF000
001FF00FFFF000
003FE00FFFF000
003FE00FFFF800
007FC00FFFF800
007FC07FFFF800
007FFFFFFFFC00
00FFFFFFFFFC00
00FFFFFFFFFE00
01FFFFFFFFFE00
01FFFFFFFFFE00
03FFFFFFFFFF00
03FFFFFFFFFF00
07FFFE0FFFFF80
07FFF007FFFF80
07FFE007FFFF80
0FFFC007FFFFC0
0FFFC007FFFFC0
1FFFC003FFFFE0
1FFFC003FFFFE0
3FFF8003FFFFF0
3FFF8001FFFFF0
3FFF8001FFFFF8
7FFFC001FFFFF8
7FFFC000FFFFFC
FFFF0000F80078
7F000000000000
ENDCHAR
STARTCHAR 00E3
ENCODING 227
SWIDTH 630 0
DWIDTH 56 0
BBX 54 78 1 -2
BITMAP
000007C07FC000
00000FE07FC000
00003FF87FC000
00003FFC7FC000
00007FFFFFC000
00007FFFFFC000
0000FFFFFFC000
0000FFFFFFC000
0000FFFFFF8000
0000FFFFFF0000
0000FF3FFE0000
0000FE0FFC0000
0000FE03F80000
00000000000000
00000000000000
00000000000000
0000000F800000
0000007FC00000
000000FFC00000
000000FFE00000
000000FFE00000
000001FFE00000
000001FFE00000
000001FFF00000
000003FFF00000
000003FFF00000
000007FFF00000
000007FFF80000
000007FFF80000
00000FFFF80000
00000FFFF80000
00000FFFFC0000
00001FFFFC0000
00001FFFFC0000
00003FFFFC0000
00003FFFFE0000
00003FFFFE0000
00007FFFFE0000
00007FFFFF0000
00007FFFFF0000
0000FFFFFF0000
0000FFFFFF8000
0001FFFFFF8000
0001FFFFFF8000
0003FFFFFF8000
0003FFFFFFC000
0007FFFFFFC000
0007FFFFFFC000
0007FE3FFFE000
000FFC3FFFE000
000FF81FFFE000
001FF81FFFF000
001FF00FFFF000
003FE00FFFF000
003FE00FFFF800
007FC00FFFF800
007FC07FFFF800
007FFFFFFFFC00
00FFFFFFFFFC00
00FFFFFFFFFE00
01FFFFFFFFFE00
01FFFFFFFFFE00
03FFFFFFFFFF00
03FFFFFFFFFF00
07FFFE0FFFFF80
07FFF007FFFF80
07FFE007FFFF80
0FFFC007FFFFC0
0FFFC007FFFFC0
1FFFC003FFFFE0
1FFFC003FFFFE0
3FFF8003FFFFF0
3FFF8001FFFFF0
3FFF8001FFFFF8
7FFFC001FFFFF8
7FFFC000FFFFFC
FFFF0000F80078
7F000000000000
ENDCHAR
STARTCHAR 00E4
ENCODING 228
SWIDTH 630 0
DWIDTH 56 0
BBX 54 74 1 -2
BITMAP
00000E003E0000
00001FC07F8000
00003FC0FF8000
00007FC0FFC000
00007FE0FFC000
00007FE0FF8000
00007FC0FF8000
00003FC0FF0000
00001F803E0000
00000700000000
00000000000000
00000000000000
0000000F800000
0000007FC00000
000000FFC00000
000000FFE00000
000000FFE00000
000001FFE00000
000001FFE00000
000001FFF00000
000003FFF00000
000003FFF00000
000007FFF00000
000007FFF80000
000007FFF80000
00000FFFF80000
00000FFFF80000
00000FFFFC0000
00001FFFFC0000
00001FFFFC0000
00003FFFFC0000
00003FFFFE0000
00003FFFFE0000
00007FFFFE0000
00007FFFFF0000
00007FFFFF0000
0000FFFFFF0000
0000FFFFFF8000
0001FFFFFF8000
0001FFFFFF8000
0003FFFFFF8000
0003FFFFFFC000
0007FFFFFFC000
0007FFFFFFC000
0007FE3FFFE000
000FFC3FFFE000
000FF81FFFE000
001FF81FFFF000
001FF00FFFF000
003FE00FFFF000
003FE00FFFF800
007FC00FFFF800
007FC07FFFF800
007FFFFFFFFC00
00FFFFFFFFFC00
00FFFFFFFFFE00
01FFFFFFFFFE00
01FFFFFFFFFE00
03FFFFFFFFFF00
03FFFFFFFFFF00
07FFFE0FFFFF80
07FFF007FFFF80
07FFE007FFFF80
0FFFC007FFFFC0
0FFFC007FFFFC0
1FFFC003FFFFE0
1FFFC003FFFFE0
3FFF8003FFFFF0
3FFF8001FFFFF0
3FFF8001FFFFF8
7FFFC001FFFFF8
7FFFC000FFFFFC
FFFF0000F80078
7F000000000000
ENDCHAR
STARTCHAR 00E5
ENCODING 229
SWIDTH 630 0
DWIDTH 56 0
BBX 54 79 1 -2
BITMAP
0000003E000000
000003FFC00000
00000FFFF00000
00001FFFFC0000
00003FFFFE0000
00007FFFFF0000
0000FFE3FF0000
0000FF81FF8000
0001FF80FF8000
0001FF00FF8000
0001FF00FF8000
0001FF007F8000
0001FF007FC000
0001FF007F8000
0000FF00FF8000
0000FF80FF8000
0000FFC1FF0000
00007FFFFE0000
00003FFFFC0000
00001FFFF80000
00000FFFF00000
000007FFE00000
000001FFE00000
000001FFE00000
000001FFF00000
000003FFF00000
000003FFF00000
000007FFF00000
000007FFF80000
000007FFF80000
00000FFFF80000
00000FFFF80000
00000FFFFC0000
00001FFFFC0000
00001FFFFC0000
00003FFFFC0000
00003FFFFE0000
00003FFFFE0000
00007FFFFE0000
00007FFFFF0000
00007FFFFF0000
0000FFFFFF0000
0000FFFFFF8000
0001FFFFFF8000
0001FFFFFF8000
0003FFFFFF8000
0003FFFFFFC000
0007FFFFFFC000
0007FFFFFFC000
0007FE3FFFE000
000FFC3FFFE000
000FF81FFFE000
001FF81FFFF000
001FF00FFFF000
003FE00FFFF000
003FE00FFFF800
007FC00FFFF800
007FC07FFFF800
007FFFFFFFFC00
00FFFFFFFFFC00
00FFFFFFFFFE00
01FFFFFFFFFE00
01FFFFFFFFFE00
03FFFFFFFFFF00
03FFFFFFFFFF00
07FFFE0FFFFF80
07FFF007FFFF80
07FFE007FFFF80
0FFFC007FFFFC0
0FFFC007FFFFC0
1FFFC003FFFFE0
1FFFC003FFFFE0
3FFF8003FFFFF0
3FFF8001FFFFF0
3FFF8001FFFFF8
7FFFC001FFFFF8
7FFFC000FFFFFC
FFFF0000F80078
7F000000000000
ENDCHAR
STARTCHAR 00E6
ENCODING 230
SWIDTH 731 0
DWIDTH 65 0
BBX 63 64 1 -2
BITMAP
0000000007000000
00000001FFFFC000
0000003FFFFFFC00
0000007FFFFFFE00
000000FFFFFFFC00
000000FFFFFFFC00
000001FFFFFFFC00
000001FFFFFFFC00
000001FFFFFFF800
000003FFFFFFF800
000003FFFFFFF800
000003FFFFFFF800
000007FFFFFFF000
000007FFFFFFF000
00000FFFFFFFF000
00000FFFFFFFF000
00000FFFFFFFF800
00001FFFFFFFF000
00001FFFFFFFE000
00001FFFFFE00000
00003FFFFF800000
00003FFFFF000000
00003FFFFF800000
00007FFFFF800000
00007FFFFF800000
0000FFFFFFC07000
0000FFFFFFCFF000
0001FFFFFFFFF000
0001FFFFFFFFF000
0001FFFFFFFFF000
0003FFFFFFFFF000
0003FFFFFFFFF000
0007FFFFFFFFF000
0007FE7FFFFFF800
000FFC3FFFFFF800
000FFC3FFFF80000
001FF81FFFE00000
001FF01FFFE00000
001FF00FFFF00020
003FE00FFFF041E0
003FE00FFFFFFFF0
007FC00FFFFFFFF0
007FC0FFFFFFFFF8
00FFFFFFFFFFFFF8
00FFFFFFFFFFFFF8
01FFFFFFFFFFFFF8
01FFFFFFFFFFFFFC
01FFFFFFFFFFFFFC
03FFFFFFFFFFFFFC
03FFFF8FFFFFFFFC
07FFFC07FFFFFFFC
07FFF007FFFFFFFE
0FFFE007FFFFFFFE
0FFFC007FFFFFFFE
0FFFC003FFFFFFFE
1FFFC003FFFFFFFE
1FFFC003FFFFFFF0
3FFF8003FFFFFF80
3FFF8001FFFFF800
7FFF8001FFFF8000
7FFFC000FFF00000
7FFFC000FF000000
FFF8000060000000
6000000000000000
ENDCHAR
STARTCHAR 00E7
ENCODING 231
SWIDTH 483 0
DWIDTH 43 0
BBX 41 76 1 -15
BITMAP
000000400000
00000FFE0000
00007FFFC000
0001FFFFF000
000FFFFFF800
003FFFFFFE00
007FFFFFFF00
00FFFFFFFF80
01FFFFFFFF80
03FFFFFFFF80
07FFFFFFFF80
0FFFFFFFFF80
0FFFFFFFFF80
1FFFFFFFFF80
1FFFFFFFFF80
3FFFFFFFFF00
3FFFFFFFFF00
3FFFFFFE3600
7FFFFF800000
7FFFFE000000
7FFFFC000000
7FFFF8000000
FFFFF0000000
7FFFE0000000
7FFFE0000000
7FFFC0000000
FFFFC0000000
FFFFC0000000
FFFFC0000000
7FFFC0000000
7FFFC0000000
7FFFE0000000
7FFFF0000000
FFFFF8000200
FFFFFC00FF00
7FFFFF7FFF00
7FFFFFFFFF80
7FFFFFFFFF80
7FFFFFFFFF80
7FFFFFFFFF80
3FFFFFFFFF80
3FFFFFFFFF00
3FFFFFFFFF00
3FFFFFFFFF00
1FFFFFFFFF00
1FFFFFFFFF00
0FFFFFFFFF00
0FFFFFFFFF00
0FFFFFFFFF80
07FFFFFFFF00
07FFFFFFFF00
03FFFFFFFE00
03FFFFFFFC00
01FFFFFFF800
00FFFFFFF000
00FFFFFFF000
007FFFFFE000
0007FFFF8000
0003FFFE0000
0003FFF00000
0003FF000000
0003FF800000
0001FF800000
0001FFE00000
0000FFF00000
00003FFC0000
00001FFE0000
000007FE0000
007007FF0000
00FF07FF0000
01FFFFFF0000
01FFFFFE0000
01FFFFFE0000
007FFFFC0000
001FFFF80000
0003FF800000
ENDCHAR
STARTCHAR 00E8
ENCODING 232
SWIDTH 495 0
DWIDTH 44 0
BBX 42 77 1 0
BITMAP
1FF000000000
7FF800000000
FFFC00000000
7FFC00000000
3FFE00000000
1FFF00000000
0FFF80000000
03FFC0000000
01FFC0000000
00FFE0000000
007FE0000000
003FF0000000
003F00000000
000000000000
000000000000
003FFF000000
01FFFFFC0000
0FFFFFFF8000
3FFFFFFF8000
7FFFFFFF8000
FFFFFFFF0000
7FFFFFFF0000
7FFFFFFF0000
3FFFFFFE0000
3FFFFFFE0000
3FFFFFFE0000
3FFFFFFE0000
1FFFFFFE0000
1FFFFFFE0000
1FFFFFFC0000
1FFFFFFE0000
1FFFFFFE0000
0FFFFFFC0000
0FFFFFF80000
0FFFF0000000
0FFFE0000000
0FFFE0000000
0FFFE0000000
07FFE0000000
07FFF0000000
07FFF07C0000
07FFFFFE0000
07FFFFFC0000
03FFFFFC0000
03FFFFFC0000
03FFFFFC0000
03FFFFFC0000
03FFFFFE0000
03FFFFFE0000
01FFFFEE0000
01FFF8000000
01FFF8000000
01FFFC000000
01FFFC001800
01FFFFFFFC00
00FFFFFFFC00
00FFFFFFFE00
01FFFFFFFE00
00FFFFFFFE00
00FFFFFFFF00
00FFFFFFFF00
007FFFFFFF00
00FFFFFFFF00
00FFFFFFFF00
00FFFFFFFF80
007FFFFFFF80
007FFFFFFF80
007FFFFFFF80
007FFFFFFF80
007FFFFFFFC0
007FFFFFFF80
007FFFFFF800
007FFFFFC000
003FFFFC0000
003FFFC00000
003FF8000000
001C00000000
ENDCHAR
STARTCHAR 00E9
ENCODING 233
SWIDTH 495 0
DWIDTH 44 0
BBX 42 79 1 0
BITMAP
000003C00000
0001FFE00000
0001FFE00000
0003FFC00000
0003FF800000
0003FF800000
0007FF000000
0007FE000000
000FFC000000
000FFC000000
000FF8000000
001FF0000000
001FF0000000
003FE0000000
003FE0000000
000000000000
000000000000
003FFF000000
01FFFFFC0000
0FFFFFFF8000
3FFFFFFF8000
7FFFFFFF8000
FFFFFFFF0000
7FFFFFFF0000
7FFFFFFF0000
3FFFFFFE0000
3FFFFFFE0000
3FFFFFFE0000
3FFFFFFE0000
1FFFFFFE0000
1FFFFFFE0000
1FFFFFFC0000
1FFFFFFE0000
1FFFFFFE0000
0FFFFFFC0000
0FFFFFF80000
0FFFF0000000
0FFFE0000000
0FFFE0000000
0FFFE0000000
07FFE0000000
07FFF0000000
07FFF07C0000
07FFFFFE0000
07FFFFFC0000
03FFFFFC0000
03FFFFFC0000
03FFFFFC0000
03FFFFFC0000
03FFFFFE0000
03FFFFFE0000
01FFFFEE0000
01FFF8000000
01FFF8000000
01FFFC000000
01FFFC001800
01FFFFFFFC00
00FFFFFFFC00
00FFFFFFFE00
01FFFFFFFE00
00FFFFFFFE00
00FFFFFFFF00
00FFFFFFFF00
007FFFFFFF00
00FFFFFFFF00
00FFFFFFFF00
00FFFFFFFF80
007FFFFFFF80
007FFFFFFF80
007FFFFFFF80
007FFFFFFF80
007FFFFFFFC0
007FFFFFFF80
007FFFFFF800
007FFFFFC000
003FFFFC0000
003FFFC00000
003FF8000000
001C00000000
ENDCHAR
STARTCHAR 00EA
ENCODING 234
SWIDTH 495 0
DWIDTH 44 0
BBX 42 78 1 0
BITMAP
000F00000000
003F80000000
007FE0000000
01FFF0000000
03FFFC000000
07FFFE000000
0FFFFF800000
1FFFFFC00000
1FFFFFE00000
3FFDFFE00000
7FF07FE00000
7FE03FC00000
FFC01F000000
7F8000000000
1C0000000000
000000000000
003FFF000000
01FFFFFC0000
0FFFFFFF8000
3FFFFFFF8000
7FFFFFFF8000
FFFFFFFF0000
7FFFFFFF0000
7FFFFFFF0000
3FFFFFFE0000
3FFFFFFE0000
3FFFFFFE0000
3FFFFFFE0000
1FFFFFFE0000
1FFFFFFE0000
1FFFFFFC0000
1FFFFFFE0000
1FFFFFFE0000
0FFFFFFC0000
0FFFFFF80000
0FFFF0000000
0FFFE0000000
0FFFE0000000
0FFFE0000000
07FFE0000000
07FFF0000000
07FFF07C0000
07FFFFFE0000
07FFFFFC0000
03FFFFFC0000
03FFFFFC0000
03FFFFFC0000
03FFFFFC0000
03FFFFFE0000
03FFFFFE0000
01FFFFEE0000
01FFF8000000
01FFF8000000
01FFFC000000
01FFFC001800
01FFFFFFFC00
00FFFFFFFC00
00FFFFFFFE00
01FFFFFFFE00
00FFFFFFFE00
00FFFFFFFF00
00FFFFFFFF00
007FFFFFFF00
00FFFFFFFF00
00FFFFFFFF00
00FFFFFFFF80
007FFFFFFF80
007FFFFFFF80
007FFFFFFF80
007FFFFFFF80
007FFFFFFFC0
007FFFFFFF80
007FFFFFF800
007FFFFFC000
003FFFFC0000
003FFFC00000
003FF8000000
001C00000000
ENDCHAR
STARTCHAR 00EB
ENCODING 235
SWIDTH 495 0
DWIDTH 44 0
BBX 42 74 1 0
BITMAP
00003E000000
00007F000000
0F007F800000
1FC0FFC00000
3FC0FFC00000
3FE0FF800000
7FE0FF800000
7FE07F800000
7FE07F000000
3FC00C000000
1F8000000000
070000000000
003FFF000000
01FFFFFC0000
0FFFFFFF8000
3FFFFFFF8000
7FFFFFFF8000
FFFFFFFF0000
7FFFFFFF0000
7FFFFFFF0000
3FFFFFFE0000
3FFFFFFE0000
3FFFFFFE0000
3FFFFFFE0000
1FFFFFFE0000
1FFFFFFE0000
1FFFFFFC0000
1FFFFFFE0000
1FFFFFFE0000
0FFFFFFC0000
0FFFFFF80000
0FFFF0000000
0FFFE0000000
0FFFE0000000
0FFFE0000000
07FFE0000000
07FFF0000000
07FFF07C0000
07FFFFFE0000
07FFFFFC0000
03FFFFFC0000
03FFFFFC0000
03FFFFFC0000
03FFFFFC0000
03FFFFFE0000
03FFFFFE0000
01FFFFEE0000
01FFF8000000
01FFF8000000
01FFFC000000
01FFFC001800
01FFFFFFFC00
00FFFFFFFC00
00FFFFFFFE00
01FFFFFFFE00
00FFFFFFFE00
00FFFFFFFF00
00FFFFFFFF00
007FFFFFFF00
00FFFFFFFF00
00FFFFFFFF00
00FFFFFFFF80
007FFFFFFF80
007FFFFFFF80
007FFFFFFF80
007FFFFFFF80
007FFFFFFFC0
007FFFFFFF80
007FFFFFF800
007FFFFFC000
003FFFFC0000
003FFFC00000
003FF8000000
001C00000000
ENDCHAR
STARTCHAR 00EC
ENCODING 236
SWIDTH 326 0
DWIDTH 29 0
BBX 27 77 1 0
BITMAP
07FF0000
07FF8000
07FFC000
03FFC000
01FFE000
00FFE000
00FFF000
007FF800
003FF800
001FF800
000FFC00
0007FC00
0007FE00
0003F000
00000000
00000000
00000000
007FFE00
00FFFFE0
01FFFFE0
01FFFFE0
01FFFFC0
00FFFFC0
00FFFFC0
01FFFFC0
01FFFFC0
01FFFF80
01FFFF80
01FFFF80
01FFFF80
03FFFF80
03FFFF80
03FFFF80
03FFFF80
03FFFF80
03FFFF80
03FFFF00
03FFFF00
07FFFF00
07FFFF00
07FFFF00
07FFFF00
07FFFF00
07FFFF00
07FFFF00
07FFFF00
07FFFF00
07FFFF00
07FFFF00
07FFFF00
07FFFF00
0FFFFF00
0FFFFF00
0FFFFF00
0FFFFF00
0FFFFF00
0FFFFF00
0FFFFF00
0FFFFF00
0FFFFF00
0FFFFF00
0FFFFF00
0FFFFF00
0FFFFF00
0FFFFF00
0FFFFF00
0FFFFE00
0FFFFE00
0FFFFC00
1FFFFC00
1FFFFE00
1FFFFE00
1FFFFE00
3FFFFC00
3FFFF000
FFF80000
7E000000
ENDCHAR
STARTCHAR 00ED
ENCODING 237
SWIDTH 326 0
DWIDTH 29 0
BBX 32 77 1 0
BITMAP
00000FFE
00001FFE
00001FFF
00003FFE
00003FFC
00007FF8
0000FFF0
0000FFE0
0001FFC0
0001FF80
0003FF00
0003FE00
0003FE00
0000FC00
00000000
00000000
00000000
007FFE00
00FFFFE0
01FFFFE0
01FFFFE0
01FFFFC0
00FFFFC0
00FFFFC0
01FFFFC0
01FFFFC0
01FFFF80
01FFFF80
01FFFF80
01FFFF80
03FFFF80
03FFFF80
03FFFF80
03FFFF80
03FFFF80
03FFFF80
03FFFF00
03FFFF00
07FFFF00
07FFFF00
07FFFF00
07FFFF00
07FFFF00
07FFFF00
07FFFF00
07FFFF00
07FFFF00
07FFFF00
07FFFF00
07FFFF00
07FFFF00
0FFFFF00
0FFFFF00
0FFFFF00
0FFFFF00
0FFFFF00
0FFFFF00
0FFFFF00
0FFFFF00
0FFFFF00
0FFFFF00
0FFFFF00
0FFFFF00
0FFFFF00
0FFFFF00
0FFFFF00
0FFFFE00
0FFFFE00
0FFFFC00
1FFFFC00
1FFFFE00
1FFFFE00
1FFFFE00
3FFFFC00
3FFFF000
FFF80000
7E000000
ENDCHAR
STARTCHAR 00EE
ENCODING 238
SWIDTH 326 0
DWIDTH 29 0
BBX 31 77 1 0
BITMAP
00007000
0001FC00
0007FE00
001FFF00
003FFF80
007FFFE0
00FFFFF0
01FFFFF8
03FFFFFC
07FFDFFE
0FFF0FFE
0FFE07FE
07FC03FE
01E000FC
00000000
00000000
00000000
007FFE00
00FFFFE0
01FFFFE0
01FFFFE0
01FFFFC0
00FFFFC0
00FFFFC0
01FFFFC0
01FFFFC0
01FFFF80
01FFFF80
01FFFF80
01FFFF80
03FFFF80
03FFFF80
03FFFF80
03FFFF80
03FFFF80
03FFFF80
03FFFF00
03FFFF00
07FFFF00
07FFFF00
07FFFF00
07FFFF00
07FFFF00
07FFFF00
07FFFF00
07FFFF00
07FFFF00
07FFFF00
07FFFF00
07FFFF00
07FFFF00
0FFFFF00
0FFFFF00
0FFFFF00
0FFFFF00
0FFFFF00
0FFFFF00
0FFFFF00
0FFFFF00
0FFFFF00
0FFFFF00
0FFFFF00
0FFFFF00
0FFFFF00
0FFFFF00
0FFFFF00
0FFFFE00
0FFFFE00
0FFFFC00
1FFFFC00
1FFFFE00
1FFFFE00
1FFFFE00
3FFFFC00
3FFFF000
FFF80000
7E000000
ENDCHAR
STARTCHAR 00EF
ENCODING 239
SWIDTH 326 0
DWIDTH 29 0
BBX 30 72 1 0
BITMAP
007001F0
01FC03F8
01FE07FC
03FE07FC
03FE07FC
03FE07FC
03FE07FC
03FE07F8
01FC01F0
00780000
00000000
00000000
007FFE00
00FFFFE0
01FFFFE0
01FFFFE0
01FFFFC0
00FFFFC0
00FFFFC0
01FFFFC0
01FFFFC0
01FFFF80
01FFFF80
01FFFF80
01FFFF80
03FFFF80
03FFFF80
03FFFF80
03FFFF80
03FFFF80
03FFFF80
03FFFF00
03FFFF00
07FFFF00
07FFFF00
07FFFF00
07FFFF00
07FFFF00
07FFFF00
07FFFF00
07FFFF00
07FFFF00
07FFFF00
07FFFF00
07FFFF00
07FFFF00
0FFFFF00
0FFFFF00
0FFFFF00
0FFFFF00
0FFFFF00
0FFFFF00
0FFFFF00
0FFFFF00
0FFFFF00
0FFFFF00
0FFFFF00
0FFFFF00
0FFFFF00
0FFFFF00
0FFFFF00
0FFFFE00
0FFFFE00
0FFFFC00
1FFFFC00
1FFFFE00
1FFFFE00
1FFFFE00
3FFFFC00
3FFFF000
FFF80000
7E000000
ENDCHAR
STARTCHAR 00F0
ENCODING 240
SWIDTH 483 0
DWIDTH 43 0
BBX 43 61 0 0
BITMAP
003F00000000
01FFFC000000
03FFFF800000
0FFFFFE00000
0FFFFFFC0000
0FFFFFFF0000
0FFFFFFF8000
0FFFFFFF8000
0FFFFFFFC000
0FFFFFFFE000
0FFFFFFFF000
0FFFFFFFF800
0FFFFFFFF800
0FFFFFFFFC00
0FFFFFFFFE00
0FFFFFFFFE00
0FFFFFFFFF00
0FFFFC3FFF00
07FFF80FFF80
07FFF807FF80
07FFFFC3FFC0
07FFFFC1FFC0
07FFFFC1FFC0
7FFFFFE1FFC0
FFFFFFE1FFC0
FFFFFFE1FFE0
FFFFFFE3FFE0
FFFFFFE3FFE0
FFFFFFE3FFE0
FFFFFFE7FFC0
7FFFFFE7FFC0
7FFFFFCFFF80
7FFFFC0FFF80
7FFFFC1FFF00
7FFFFC3FFF00
09FFFC7FFF00
01FFFFFFFE00
01FFFFFFFE00
01FFFFFFFC00
00FFFFFFFC00
00FFFFFFF800
00FFFFFFF800
00FFFFFFF000
00FFFFFFF000
007FFFFFE000
007FFFFFC000
007FFFFFC000
007FFFFF8000
007FFFFF0000
003FFFFF0000
003FFFFE0000
003FFFFC0000
003FFFF80000
001FFFF00000
001FFFC00000
001FFF000000
001FFC000000
000FF0000000
000FC0000000
000F00000000
000C00000000
ENDCHAR
STARTCHAR 00F1
ENCODING 241
SWIDTH 562 0
DWIDTH 50 0
BBX 48 75 1 1
BITMAP
00000F80FF80
00003FC0FF80
00007FE0FF80
0000FFF8FF80
0000FFFFFF80
0001FFFFFF80
0001FFFFFF80
0001FFFFFF80
0001FFFFFF00
0001FEFFFE00
0001FC7FFC00
0001FC1FF800
0001FC0FE000
000000000000
000000000000
000000000000
000000000000
003FC0000FF8
01FFFE003FFE
03FFFF01FFFE
03FFFF01FFFF
03FFFF01FFFF
03FFFF01FFFF
03FFFF01FFFF
07FFFF01FFFF
07FFFF01FFFF
07FFFF01FFFE
07FFFF01FFFE
07FFFF03FFFE
07FFFF03FFFE
0FFFFF83FFFE
0FFFFF83FFFE
0FFFFF83FFFE
0FFFFF83FFFE
0FFFFFC3FFFC
0FFFFFC3FFFC
0FFFFFC3FFFC
0FFFFFC3FFFC
1FFFFFE3FFFC
1FFFFFE3FFFC
1FFFFFE3FFFC
1FFFFFF3FFFC
1FFFFFF3FFFC
1FFFFFF3FFFC
1FFFFFF3FFF8
1FFFFFFBFFF8
1FFFFFFBFFF8
3FFFFFFBFFF8
3FFFFFFFFFF8
3FFFFFFFFFF8
3FFFFFFFFFF8
3FFFF7FFFFF8
3FFFF7FFFFF8
3FFFF7FFFFF8
3FFFF3FFFFF8
3FFFF3FFFFF8
3FFFE3FFFFF0
3FFFE1FFFFF0
3FFFE1FFFFF0
3FFFE1FFFFF0
3FFFE0FFFFF0
3FFFE0FFFFF0
3FFFE0FFFFF0
7FFFE07FFFF0
7FFFE07FFFF0
7FFFE07FFFF0
7FFFE03FFFF0
7FFFE03FFFF0
7FFFE03FFFF0
7FFFE03FFFF0
7FFFE03FFFF0
7FFFE01FFFF0
7FFFE03FFFE0
FFFF801FFFC0
FFE00000FC00
ENDCHAR
STARTCHAR 00F2
ENCODING 242
SWIDTH 528 0
DWIDTH 47 0
BBX 45 78 1 -1
BITMAP
7FF000000000
7FF800000000
7FFC00000000
3FFC00000000
1FFE00000000
0FFE00000000
07FF00000000
03FF80000000
03FF80000000
01FFC0000000
00FFC0000000
007FC0000000
003FE0000000
003F00000000
000000000000
0003F0000000
0007FC000000
000FFF000000
000FFFC00000
001FFFF00000
003FFFF80000
007FFFFE0000
007FFFFF0000
00FFFFFFC000
00FFFFFFE000
01FFFFFFF000
01FFFFFFF000
03FFFFFFF800
03FFFFFFFC00
07FFFFFFFC00
07FFFFFFFE00
07FFFFFFFF00
0FFFFFFFFF00
0FFFFFFFFF80
1FFFFFFFFF80
1FFFFFFFFFC0
1FFFFFFFFFC0
3FFFFFFFFFE0
3FFFF07FFFE0
3FFFE01FFFE0
7FFFC00FFFF0
7FFFC00FFFF0
7FFFC00FFFF0
7FFF800FFFF8
7FFF800FFFF8
FFFF800FFFF8
FFFF800FFFF8
FFFF800FFFF8
7FFF800FFFF8
7FFF800FFFF8
7FFFC01FFFF8
7FFFE01FFFF8
7FFFF03FFFF8
7FFFF87FFFF8
7FFFFFFFFFF8
3FFFFFFFFFF8
3FFFFFFFFFF8
3FFFFFFFFFF0
3FFFFFFFFFF0
1FFFFFFFFFF0
1FFFFFFFFFF0
1FFFFFFFFFF0
0FFFFFFFFFE0
0FFFFFFFFFE0
0FFFFFFFFFE0
07FFFFFFFFC0
07FFFFFFFFC0
03FFFFFFFFC0
03FFFFFFFF80
01FFFFFFFF80
00FFFFFFFF00
007FFFFFFF00
003FFFFFFE00
000FFFFFF800
0007FFFFE000
0000FFFFC000
00003FFF0000
000003E00000
ENDCHAR
STARTCHAR 00F3
ENCODING 243
SWIDTH 528 0
DWIDTH 47 0
BBX 45 78 1 -1
BITMAP
00000FFE0000
00001FFE0000
00003FFE0000
00003FFC0000
00007FF80000
00007FF00000
0000FFE00000
0001FFE00000
0001FFC00000
0003FF800000
0003FF000000
0003FE000000
0007FC000000
0000FC000000
000000000000
0003F0000000
0007FC000000
000FFF000000
000FFFC00000
001FFFF00000
003FFFF80000
007FFFFE0000
007FFFFF0000
00FFFFFFC000
00FFFFFFE000
01FFFFFFF000
01FFFFFFF000
03FFFFFFF800
03FFFFFFFC00
07FFFFFFFC00
07FFFFFFFE00
07FFFFFFFF00
0FFFFFFFFF00
0FFFFFFFFF80
1FFFFFFFFF80
1FFFFFFFFFC0
1FFFFFFFFFC0
3FFFFFFFFFE0
3FFFF07FFFE0
3FFFE01FFFE0
7FFFC00FFFF0
7FFFC00FFFF0
7FFFC00FFFF0
7FFF800FFFF8
7FFF800FFFF8
FFFF800FFFF8
FFFF800FFFF8
FFFF800FFFF8
7FFF800FFFF8
7FFF800FFFF8
7FFFC01FFFF8
7FFFE01FFFF8
7FFFF03FFFF8
7FFFF87FFFF8
7FFFFFFFFFF8
3FFFFFFFFFF8
3FFFFFFFFFF8
3FFFFFFFFFF0
3FFFFFFFFFF0
1FFFFFFFFFF0
1FFFFFFFFFF0
1FFFFFFFFFF0
0FFFFFFFFFE0
0FFFFFFFFFE0
0FFFFFFFFFE0
07FFFFFFFFC0
07FFFFFFFFC0
03FFFFFFFFC0
03FFFFFFFF80
01FFFFFFFF80
00FFFFFFFF00
007FFFFFFF00
003FFFFFFE00
000FFFFFF800
0007FFFFE000
0000FFFFC000
00003FFF0000
000003E00000
ENDCHAR
STARTCHAR 00F4
ENCODING 244
SWIDTH 528 0
DWIDTH 47 0
BBX 45 78 1 -1
BITMAP
0007C0000000
000FF0000000
001FFC000000
007FFF000000
00FFFF800000
01FFFFC00000
03FFFFE00000
07FFFFF00000
0FFFFFF80000
1FFE7FFC0000
1FFC3FFC0000
1FF00FFC0000
0FE007F80000
00C000000000
000000000000
0003F0000000
0007FC000000
000FFF000000
000FFFC00000
001FFFF00000
003FFFF80000
007FFFFE0000
007FFFFF0000
00FFFFFFC000
00FFFFFFE000
01FFFFFFF000
01FFFFFFF000
03FFFFFFF800
03FFFFFFFC00
07FFFFFFFC00
07FFFFFFFE00
07FFFFFFFF00
0FFFFFFFFF00
0FFFFFFFFF80
1FFFFFFFFF80
1FFFFFFFFFC0
1FFFFFFFFFC0
3FFFFFFFFFE0
3FFFF07FFFE0
3FFFE01FFFE0
7FFFC00FFFF0
7FFFC00FFFF0
7FFFC00FFFF0
7FFF800FFFF8
7FFF800FFFF8
FFFF800FFFF8
FFFF800FFFF8
FFFF800FFFF8
7FFF800FFFF8
7FFF800FFFF8
7FFFC01FFFF8
7FFFE01FFFF8
7FFFF03FFFF8
7FFFF87FFFF8
7FFFFFFFFFF8
3FFFFFFFFFF8
3FFFFFFFFFF8
3FFFFFFFFFF0
3FFFFFFFFFF0
1FFFFFFFFFF0
1FFFFFFFFFF0
1FFFFFFFFFF0
0FFFFFFFFFE0
0FFFFFFFFFE0
0FFFFFFFFFE0
07FFFFFFFFC0
07FFFFFFFFC0
03FFFFFFFFC0
03FFFFFFFF80
01FFFFFFFF80
00FFFFFFFF00
007FFFFFFF00
003FFFFFFE00
000FFFFFF800
0007FFFFE000
0000FFFFC000
00003FFF0000
000003E00000
ENDCHAR
STARTCHAR 00F5
ENCODING 245
SWIDTH 528 0
DWIDTH 47 0
BBX 45 78 1 -1
BITMAP
00001FF00000
00701FF00000
03FC1FF00000
07FE1FF00000
0FFFFFF00000
0FFFFFF00000
1FFFFFF00000
1FFFFFF00000
1FFFFFE00000
1FFFFFC00000
1FFFFFC00000
1FE3FF800000
1FE0FE000000
1FC000000000
1E0000000000
0003F0000000
0007FC000000
000FFF000000
000FFFC00000
001FFFF00000
003FFFF80000
007FFFFE0000
007FFFFF0000
00FFFFFFC000
00FFFFFFE000
01FFFFFFF000
01FFFFFFF000
03FFFFFFF800
03FFFFFFFC00
07FFFFFFFC00
07FFFFFFFE00
07FFFFFFFF00
0FFFFFFFFF00
0FFFFFFFFF80
1FFFFFFFFF80
1FFFFFFFFFC0
1FFFFFFFFFC0
3FFFFFFFFFE0
3FFFF07FFFE0
3FFFE01FFFE0
7FFFC00FFFF0
7FFFC00FFFF0
7FFFC00FFFF0
7FFF800FFFF8
7FFF800FFFF8
FFFF800FFFF8
FFFF800FFFF8
FFFF800FFFF8
7FFF800FFFF8
7FFF800FFFF8
7FFFC01FFFF8
7FFFE01FFFF8
7FFFF03FFFF8
7FFFF87FFFF8
7FFFFFFFFFF8
3FFFFFFFFFF8
3FFFFFFFFFF8
3FFFFFFFFFF0
3FFFFFFFFFF0
1FFFFFFFFFF0
1FFFFFFFFFF0
1FFFFFFFFFF0
0FFFFFFFFFE0
0FFFFFFFFFE0
0FFFFFFFFFE0
07FFFFFFFFC0
07FFFFFFFFC0
03FFFFFFFFC0
03FFFFFFFF80
01FFFFFFFF80
00FFFFFFFF00
007FFFFFFF00
003FFFFFFE00
000FFFFFF800
0007FFFFE000
0000FFFFC000
00003FFF0000
000003E00000
ENDCHAR
STARTCHAR 00F6
ENCODING 246
SWIDTH 528 0
DWIDTH 47 0
BBX 45 73 1 -1
BITMAP
01C007C00000
03F00FE00000
07F81FF00000
0FF81FF00000
0FF81FF00000
0FF81FF00000
0FF81FF00000
0FF81FE00000
03F007C00000
01E000000000
0003F0000000
0007FC000000
000FFF000000
000FFFC00000
001FFFF00000
003FFFF80000
007FFFFE0000
007FFFFF0000
00FFFFFFC000
00FFFFFFE000
01FFFFFFF000
01FFFFFFF000
03FFFFFFF800
03FFFFFFFC00
07FFFFFFFC00
07FFFFFFFE00
07FFFFFFFF00
0FFFFFFFFF00
0FFFFFFFFF80
1FFFFFFFFF80
1FFFFFFFFFC0
1FFFFFFFFFC0
3FFFFFFFFFE0
3FFFF07FFFE0
3FFFE01FFFE0
7FFFC00FFFF0
7FFFC00FFFF0
7FFFC00FFFF0
7FFF800FFFF8
7FFF800FFFF8
FFFF800FFFF8
FFFF800FFFF8
FFFF800FFFF8
7FFF800FFFF8
7FFF800FFFF8
7FFFC01FFFF8
7FFFE01FFFF8
7FFFF03FFFF8
7FFFF87FFFF8
7FFFFFFFFFF8
3FFFFFFFFFF8
3FFFFFFFFFF8
3FFFFFFFFFF0
3FFFFFFFFFF0
1FFFFFFFFFF0
1FFFFFFFFFF0
1FFFFFFFFFF0
0FFFFFFFFFE0
0FFFFFFFFFE0
0FFFFFFFFFE0
07FFFFFFFFC0
07FFFFFFFFC0
03FFFFFFFFC0
03FFFFFFFF80
01FFFFFFFF80
00FFFFFFFF00
007FFFFFFF00
003FFFFFFE00
000FFFFFF800
0007FFFFE000
0000FFFFC000
00003FFF0000
000003E00000
ENDCHAR
STARTCHAR 00F7
ENCODING 247
SWIDTH 472 0
DWIDTH 42 0
BBX 40 47 1 8
BITMAP
00003C0000
0000FF8000
0001FFC000
0001FFE000
0003FFE000
0003FFE000
0007FFF000
0007FFF000
0007FFF000
0007FFE000
0007FFE000
0003FFE000
0001FFC000
00007F8000
00001E0000
0000000000
0000000000
003000E000
7FFFFFFFFF
7FFFFFFFFF
7FFFFFFFFF
7FFFFFFFFF
7FFFFFFFFF
7FFFFFFFFF
7FFFFFFFFF
7FFFFFFFFF
7FFFFFFFFF
7FFFFFFFFF
FFFFFFFE00
1FF0000000
0000000000
0000000000
0000000000
00007E0000
0001FF8000
0003FFC000
0003FFE000
0007FFE000
0007FFF000
0007FFF000
0007FFE000
0007FFE000
0007FFE000
0007FFC000
0003FFC000
0001FF8000
00007F0000
ENDCHAR
STARTCHAR 00F8
ENCODING 248
SWIDTH 528 0
DWIDTH 47 0
BBX 48 64 0 -1
BITMAP
000000001E06
0001F8003FFF
0003FE007FFF
0007FF807FFE
0007FFE0FFFE
000FFFF8FFFC
001FFFFDFFFC
003FFFFFFFF8
003FFFFFFFF0
007FFFFFFFF0
007FFFFFFFE0
00FFFFFFFFE0
00FFFFFFFFC0
01FFFFFFFF80
01FFFFFFFF80
03FFFFFFFF00
03FFFFFFFF00
03FFFFFFFF80
07FFFFFFFF80
07FFFFFFFFC0
0FFFFFFFFFC0
0FFFFFFFFFE0
0FFFFFFFFFE0
1FFFFFFFFFF0
1FFFE7FFFFF0
1FFF8FFFFFF0
3FFF0FFFFFF8
3FFF1FFFFFF8
3FFE1FFFFFF8
3FFE3FFFFFFC
3FFC3FFDFFFC
7FFC7FFDFFFC
7FFC7FF9FFFC
7FFCFFF1FFFC
3FFDFFF1FFFC
3FFDFFE1FFFC
3FFFFFC1FFFC
3FFFFFC3FFFC
3FFFFF83FFFC
3FFFFF87FFFC
3FFFFF0FFFFC
1FFFFE3FFFFC
1FFFFFFFFFFC
1FFFFFFFFFF8
1FFFFFFFFFF8
0FFFFFFFFFF8
0FFFFFFFFFF8
0FFFFFFFFFF8
07FFFFFFFFF0
07FFFFFFFFF0
07FFFFFFFFF0
03FFFFFFFFE0
07FFFFFFFFE0
0FFFFFFFFFE0
0FFFFFFFFFC0
1FFFFFFFFFC0
1FFFFFFFFF80
3FFFFFFFFF80
7FFFFFFFFF00
7FFFFFFFFC00
FFF1FFFFF000
FFE07FFFE000
C3C01FFF8000
018001F00000
ENDCHAR
STARTCHAR 00F9
ENCODING 249
SWIDTH 551 0
DWIDTH 49 0
BBX 47 75 1 2
BITMAP
000FFE000000
000FFE000000
001FFF000000
000FFF800000
0007FF800000
0003FFC00000
0001FFC00000
0000FFE00000
00007FF00000
00003FF00000
00001FF80000
00001FF80000
00000FF80000
000007E00000
000000000000
000000000000
01E000000000
03FF8000FFF8
03FFE000FFFC
03FFE000FFFC
07FFE001FFFC
07FFE000FFFC
07FFC000FFFC
07FFC000FFFC
0FFFC0007FFC
0FFFC0007FFC
0FFFC0007FFC
0FFFC0007FFC
1FFFC000FFFC
1FFFC000FFFC
1FFFC000FFFC
1FFF8000FFFC
1FFF8000FFFC
3FFF8000FFFC
3FFF8000FFFC
3FFF8000FFFC
3FFF8001FFFC
3FFF8001FFFC
7FFF8001FFFC
7FFF8001FFFC
7FFF8001FFFC
7FFF8001FFFC
7FFF8001FFFC
7FFF8003FFFC
7FFFC003FFFC
FFFFC003FFFE
FFFFC003FFFE
7FFFE003FFFC
7FFFF007FFFC
7FFFF807FFFC
7FFFFE07FFF8
7FFFFFFFFFF8
7FFFFFFFFFF8
7FFFFFFFFFF8
7FFFFFFFFFF0
7FFFFFFFFFF0
3FFFFFFFFFF0
3FFFFFFFFFE0
3FFFFFFFFFE0
3FFFFFFFFFE0
1FFFFFFFFFC0
1FFFFFFFFFC0
1FFFFFFFFF80
0FFFFFFFFF80
0FFFFFFFFF00
07FFFFFFFE00
03FFFFFFFC00
03FFFFFFFC00
01FFFFFFF800
01FFFFFFF000
00FFFFFFE000
007FFFFFC000
001FFFFF8000
0007FFFF0000
0000FFFE0000
ENDCHAR
STARTCHAR 00FA
ENCODING 250
SWIDTH 551 0
DWIDTH 49 0
BBX 47 75 1 2
BITMAP
00000007FF00
00000007FF00
0000000FFF80
0000001FFF00
0000001FFE00
0000003FFC00
0000007FF800
0000007FF000
000000FFE000
000000FFC000
000001FF8000
000001FF8000
000001FF0000
0000007E0000
000000000000
000000000000
01E000000000
03FF8000FFF8
03FFE000FFFC
03FFE000FFFC
07FFE001FFFC
07FFE000FFFC
07FFC000FFFC
07FFC000FFFC
0FFFC0007FFC
0FFFC0007FFC
0FFFC0007FFC
0FFFC0007FFC
1FFFC000FFFC
1FFFC000FFFC
1FFFC000FFFC
1FFF8000FFFC
1FFF8000FFFC
3FFF8000FFFC
3FFF8000FFFC
3FFF8000FFFC
3FFF8001FFFC
3FFF8001FFFC
7FFF8001FFFC
7FFF8001FFFC
7FFF8001FFFC
7FFF8001FFFC
7FFF8001FFFC
7FFF8003FFFC
7FFFC003FFFC
FFFFC003FFFE
FFFFC003FFFE
7FFFE003FFFC
7FFFF007FFFC
7FFFF807FFFC
7FFFFE07FFF8
7FFFFFFFFFF8
7FFFFFFFFFF8
7FFFFFFFFFF8
7FFFFFFFFFF0
7FFFFFFFFFF0
3FFFFFFFFFF0
3FFFFFFFFFE0
3FFFFFFFFFE0
3FFFFFFFFFE0
1FFFFFFFFFC0
1FFFFFFFFFC0
1FFFFFFFFF80
0FFFFFFFFF80
0FFFFFFFFF00
07FFFFFFFE00
03FFFFFFFC00
03FFFFFFFC00
01FFFFFFF800
01FFFFFFF000
00FFFFFFE000
007FFFFFC000
001FFFFF8000
0007FFFF0000
0000FFFE0000
ENDCHAR
STARTCHAR 00FB
ENCODING 251
SWIDTH 551 0
DWIDTH 49 0
BBX 47 75 1 2
BITMAP
000000380000
000001FC0000
000007FF0000
00000FFF8000
00001FFFC000
00007FFFE000
0000FFFFF000
0001FFFFFC00
0003FFFFFE00
0003FFEFFE00
0007FF87FF00
0007FF03FF00
0003FC01FE00
0001F000FC00
000000000000
000000000000
01E000000000
03FF8000FFF8
03FFE000FFFC
03FFE000FFFC
07FFE001FFFC
07FFE000FFFC
07FFC000FFFC
07FFC000FFFC
0FFFC0007FFC
0FFFC0007FFC
0FFFC0007FFC
0FFFC0007FFC
1FFFC000FFFC
1FFFC000FFFC
1FFFC000FFFC
1FFF8000FFFC
1FFF8000FFFC
3FFF8000FFFC
3FFF8000FFFC
3FFF8000FFFC
3FFF8001FFFC
3FFF8001FFFC
7FFF8001FFFC
7FFF8001FFFC
7FFF8001FFFC
7FFF8001FFFC
7FFF8001FFFC
7FFF8003FFFC
7FFFC003FFFC
FFFFC003FFFE
FFFFC003FFFE
7FFFE003FFFC
7FFFF007FFFC
7FFFF807FFFC
7FFFFE07FFF8
7FFFFFFFFFF8
7FFFFFFFFFF8
7FFFFFFFFFF8
7FFFFFFFFFF0
7FFFFFFFFFF0
3FFFFFFFFFF0
3FFFFFFFFFE0
3FFFFFFFFFE0
3FFFFFFFFFE0
1FFFFFFFFFC0
1FFFFFFFFFC0
1FFFFFFFFF80
0FFFFFFFFF80
0FFFFFFFFF00
07FFFFFFFE00
03FFFFFFFC00
03FFFFFFFC00
01FFFFFFF800
01FFFFFFF000
00FFFFFFE000
007FFFFFC000
001FFFFF8000
0007FFFF0000
0000FFFE0000
ENDCHAR
STARTCHAR 00FC
ENCODING 252
SWIDTH 551 0
DWIDTH 49 0
BBX 47 70 1 2
BITMAP
00007C007000
0001FE03F800
0001FF03FC00
0003FF03FE00
0003FF07FE00
0001FF07FE00
0001FF03FE00
0000FE03FC00
00007C01F800
00000000E000
000000000000
01E000000000
03FF8000FFF8
03FFE000FFFC
03FFE000FFFC
07FFE001FFFC
07FFE000FFFC
07FFC000FFFC
07FFC000FFFC
0FFFC0007FFC
0FFFC0007FFC
0FFFC0007FFC
0FFFC0007FFC
1FFFC000FFFC
1FFFC000FFFC
1FFFC000FFFC
1FFF8000FFFC
1FFF8000FFFC
3FFF8000FFFC
3FFF8000FFFC
3FFF8000FFFC
3FFF8001FFFC
3FFF8001FFFC
7FFF8001FFFC
7FFF8001FFFC
7FFF8001FFFC
7FFF8001FFFC
7FFF8001FFFC
7FFF8003FFFC
7FFFC003FFFC
FFFFC003FFFE
FFFFC003FFFE
7FFFE003FFFC
7FFFF007FFFC
7FFFF807FFFC
7FFFFE07FFF8
7FFFFFFFFFF8
7FFFFFFFFFF8
7FFFFFFFFFF8
7FFFFFFFFFF0
7FFFFFFFFFF0
3FFFFFFFFFF0
3FFFFFFFFFE0
3FFFFFFFFFE0
3FFFFFFFFFE0
1FFFFFFFFFC0
1FFFFFFFFFC0
1FFFFFFFFF80
0FFFFFFFFF80
0FFFFFFFFF00
07FFFFFFFE00
03FFFFFFFC00
03FFFFFFFC00
01FFFFFFF800
01FFFFFFF000
00FFFFFFE000
007FFFFFC000
001FFFFF8000
0007FFFF0000
0000FFFE0000
ENDCHAR
STARTCHAR 00FD
ENCODING 253
SWIDTH 607 0
DWIDTH 54 0
BBX 52 77 1 0
BITMAP
00000003FF8000
00000007FF8000
00000007FF8000
0000000FFF0000
0000001FFE0000
0000001FFE0000
0000003FFC0000
0000003FF80000
0000007FF00000
0000007FE00000
000000FFC00000
000000FF800000
000001FF800000
0000003F000000
00000000000000
00000000000000
000000000071F0
0000000003FFF0
000C000007FFF0
003E00000FFFE0
07FE000007FFC0
3FFF00000FFFC0
7FFF80001FFFC0
FFFF80001FFFC0
7FFFC0003FFF80
7FFFC0003FFF00
3FFFE0003FFF00
3FFFE0007FFE00
3FFFF0007FFE00
1FFFF000FFFE00
1FFFF800FFFC00
0FFFF801FFFC00
07FFFC01FFF800
07FFFC03FFF800
03FFFE07FFF000
03FFFE07FFF000
01FFFE0FFFE000
01FFFF0FFFE000
00FFFF1FFFC000
00FFFF9FFFC000
007FFFBFFF8000
007FFFBFFF8000
003FFFFFFF0000
003FFFFFFF0000
001FFFFFFE0000
001FFFFFFE0000
000FFFFFFC0000
000FFFFFFC0000
0007FFFFFC0000
0007FFFFF80000
0003FFFFF80000
0003FFFFF00000
0001FFFFF00000
0001FFFFE00000
0000FFFFE00000
0000FFFFC00000
00007FFF800000
00003FFF800000
00003FFF800000
00001FFF800000
00001FFF800000
00001FFF800000
00001FFF800000
00001FFF800000
00001FFF800000
00001FFFC00000
00001FFFC00000
00001FFFC00000
00001FFFC00000
00001FFFC00000
00001FFFC00000
00000FFFC00000
00000FFFE00000
00000FFFE00000
00000FFFC00000
00000FFF800000
00000FF0000000
ENDCHAR
STARTCHAR 00FE
ENCODING 254
SWIDTH 506 0
DWIDTH 45 0
BBX 43 61 1 0
BITMAP
7FFF00000000
7FFF00000000
7FFF00000000
7FFF00000000
7FFF00000000
7FFF00000000
7FFF80000000
7FFF80000000
FFFFF8000000
7FFFFF800000
7FFFFFFC0000
7FFFFFFF0000
7FFFFFFF8000
7FFFFFFFC000
7FFFFFFFE000
7FFFFFFFF000
7FFFFFFFF800
7FFFFFFFF800
7FFFFFFFFC00
7FFFFFFFFC00
3FFFFFFFFE00
3FFF80FFFE00
3FFF803FFE00
3FFF801FFF00
3FFF800FFF00
3FFF800FFF00
3FFF8007FF80
3FFF8007FF80
3FFF8007FF80
3FFFC007FF80
3FFFC00FFF80
3FFFC00FFF80
3FFFC00FFF80
3FFFC01FFFC0
3FFFC01FFFC0
1FFFC01FFFC0
1FFFE03FFF80
1FFFE07FFFC0
1FFFE1FFFFC0
1FFFFFFFFFE0
1FFFFFFFFFC0
1FFFFFFFFF80
1FFFFFFFFF80
1FFFFFFFFF00
1FFFFFFFFE00
1FFFFFFFFC00
1FFFFFFFF000
1FFFFFFFE000
1FFFFFFF8000
1FFFF8000000
1FFFF0000000
1FFFF0000000
1FFFF8000000
1FFFF8000000
1FFFF8000000
1FFFF0000000
1FFFF0000000
1FFFF0000000
1FFFF0000000
0FFFF0000000
07FFE0000000
ENDCHAR
STARTCHAR 00FF
ENCODING 255
SWIDTH 607 0
DWIDTH 54 0
BBX 52 72 1 0
BITMAP
00007801F80000
0000FE03FC0000
0001FF03FE0000
0001FF07FE0000
0003FF07FE0000
0003FF07FE0000
0003FF03FC0000
0001FE03FC0000
0000FE01F80000
00003800000000
00000000000000
000000000071F0
0000000003FFF0
000C000007FFF0
003E00000FFFE0
07FE000007FFC0
3FFF00000FFFC0
7FFF80001FFFC0
FFFF80001FFFC0
7FFFC0003FFF80
7FFFC0003FFF00
3FFFE0003FFF00
3FFFE0007FFE00
3FFFF0007FFE00
1FFFF000FFFE00
1FFFF800FFFC00
0FFFF801FFFC00
07FFFC01FFF800
07FFFC03FFF800
03FFFE07FFF000
03FFFE07FFF000
01FFFE0FFFE000
01FFFF0FFFE000
00FFFF1FFFC000
00FFFF9FFFC000
007FFFBFFF8000
007FFFBFFF8000
003FFFFFFF0000
003FFFFFFF0000
001FFFFFFE0000
001FFFFFFE0000
000FFFFFFC0000
000FFFFFFC0000
0007FFFFFC0000
0007FFFFF80000
0003FFFFF80000
0003FFFFF00000
0001FFFFF00000
0001FFFFE00000
0000FFFFE00000
0000FFFFC00000
00007FFF800000
00003FFF800000
00003FFF800000
00001FFF800000
00001FFF800000
00001FFF800000
00001FFF800000
00001FFF800000
00001FFF800000
00001FFFC00000
00001FFFC00000
00001FFFC00000
00001FFFC00000
00001FFFC00000
00001FFFC00000
00000FFFC00000
00000FFFE00000
00000FFFE00000
00000FFFC00000
00000FFF800000
00000FF0000000
ENDCHAR
STARTCHAR 0100
ENCODING 256
SWIDTH 630 0
DWIDTH 56 0
BBX 54 73 1 -2
BITMAP
0000FFFFFFC000
0000FFFFFFC000
0000FFFFFFC000
0000FFFFFFC000
0000FFFFFFC000
0000FFFFFFC000
0000FFFFFFC000
00003F80000000
00000000000000
00000000000000
00000000000000
0000000F800000
0000007FC00000
000000FFC00000
000000FFE00000
000000FFE00000
000001FFE00000
000001FFE00000
000001FFF00000
000003FFF00000
000003FFF00000
000007FFF00000
000007FFF80000
000007FFF80000
00000FFFF80000
00000FFFF80000
00000FFFFC0000
00001FFFFC0000
00001FFFFC0000
00003FFFFC0000
00003FFFFE0000
00003FFFFE0000
00007FFFFE0000
00007FFFFF0000
00007FFFFF0000
0000FFFFFF0000
0000FFFFFF8000
0001FFFFFF8000
0001FFFFFF8000
0003FFFFFF8000
0003FFFFFFC000
0007FFFFFFC000
0007FFFFFFC000
0007FE3FFFE000
000FFC3FFFE000
000FF81FFFE000
001FF81FFFF000
001FF00FFFF000
003FE00FFFF000
003FE00FFFF800
007FC00FFFF800
007FC07FFFF800
007FFFFFFFFC00
00FFFFFFFFFC00
00FFFFFFFFFE00
01FFFFFFFFFE00
01FFFFFFFFFE00
03FFFFFFFFFF00
03FFFFFFFFFF00
07FFFE0FFFFF80
07FFF007FFFF80
07FFE007FFFF80
0FFFC007FFFFC0
0FFFC007FFFFC0
1FFFC003FFFFE0
1FFFC003FFFFE0
3FFF8003FFFFF0
3FFF8001FFFFF0
3FFF8001FFFFF8
7FFFC001FFFFF8
7FFFC000FFFFFC
FFFF0000F80078
7F000000000000
ENDCHAR
STARTCHAR 0101
ENCODING 257
SWIDTH 630 0
DWIDTH 56 0
BBX 54 73 1 -2
BITMAP
0000FFFFFFC000
0000FFFFFFC000
0000FFFFFFC000
0000FFFFFFC000
0000FFFFFFC000
0000FFFFFFC000
0000FFFFFFC000
00003F80000000
00000000000000
00000000000000
00000000000000
0000000F800000
0000007FC00000
000000FFC00000
000000FFE00000
000000FFE00000
000001FFE00000
000001FFE00000
000001FFF00000
000003FFF00000
000003FFF00000
000007FFF00000
000007FFF80000
000007FFF80000
00000FFFF80000
00000FFFF80000
00000FFFFC0000
00001FFFFC0000
00001FFFFC0000
00003FFFFC0000
00003FFFFE0000
00003FFFFE0000
00007FFFFE0000
00007FFFFF0000
00007FFFFF0000
0000FFFFFF0000
0000FFFFFF8000
0001FFFFFF8000
0001FFFFFF8000
0003FFFFFF8000
0003FFFFFFC000
0007FFFFFFC000
0007FFFFFFC000
0007FE3FFFE000
000FFC3FFFE000
000FF81FFFE000
001FF81FFFF000
001FF00FFFF000
003FE00FFFF000
003FE00FFFF800
007FC00FFFF800
007FC07FFFF800
007FFFFFFFFC00
00FFFFFFFFFC00
00FFFFFFFFFE00
01FFFFFFFFFE00
01FFFFFFFFFE00
03FFFFFFFFFF00
03FFFFFFFFFF00
07FFFE0FFFFF80
07FFF007FFFF80
07FFE007FFFF80
0FFFC007FFFFC0
0FFFC007FFFFC0
1FFFC003FFFFE0
1FFFC003FFFFE0
3FFF8003FFFFF0
3FFF8001FFFFF0
3FFF8001FFFFF8
7FFFC001FFFFF8
7FFFC000FFFFFC
FFFF0000F80078
7F000000000000
ENDCHAR
STARTCHAR 0102
ENCODING 258
SWIDTH 630 0
DWIDTH 56 0
BBX 54 78 1 -2
BITMAP
0001FC003FC000
0000FE003FC000
0000FE007FC000
0000FF00FF8000
0000FFEFFF8000
00007FFFFF8000
00007FFFFF0000
00003FFFFE0000
00003FFFFC0000
00001FFFF80000
00000FFFF00000
000003FFE00000
000000FF800000
00000000000000
00000000000000
00000000000000
0000000F800000
0000007FC00000
000000FFC00000
000000FFE00000
000000FFE00000
000001FFE00000
000001FFE00000
000001FFF00000
000003FFF00000
000003FFF00000
000007FFF00000
000007FFF80000
000007FFF80000
00000FFFF80000
00000FFFF80000
00000FFFFC0000
00001FFFFC0000
00001FFFFC0000
00003FFFFC0000
00003FFFFE0000
00003FFFFE0000
00007FFFFE0000
00007FFFFF0000
00007FFFFF0000
0000FFFFFF0000
0000FFFFFF8000
0001FFFFFF8000
0001FFFFFF8000
0003FFFFFF8000
0003FFFFFFC000
0007FFFFFFC000
0007FFFFFFC000
0007FE3FFFE000
000FFC3FFFE000
000FF81FFFE000
001FF81FFFF000
001FF00FFFF000
003FE00FFFF000
003FE00FFFF800
007FC00FFFF800
007FC07FFFF800
007FFFFFFFFC00
00FFFFFFFFFC00
00FFFFFFFFFE00
01FFFFFFFFFE00
01FFFFFFFFFE00
03FFFFFFFFFF00
03FFFFFFFFFF00
07FFFE0FFFFF80
07FFF007FFFF80
07FFE007FFFF80
0FFFC007FFFFC0
0FFFC007FFFFC0
1FFFC003FFFFE0
1FFFC003FFFFE0
3FFF8003FFFFF0
3FFF8001FFFFF0
3FFF8001FFFFF8
7FFFC001FFFFF8
7FFFC000FFFFFC
FFFF0000F80078
7F000000000000
ENDCHAR
STARTCHAR 0103
ENCODING 259
SWIDTH 630 0
DWIDTH 56 0
BBX 54 78 1 -2
BITMAP
0001FC003FC000
0000FE003FC000
0000FE007FC000
0000FF00FF8000
0000FFEFFF8000
00007FFFFF8000
00007FFFFF0000
00003FFFFE0000
00003FFFFC0000
00001FFFF80000
00000FFFF00000
000003FFE00000
000000FF800000
00000000000000
00000000000000
00000000000000
0000000F800000
0000007FC00000
000000FFC00000
000000FFE00000
000000FFE00000
000001FFE00000
000001FFE00000
000001FFF00000
000003FFF00000
000003FFF00000
000007FFF00000
000007FFF80000
000007FFF80000
00000FFFF80000
00000FFFF80000
00000FFFFC0000
00001FFFFC0000
00001FFFFC0000
00003FFFFC0000
00003FFFFE0000
00003FFFFE0000
00007FFFFE0000
00007FFFFF0000
00007FFFFF0000
0000FFFFFF0000
0000FFFFFF8000
0001FFFFFF8000
0001FFFFFF8000
0003FFFFFF8000
0003FFFFFFC000
0007FFFFFFC000
0007FFFFFFC000
0007FE3FFFE000
000FFC3FFFE000
000FF81FFFE000
001FF81FFFF000
001FF00FFFF000
003FE00FFFF000
003FE00FFFF800
007FC00FFFF800
007FC07FFFF800
007FFFFFFFFC00
00FFFFFFFFFC00
00FFFFFFFFFE00
01FFFFFFFFFE00
01FFFFFFFFFE00
03FFFFFFFFFF00
03FFFFFFFFFF00
07FFFE0FFFFF80
07FFF007FFFF80
07FFE007FFFF80
0FFFC007FFFFC0
0FFFC007FFFFC0
1FFFC003FFFFE0
1FFFC003FFFFE0
3FFF8003FFFFF0
3FFF8001FFFFF0
3FFF8001FFFFF8
7FFFC001FFFFF8
7FFFC000FFFFFC
FFFF0000F80078
7F000000000000
ENDCHAR
STARTCHAR 0104
ENCODING 260
SWIDTH 630 0
DWIDTH 56 0
BBX 54 75 1 -15
BITMAP
0000000F800000
0000007FC00000
000000FFC00000
000000FFE00000
000000FFE00000
000001FFE00000
000001FFE00000
000001FFF00000
000003FFF00000
000003FFF00000
000007FFF00000
000007FFF80000
000007FFF80000
00000FFFF80000
00000FFFF80000
00000FFFFC0000
00001FFFFC0000
00001FFFFC0000
00003FFFFC0000
00003FFFFE0000
00003FFFFE0000
00007FFFFE0000
00007FFFFF0000
00007FFFFF0000
0000FFFFFF0000
0000FFFFFF8000
0001FFFFFF8000
0001FFFFFF8000
0003FFFFFF8000
0003FFFFFFC000
0007FFFFFFC000
0007FFFFFFC000
0007FE3FFFE000
000FFC3FFFE000
000FF81FFFE000
001FF81FFFF000
001FF00FFFF000
003FE00FFFF000
003FE00FFFF800
007FC00FFFF800
007FC07FFFF800
007FFFFFFFFC00
00FFFFFFFFFC00
00FFFFFFFFFE00
01FFFFFFFFFE00
01FFFFFFFFFE00
03FFFFFFFFFF00
03FFFFFFFFFF00
07FFFE0FFFFF80
07FFF007FFFF80
07FFE007FFFF80
0FFFC007FFFFC0
0FFFC007FFFFC0
1FFFC003FFFFE0
1FFFC003FFFFE0
3FFF8003FFFFF0
3FFF8001FFFFF0
3FFF8001FFFFF8
7FFFC001FFFFF8
7FFFC001FFFFFC
FFFF0003F80078
7F000003F80000
00000007F00000
0000000FF00000
0000000FF00000
0000001FF00000
0000001FF00000
0000001FF00FC0
0000001FFFFFC0
0000001FFFFFC0
0000001FFFFFC0
0000000FFFFFC0
0000000FFFFFC0
00000003FFFFC0
000000003FFC00
ENDCHAR
STARTCHAR 0105
ENCODING 261
SWIDTH 630 0
DWIDTH 56 0
BBX 54 75 1 -15
BITMAP
0000000F800000
0000007FC00000
000000FFC00000
000000FFE00000
000000FFE00000
000001FFE00000
000001FFE00000
000001FFF00000
000003FFF00000
000003FFF00000
000007FFF00000
000007FFF80000
000007FFF80000
00000FFFF80000
00000FFFF80000
00000FFFFC0000
00001FFFFC0000
00001FFFFC0000
00003FFFFC0000
00003FFFFE0000
00003FFFFE0000
00007FFFFE0000
00007FFFFF0000
00007FFFFF0000
0000FFFFFF0000
0000FFFFFF8000
0001FFFFFF8000
0001FFFFFF8000
0003FFFFFF8000
0003FFFFFFC000
0007FFFFFFC000
0007FFFFFFC000
0007FE3FFFE000
000FFC3FFFE000
000FF81FFFE000
001FF81FFFF000
001FF00FFFF000
003FE00FFFF000
003FE00FFFF800
007FC00FFFF800
007FC07FFFF800
007FFFFFFFFC00
00FFFFFFFFFC00
00FFFFFFFFFE00
01FFFFFFFFFE00
01FFFFFFFFFE00
03FFFFFFFFFF00
03FFFFFFFFFF00
07FFFE0FFFFF80
07FFF007FFFF80
07FFE007FFFF80
0FFFC007FFFFC0
0FFFC007FFFFC0
1FFFC003FFFFE0
1FFFC003FFFFE0
3FFF8003FFFFF0
3FFF8001FFFFF0
3FFF8001FFFFF8
7FFFC001FFFFF8
7FFFC001FFFFFC
FFFF0003F80078
7F000003F80000
00000007F00000
0000000FF00000
0000000FF00000
0000001FF00000
0000001FF00000
0000001FF00FC0
0000001FFFFFC0
0000001FFFFFC0
0000001FFFFFC0
0000000FFFFFC0
0000000FFFFFC0
00000003FFFFC0
000000003FFC00
ENDCHAR
STARTCHAR 0106
ENCODING 262
SWIDTH 483 0
DWIDTH 43 0
BBX 41 76 1 1
BITMAP
00000007FF00
0000000FFF00
0000001FFF00
0000001FFE00
0000003FFC00
0000003FF800
0000007FF800
000000FFF000
000000FFE000
000000FFC000
000001FF8000
000001FF0000
000003FF0000
0000007E0000
000000000000
000000000000
000000400000
00000FFE0000
00007FFFC000
0001FFFFF000
000FFFFFF800
003FFFFFFE00
007FFFFFFF00
00FFFFFFFF80
01FFFFFFFF80
03FFFFFFFF80
07FFFFFFFF80
0FFFFFFFFF80
0FFFFFFFFF80
1FFFFFFFFF80
1FFFFFFFFF80
3FFFFFFFFF00
3FFFFFFFFF00
3FFFFFFE3600
7FFFFF800000
7FFFFE000000
7FFFFC000000
7FFFF8000000
FFFFF0000000
7FFFE0000000
7FFFE0000000
7FFFC0000000
FFFFC0000000
FFFFC0000000
FFFFC0000000
7FFFC0000000
7FFFC0000000
7FFFE0000000
7FFFF0000000
FFFFF8000200
FFFFFC00FF00
7FFFFF7FFF00
7FFFFFFFFF80
7FFFFFFFFF80
7FFFFFFFFF80
7FFFFFFFFF80
3FFFFFFFFF80
3FFFFFFFFF00
3FFFFFFFFF00
3FFFFFFFFF00
1FFFFFFFFF00
1FFFFFFFFF00
0FFFFFFFFF00
0FFFFFFFFF00
0FFFFFFFFF80
07FFFFFFFF00
07FFFFFFFF00
03FFFFFFFE00
03FFFFFFFC00
01FFFFFFF800
00FFFFFFF000
00FFFFFFF000
007FFFFFE000
0007FFFF8000
0001FFFE0000
000003F00000
ENDCHAR
STARTCHAR 0107
ENCODING 263
SWIDTH 483 0
DWIDTH 43 0
BBX 41 76 1 1
BITMAP
00000007FF00
0000000FFF00
0000001FFF00
0000001FFE00
0000003FFC00
0000003FF800
0000007FF800
000000FFF000
000000FFE000
000000FFC000
000001FF8000
000001FF0000
000003FF0000
0000007E0000
000000000000
000000000000
000000400000
00000FFE0000
00007FFFC000
0001FFFFF000
000FFFFFF800
003FFFFFFE00
007FFFFFFF00
00FFFFFFFF80
01FFFFFFFF80
03FFFFFFFF80
07FFFFFFFF80
0FFFFFFFFF80
0FFFFFFFFF80
1FFFFFFFFF80
1FFFFFFFFF80
3FFFFFFFFF00
3FFFFFFFFF00
3FFFFFFE3600
7FFFFF800000
7FFFFE000000
7FFFFC000000
7FFFF8000000
FFFFF0000000
7FFFE0000000
7FFFE0000000
7FFFC0000000
FFFFC0000000
FFFFC0000000
FFFFC0000000
7FFFC0000000
7FFFC0000000
7FFFE0000000
7FFFF0000000
FFFFF8000200
FFFFFC00FF00
7FFFFF7FFF00
7FFFFFFFFF80
7FFFFFFFFF80
7FFFFFFFFF80
7FFFFFFFFF80
3FFFFFFFFF80
3FFFFFFFFF00
3FFFFFFFFF00
3FFFFFFFFF00
1FFFFFFFFF00
1FFFFFFFFF00
0FFFFFFFFF00
0FFFFFFFFF00
0FFFFFFFFF80
07FFFFFFFF00
07FFFFFFFF00
03FFFFFFFE00
03FFFFFFFC00
01FFFFFFF800
00FFFFFFF000
00FFFFFFF000
007FFFFFE000
0007FFFF8000
0001FFFE0000
000003F00000
ENDCHAR
STARTCHAR 0108
ENCODING 264
SWIDTH 483 0
DWIDTH 43 0
BBX 41 76 1 1
BITMAP
000000700000
000003F80000
000007FE0000
00001FFF0000
00003FFF8000
00007FFFC000
0000FFFFF000
0001FFFFF800
0003FFFFFC00
0007FFDFFE00
000FFF0FFE00
000FFE07FE00
0007FC03FC00
0003E001F800
000000000000
000000000000
000000400000
00000FFE0000
00007FFFC000
0001FFFFF000
000FFFFFF800
003FFFFFFE00
007FFFFFFF00
00FFFFFFFF80
01FFFFFFFF80
03FFFFFFFF80
07FFFFFFFF80
0FFFFFFFFF80
0FFFFFFFFF80
1FFFFFFFFF80
1FFFFFFFFF80
3FFFFFFFFF00
3FFFFFFFFF00
3FFFFFFE3600
7FFFFF800000
7FFFFE000000
7FFFFC000000
7FFFF8000000
FFFFF0000000
7FFFE0000000
7FFFE0000000
7FFFC0000000
FFFFC0000000
FFFFC0000000
FFFFC0000000
7FFFC0000000
7FFFC0000000
7FFFE0000000
7FFFF0000000
FFFFF8000200
FFFFFC00FF00
7FFFFF7FFF00
7FFFFFFFFF80
7FFFFFFFFF80
7FFFFFFFFF80
7FFFFFFFFF80
3FFFFFFFFF80
3FFFFFFFFF00
3FFFFFFFFF00
3FFFFFFFFF00
1FFFFFFFFF00
1FFFFFFFFF00
0FFFFFFFFF00
0FFFFFFFFF00
0FFFFFFFFF80
07FFFFFFFF00
07FFFFFFFF00
03FFFFFFFE00
03FFFFFFFC00
01FFFFFFF800
00FFFFFFF000
00FFFFFFF000
007FFFFFE000
0007FFFF8000
0001FFFE0000
000003F00000
ENDCHAR
STARTCHAR 0109
ENCODING 265
SWIDTH 483 0
DWIDTH 43 0
BBX 41 76 1 1
BITMAP
000000700000
000003F80000
000007FE0000
00001FFF0000
00003FFF8000
00007FFFC000
0000FFFFF000
0001FFFFF800
0003FFFFFC00
0007FFDFFE00
000FFF0FFE00
000FFE07FE00
0007FC03FC00
0003E001F800
000000000000
000000000000
000000400000
00000FFE0000
00007FFFC000
0001FFFFF000
000FFFFFF800
003FFFFFFE00
007FFFFFFF00
00FFFFFFFF80
01FFFFFFFF80
03FFFFFFFF80
07FFFFFFFF80
0FFFFFFFFF80
0FFFFFFFFF80
1FFFFFFFFF80
1FFFFFFFFF80
3FFFFFFFFF00
3FFFFFFFFF00
3FFFFFFE3600
7FFFFF800000
7FFFFE000000
7FFFFC000000
7FFFF8000000
FFFFF0000000
7FFFE0000000
7FFFE0000000
7FFFC0000000
FFFFC0000000
FFFFC0000000
FFFFC0000000
7FFFC0000000
7FFFC0000000
7FFFE0000000
7FFFF0000000
FFFFF8000200
FFFFFC00FF00
7FFFFF7FFF00
7FFFFFFFFF80
7FFFFFFFFF80
7FFFFFFFFF80
7FFFFFFFFF80
3FFFFFFFFF80
3FFFFFFFFF00
3FFFFFFFFF00
3FFFFFFFFF00
1FFFFFFFFF00
1FFFFFFFFF00
0FFFFFFFFF00
0FFFFFFFFF00
0FFFFFFFFF80
07FFFFFFFF00
07FFFFFFFF00
03FFFFFFFE00
03FFFFFFFC00
01FFFFFFF800
00FFFFFFF000
00FFFFFFF000
007FFFFFE000
0007FFFF8000
0001FFFE0000
000003F00000
ENDCHAR
STARTCHAR 010A
ENCODING 266
SWIDTH 483 0
DWIDTH 43 0
BBX 41 71 1 1
BITMAP
000001C00000
000003F80000
000007F80000
00000FF80000
00000FF80000
00000FF80000
00000FF80000
00000FF80000
000003F00000
000000E00000
000000000000
000000400000
00000FFE0000
00007FFFC000
0001FFFFF000
000FFFFFF800
003FFFFFFE00
007FFFFFFF00
00FFFFFFFF80
01FFFFFFFF80
03FFFFFFFF80
07FFFFFFFF80
0FFFFFFFFF80
0FFFFFFFFF80
1FFFFFFFFF80
1FFFFFFFFF80
3FFFFFFFFF00
3FFFFFFFFF00
3FFFFFFE3600
7FFFFF800000
7FFFFE000000
7FFFFC000000
7FFFF8000000
FFFFF0000000
7FFFE0000000
7FFFE0000000
7FFFC0000000
FFFFC0000000
FFFFC0000000
FFFFC0000000
7FFFC0000000
7FFFC0000000
7FFFE0000000
7FFFF0000000
FFFFF8000200
FFFFFC00FF00
7FFFFF7FFF00
7FFFFFFFFF80
7FFFFFFFFF80
7FFFFFFFFF80
7FFFFFFFFF80
3FFFFFFFFF80
3FFFFFFFFF00
3FFFFFFFFF00
3FFFFFFFFF00
1FFFFFFFFF00
1FFFFFFFFF00
0FFFFFFFFF00
0FFFFFFFFF00
0FFFFFFFFF80
07FFFFFFFF00
07FFFFFFFF00
03FFFFFFFE00
03FFFFFFFC00
01FFFFFFF800
00FFFFFFF000
00FFFFFFF000
007FFFFFE000
0007FFFF8000
0001FFFE0000
000003F00000
ENDCHAR
STARTCHAR 010B
ENCODING 267
SWIDTH 483 0
DWIDTH 43 0
BBX 41 71 1 1
BITMAP
000001C00000
000003F80000
000007F80000
00000FF80000
00000FF80000
00000FF80000
00000FF80000
00000FF80000
000003F00000
000000E00000
000000000000
000000400000
00000FFE0000
00007FFFC000
0001FFFFF000
000FFFFFF800
003FFFFFFE00
007FFFFFFF00
00FFFFFFFF80
01FFFFFFFF80
03FFFFFFFF80
07FFFFFFFF80
0FFFFFFFFF80
0FFFFFFFFF80
1FFFFFFFFF80
1FFFFFFFFF80
3FFFFFFFFF00
3FFFFFFFFF00
3FFFFFFE3600
7FFFFF800000
7FFFFE000000
7FFFFC000000
7FFFF8000000
FFFFF0000000
7FFFE0000000
7FFFE0000000
7FFFC0000000
FFFFC0000000
FFFFC0000000
FFFFC0000000
7FFFC0000000
7FFFC0000000
7FFFE0000000
7FFFF0000000
FFFFF8000200
FFFFFC00FF00
7FFFFF7FFF00
7FFFFFFFFF80
7FFFFFFFFF80
7FFFFFFFFF80
7FFFFFFFFF80
3FFFFFFFFF80
3FFFFFFFFF00
3FFFFFFFFF00
3FFFFFFFFF00
1FFFFFFFFF00
1FFFFFFFFF00
0FFFFFFFFF00
0FFFFFFFFF00
0FFFFFFFFF80
07FFFFFFFF00
07FFFFFFFF00
03FFFFFFFE00
03FFFFFFFC00
01FFFFFFF800
00FFFFFFF000
00FFFFFFF000
007FFFFFE000
0007FFFF8000
0001FFFE0000
000003F00000
ENDCHAR
STARTCHAR 010C
ENCODING 268
SWIDTH 483 0
DWIDTH 43 0
BBX 41 76 1 1
BITMAP
0000E0001000
0007F003FC00
000FFC07FE00
000FFE1FFE00
000FFF3FFE00
0007FFFFFC00
0003FFFFF800
0001FFFFF000
0000FFFFE000
00007FFFC000
00001FFF0000
00000FFE0000
000007F80000
000001E00000
000000000000
000000000000
000000400000
00000FFE0000
00007FFFC000
0001FFFFF000
000FFFFFF800
003FFFFFFE00
007FFFFFFF00
00FFFFFFFF80
01FFFFFFFF80
03FFFFFFFF80
07FFFFFFFF80
0FFFFFFFFF80
0FFFFFFFFF80
1FFFFFFFFF80
1FFFFFFFFF80
3FFFFFFFFF00
3FFFFFFFFF00
3FFFFFFE3600
7FFFFF800000
7FFFFE000000
7FFFFC000000
7FFFF8000000
FFFFF0000000
7FFFE0000000
7FFFE0000000
7FFFC0000000
FFFFC0000000
FFFFC0000000
FFFFC0000000
7FFFC0000000
7FFFC0000000
7FFFE0000000
7FFFF0000000
FFFFF8000200
FFFFFC00FF00
7FFFFF7FFF00
7FFFFFFFFF80
7FFFFFFFFF80
7FFFFFFFFF80
7FFFFFFFFF80
3FFFFFFFFF80
3FFFFFFFFF00
3FFFFFFFFF00
3FFFFFFFFF00
1FFFFFFFFF00
1FFFFFFFFF00
0FFFFFFFFF00
0FFFFFFFFF00
0FFFFFFFFF80
07FFFFFFFF00
07FFFFFFFF00
03FFFFFFFE00
03FFFFFFFC00
01FFFFFFF800
00FFFFFFF000
00FFFFFFF000
007FFFFFE000
0007FFFF8000
0001FFFE0000
000003F00000
ENDCHAR
STARTCHAR 010D
ENCODING 269
SWIDTH 483 0
DWIDTH 43 0
BBX 41 76 1 1
BITMAP
0000E0001000
0007F003FC00
000FFC07FE00
000FFE1FFE00
000FFF3FFE00
0007FFFFFC00
0003FFFFF800
0001FFFFF000
0000FFFFE000
00007FFFC000
00001FFF0000
00000FFE0000
000007F80000
000001E00000
000000000000
000000000000
000000400000
00000FFE0000
00007FFFC000
0001FFFFF000
000FFFFFF800
003FFFFFFE00
007FFFFFFF00
00FFFFFFFF80
01FFFFFFFF80
03FFFFFFFF80
07FFFFFFFF80
0FFFFFFFFF80
0FFFFFFFFF80
1FFFFFFFFF80
1FFFFFFFFF80
3FFFFFFFFF00
3FFFFFFFFF00
3FFFFFFE3600
7FFFFF800000
7FFFFE000000
7FFFFC000000
7FFFF8000000
FFFFF0000000
7FFFE0000000
7FFFE0000000
7FFFC0000000
FFFFC0000000
FFFFC0000000
FFFFC0000000
7FFFC0000000
7FFFC0000000
7FFFE0000000
7FFFF0000000
FFFFF8000200
FFFFFC00FF00
7FFFFF7FFF00
7FFFFFFFFF80
7FFFFFFFFF80
7FFFFFFFFF80
7FFFFFFFFF80
3FFFFFFFFF80
3FFFFFFFFF00
3FFFFFFFFF00
3FFFFFFFFF00
1FFFFFFFFF00
1FFFFFFFFF00
0FFFFFFFFF00
0FFFFFFFFF00
0FFFFFFFFF80
07FFFFFFFF00
07FFFFFFFF00
03FFFFFFFE00
03FFFFFFFC00
01FFFFFFF800
00FFFFFFF000
00FFFFFFF000
007FFFFFE000
0007FFFF8000
0001FFFE0000
000003F00000
ENDCHAR
STARTCHAR 010E
ENCODING 270
SWIDTH 461 0
DWIDTH 41 0
BBX 39 78 1 0
BITMAP
0000078000
00003FE000
3F007FE000
7FC0FFE000
FFE1FFC000
FFF3FFC000
7FFFFF8000
3FFFFF0000
1FFFFE0000
0FFFFC0000
03FFF80000
01FFF00000
007FE00000
003F800000
000E000000
0000000000
0000000000
03F0000000
0FFFC00000
3FFFF80000
7FFFFE0000
FFFFFFC000
FFFFFFF000
FFFFFFF800
FFFFFFFC00
FFFFFFFE00
FFFFFFFE00
FFFFFFFF00
FFFFFFFF80
FFFFFFFFC0
FFFFFFFFC0
7FFFFFFFE0
7FFFFFFFF0
7FFFFFFFF0
7FFFC3FFF8
7FFF80FFF8
7FFF803FF8
7FFF801FFC
7FFF801FFC
7FFF801FFC
7FFF001FFE
7FFF801FFE
7FFF801FFE
3FFF801FFE
3FFF803FFE
3FFF803FFE
3FFFC03FFC
3FFFC07FFC
3FFFC07FFC
1FFFC0FFF8
1FFFC1FFF8
1FFFC3FFF0
1FFFC7FFF0
1FFFFFFFE0
1FFFFFFFE0
0FFFFFFFC0
0FFFFFFFC0
0FFFFFFF80
0FFFFFFF80
0FFFFFFF00
07FFFFFF00
07FFFFFE00
07FFFFFE00
07FFFFFC00
07FFFFF800
03FFFFF800
03FFFFF000
03FFFFE000
03FFFFC000
01FFFF8000
01FFFF0000
01FFFC0000
01FFF80000
00FFE00000
00FF800000
00FE000000
00F0000000
0040000000
ENDCHAR
STARTCHAR 010F
ENCODING 271
SWIDTH 461 0
DWIDTH 41 0
BBX 39 78 1 0
BITMAP
0000078000
00003FE000
3F007FE000
7FC0FFE000
FFE1FFC000
FFF3FFC000
7FFFFF8000
3FFFFF0000
1FFFFE0000
0FFFFC0000
03FFF80000
01FFF00000
007FE00000
003F800000
000E000000
0000000000
0000000000
03F0000000
0FFFC00000
3FFFF80000
7FFFFE0000
FFFFFFC000
FFFFFFF000
FFFFFFF800
FFFFFFFC00
FFFFFFFE00
FFFFFFFE00
FFFFFFFF00
FFFFFFFF80
FFFFFFFFC0
FFFFFFFFC0
7FFFFFFFE0
7FFFFFFFF0
7FFFFFFFF0
7FFFC3FFF8
7FFF80FFF8
7FFF803FF8
7FFF801FFC
7FFF801FFC
7FFF801FFC
7FFF001FFE
7FFF801FFE
7FFF801FFE
3FFF801FFE
3FFF803FFE
3FFF803FFE
3FFFC03FFC
3FFFC07FFC
3FFFC07FFC
1FFFC0FFF8
1FFFC1FFF8
1FFFC3FFF0
1FFFC7FFF0
1FFFFFFFE0
1FFFFFFFE0
0FFFFFFFC0
0FFFFFFFC0
0FFFFFFF80
0FFFFFFF80
0FFFFFFF00
07FFFFFF00
07FFFFFE00
07FFFFFE00
07FFFFFC00
07FFFFF800
03FFFFF800
03FFFFF000
03FFFFE000
03FFFFC000
01FFFF8000
01FFFF0000
01FFFC0000
01FFF80000
00FFE00000
00FF800000
00FE000000
00F0000000
0040000000
ENDCHAR
STARTCHAR 0110
ENCODING 272
SWIDTH 483 0
DWIDTH 43 0
BBX 43 61 0 0
BITMAP
003F00000000
01FFFC000000
03FFFF800000
0FFFFFE00000
0FFFFFFC0000
0FFFFFFF0000
0FFFFFFF8000
0FFFFFFF8000
0FFFFFFFC000
0FFFFFFFE000
0FFFFFFFF000
0FFFFFFFF800
0FFFFFFFF800
0FFFFFFFFC00
0FFFFFFFFE00
0FFFFFFFFE00
0FFFFFFFFF00
0FFFFC3FFF00
07FFF80FFF80
07FFF807FF80
07FFFFC3FFC0
07FFFFC1FFC0
07FFFFC1FFC0
7FFFFFE1FFC0
FFFFFFE1FFC0
FFFFFFE1FFE0
FFFFFFE3FFE0
FFFFFFE3FFE0
FFFFFFE3FFE0
FFFFFFE7FFC0
7FFFFFE7FFC0
7FFFFFCFFF80
7FFFFC0FFF80
7FFFFC1FFF00
7FFFFC3FFF00
09FFFC7FFF00
01FFFFFFFE00
01FFFFFFFE00
01FFFFFFFC00
00FFFFFFFC00
00FFFFFFF800
00FFFFFFF800
00FFFFFFF000
00FFFFFFF000
007FFFFFE000
007FFFFFC000
007FFFFFC000
007FFFFF8000
007FFFFF0000
003FFFFF0000
003FFFFE0000
003FFFFC0000
003FFFF80000
001FFFF00000
001FFFC00000
001FFF000000
001FFC000000
000FF0000000
000FC0000000
000F00000000
000C00000000
ENDCHAR
STARTCHAR 0111
ENCODING 273
SWIDTH 483 0
DWIDTH 43 0
BBX 43 61 0 0
BITMAP
003F00000000
01FFFC000000
03FFFF800000
0FFFFFE00000
0FFFFFFC0000
0FFFFFFF0000
0FFFFFFF8000
0FFFFFFF8000
0FFFFFFFC000
0FFFFFFFE000
0FFFFFFFF000
0FFFFFFFF800
0FFFFFFFF800
0FFFFFFFFC00
0FFFFFFFFE00
0FFFFFFFFE00
0FFFFFFFFF00
0FFFFC3FFF00
07FFF80FFF80
07FFF807FF80
07FFFFC3FFC0
07FFFFC1FFC0
07FFFFC1FFC0
7FFFFFE1FFC0
FFFFFFE1FFC0
FFFFFFE1FFE0
FFFFFFE3FFE0
FFFFFFE3FFE0
FFFFFFE3FFE0
FFFFFFE7FFC0
7FFFFFE7FFC0
7FFFFFCFFF80
7FFFFC0FFF80
7FFFFC1FFF00
7FFFFC3FFF00
09FFFC7FFF00
01FFFFFFFE00
01FFFFFFFE00
01FFFFFFFC00
00FFFFFFFC00
00FFFFFFF800
00FFFFFFF800
00FFFFFFF000
00FFFFFFF000
007FFFFFE000
007FFFFFC000
007FFFFFC000
007FFFFF8000
007FFFFF0000
003FFFFF0000
003FFFFE0000
003FFFFC0000
003FFFF80000
001FFFF00000
001FFFC00000
001FFF000000
001FFC000000
000FF0000000
000FC0000000
000F00000000
000C00000000
ENDCHAR
STARTCHAR 0112
ENCODING 274
SWIDTH 495 0
DWIDTH 44 0
BBX 42 73 1 0
BITMAP
000007C00000
001FFFC00000
3FFFFFC00000
FFFFFFC00000
FFFFFFE00000
7FFFFFE00000
7FFFFFE00000
7FFFFC000000
7FFF00000000
7FC000000000
000000000000
003FFF000000
01FFFFFC0000
0FFFFFFF8000
3FFFFFFF8000
7FFFFFFF8000
FFFFFFFF0000
7FFFFFFF0000
7FFFFFFF0000
3FFFFFFE0000
3FFFFFFE0000
3FFFFFFE0000
3FFFFFFE0000
1FFFFFFE0000
1FFFFFFE0000
1FFFFFFC0000
1FFFFFFE0000
1FFFFFFE0000
0FFFFFFC0000
0FFFFFF80000
0FFFF0000000
0FFFE0000000
0FFFE0000000
0FFFE0000000
07FFE0000000
07FFF0000000
07FFF07C0000
07FFFFFE0000
07FFFFFC0000
03FFFFFC0000
03FFFFFC0000
03FFFFFC0000
03FFFFFC0000
03FFFFFE0000
03FFFFFE0000
01FFFFEE0000
01FFF8000000
01FFF8000000
01FFFC000000
01FFFC001800
01FFFFFFFC00
00FFFFFFFC00
00FFFFFFFE00
01FFFFFFFE00
00FFFFFFFE00
00FFFFFFFF00
00FFFFFFFF00
007FFFFFFF00
00FFFFFFFF00
00FFFFFFFF00
00FFFFFFFF80
007FFFFFFF80
007FFFFFFF80
007FFFFFFF80
007FFFFFFF80
007FFFFFFFC0
007FFFFFFF80
007FFFFFF800
007FFFFFC000
003FFFFC0000
003FFFC00000
003FF8000000
001C00000000
ENDCHAR
STARTCHAR 0113
ENCODING 275
SWIDTH 495 0
DWIDTH 44 0
BBX 42 73 1 0
BITMAP
000007C00000
001FFFC00000
3FFFFFC00000
FFFFFFC00000
FFFFFFE00000
7FFFFFE00000
7FFFFFE00000
7FFFFC000000
7FFF00000000
7FC000000000
000000000000
003FFF000000
01FFFFFC0000
0FFFFFFF8000
3FFFFFFF8000
7FFFFFFF8000
FFFFFFFF0000
7FFFFFFF0000
7FFFFFFF0000
3FFFFFFE0000
3FFFFFFE0000
3FFFFFFE0000
3FFFFFFE0000
1FFFFFFE0000
1FFFFFFE0000
1FFFFFFC0000
1FFFFFFE0000
1FFFFFFE0000
0FFFFFFC0000
0FFFFFF80000
0FFFF0000000
0FFFE0000000
0FFFE0000000
0FFFE0000000
07FFE0000000
07FFF0000000
07FFF07C0000
07FFFFFE0000
07FFFFFC0000
03FFFFFC0000
03FFFFFC0000
03FFFFFC0000
03FFFFFC0000
03FFFFFE0000
03FFFFFE0000
01FFFFEE0000
01FFF8000000
01FFF8000000
01FFFC000000
01FFFC001800
01FFFFFFFC00
00FFFFFFFC00
00FFFFFFFE00
01FFFFFFFE00
00FFFFFFFE00
00FFFFFFFF00
00FFFFFFFF00
007FFFFFFF00
00FFFFFFFF00
00FFFFFFFF00
00FFFFFFFF80
007FFFFFFF80
007FFFFFFF80
007FFFFFFF80
007FFFFFFF80
007FFFFFFFC0
007FFFFFFF80
007FFFFFF800
007FFFFFC000
003FFFFC0000
003FFFC00000
003FF8000000
001C00000000
ENDCHAR
STARTCHAR 0114
ENCODING 276
SWIDTH 495 0
DWIDTH 44 0
BBX 42 79 1 0
BITMAP
000000200000
00001FE00000
00001FE00000
FE003FE00000
7F003FE00000
7F807FC00000
7FE1FFC00000
3FFFFFC00000
3FFFFF800000
1FFFFF000000
1FFFFE000000
0FFFFC000000
07FFFC000000
01FFF8000000
007FC0000000
000000000000
000000000000
003FFF000000
01FFFFFC0000
0FFFFFFF8000
3FFFFFFF8000
7FFFFFFF8000
FFFFFFFF0000
7FFFFFFF0000
7FFFFFFF0000
3FFFFFFE0000
3FFFFFFE0000
3FFFFFFE0000
3FFFFFFE0000
1FFFFFFE0000
1FFFFFFE0000
1FFFFFFC0000
1FFFFFFE0000
1FFFFFFE0000
0FFFFFFC0000
0FFFFFF80000
0FFFF0000000
0FFFE0000000
0FFFE0000000
0FFFE0000000
07FFE0000000
07FFF0000000
07FFF07C0000
07FFFFFE0000
07FFFFFC0000
03FFFFFC0000
03FFFFFC0000
03FFFFFC0000
03FFFFFC0000
03FFFFFE0000
03FFFFFE0000
01FFFFEE0000
01FFF8000000
01FFF8000000
01FFFC000000
01FFFC001800
01FFFFFFFC00
00FFFFFFFC00
00FFFFFFFE00
01FFFFFFFE00
00FFFFFFFE00
00FFFFFFFF00
00FFFFFFFF00
007FFFFFFF00
00FFFFFFFF00
00FFFFFFFF00
00FFFFFFFF80
007FFFFFFF80
007FFFFFFF80
007FFFFFFF80
007FFFFFFF80
007FFFFFFFC0
007FFFFFFF80
007FFFFFF800
007FFFFFC000
003FFFFC0000
003FFFC00000
003FF8000000
001C00000000
ENDCHAR
STARTCHAR 0115
ENCODING 277
SWIDTH 495 0
DWIDTH 44 0
BBX 42 79 1 0
BITMAP
000000200000
00001FE00000
00001FE00000
FE003FE00000
7F003FE00000
7F807FC00000
7FE1FFC00000
3FFFFFC00000
3FFFFF800000
1FFFFF000000
1FFFFE000000
0FFFFC000000
07FFFC000000
01FFF8000000
007FC0000000
000000000000
000000000000
003FFF000000
01FFFFFC0000
0FFFFFFF8000
3FFFFFFF8000
7FFFFFFF8000
FFFFFFFF0000
7FFFFFFF0000
7FFFFFFF0000
3FFFFFFE0000
3FFFFFFE0000
3FFFFFFE0000
3FFFFFFE0000
1FFFFFFE0000
1FFFFFFE0000
1FFFFFFC0000
1FFFFFFE0000
1FFFFFFE0000
0FFFFFFC0000
0FFFFFF80000
0FFFF0000000
0FFFE0000000
0FFFE0000000
0FFFE0000000
07FFE0000000
07FFF0000000
07FFF07C0000
07FFFFFE0000
07FFFFFC0000
03FFFFFC0000
03FFFFFC0000
03FFFFFC0000
03FFFFFC0000
03FFFFFE0000
03FFFFFE0000
01FFFFEE0000
01FFF8000000
01FFF8000000
01FFFC000000
01FFFC001800
01FFFFFFFC00
00FFFFFFFC00
00FFFFFFFE00
01FFFFFFFE00
00FFFFFFFE00
00FFFFFFFF00
00FFFFFFFF00
007FFFFFFF00
00FFFFFFFF00
00FFFFFFFF00
00FFFFFFFF80
007FFFFFFF80
007FFFFFFF80
007FFFFFFF80
007FFFFFFF80
007FFFFFFFC0
007FFFFFFF80
007FFFFFF800
007FFFFFC000
003FFFFC0000
003FFFC00000
003FF8000000
001C00000000
ENDCHAR
STARTCHAR 0116
ENCODING 278
SWIDTH 495 0
DWIDTH 44 0
BBX 42 73 1 0
BITMAP
001F80000000
003F80000000
007FC0000000
007FC0000000
007FC0000000
007FC0000000
007FC0000000
007F80000000
001F00000000
000000000000
000000000000
003FFF000000
01FFFFFC0000
0FFFFFFF8000
3FFFFFFF8000
7FFFFFFF8000
FFFFFFFF0000
7FFFFFFF0000
7FFFFFFF0000
3FFFFFFE0000
3FFFFFFE0000
3FFFFFFE0000
3FFFFFFE0000
1FFFFFFE0000
1FFFFFFE0000
1FFFFFFC0000
1FFFFFFE0000
1FFFFFFE0000
0FFFFFFC0000
0FFFFFF80000
0FFFF0000000
0FFFE0000000
0FFFE0000000
0FFFE0000000
07FFE0000000
07FFF0000000
07FFF07C0000
07FFFFFE0000
07FFFFFC0000
03FFFFFC0000
03FFFFFC0000
03FFFFFC0000
03FFFFFC0000
03FFFFFE0000
03FFFFFE0000
01FFFFEE0000
01FFF8000000
01FFF8000000
01FFFC000000
01FFFC001800
01FFFFFFFC00
00FFFFFFFC00
00FFFFFFFE00
01FFFFFFFE00
00FFFFFFFE00
00FFFFFFFF00
00FFFFFFFF00
007FFFFFFF00
00FFFFFFFF00
00FFFFFFFF00
00FFFFFFFF80
007FFFFFFF80
007FFFFFFF80
007FFFFFFF80
007FFFFFFF80
007FFFFFFFC0
007FFFFFFF80
007FFFFFF800
007FFFFFC000
003FFFFC0000
003FFFC00000
003FF8000000
001C00000000
ENDCHAR
STARTCHAR 0117
ENCODING 279
SWIDTH 495 0
DWIDTH 44 0
BBX 42 73 1 0
BITMAP
001F80000000
003F80000000
007FC0000000
007FC0000000
007FC0000000
007FC0000000
007FC0000000
007F80000000
001F00000000
000000000000
000000000000
003FFF000000
01FFFFFC0000
0FFFFFFF8000
3FFFFFFF8000
7FFFFFFF8000
FFFFFFFF0000
7FFFFFFF0000
7FFFFFFF0000
3FFFFFFE0000
3FFFFFFE0000
3FFFFFFE0000
3FFFFFFE0000
1FFFFFFE0000
1FFFFFFE0000
1FFFFFFC0000
1FFFFFFE0000
1FFFFFFE0000
0FFFFFFC0000
0FFFFFF80000
0FFFF0000000
0FFFE0000000
0FFFE0000000
0FFFE0000000
07FFE0000000
07FFF0000000
07FFF07C0000
07FFFFFE0000
07FFFFFC0000
03FFFFFC0000
03FFFFFC0000
03FFFFFC0000
03FFFFFC0000
03FFFFFE0000
03FFFFFE0000
01FFFFEE0000
01FFF8000000
01FFF8000000
01FFFC000000
01FFFC001800
01FFFFFFFC00
00FFFFFFFC00
00FFFFFFFE00
01FFFFFFFE00
00FFFFFFFE00
00FFFFFFFF00
00FFFFFFFF00
007FFFFFFF00
00FFFFFFFF00
00FFFFFFFF00
00FFFFFFFF80
007FFFFFFF80
007FFFFFFF80
007FFFFFFF80
007FFFFFFF80
007FFFFFFFC0
007FFFFFFF80
007FFFFFF800
007FFFFFC000
003FFFFC0000
003FFFC00000
003FF8000000
001C00000000
ENDCHAR
STARTCHAR 0118
ENCODING 280
SWIDTH 495 0
DWIDTH 44 0
BBX 42 75 1 -13
BITMAP
003FFF000000
01FFFFFC0000
0FFFFFFF8000
3FFFFFFF8000
7FFFFFFF8000
FFFFFFFF0000
7FFFFFFF0000
7FFFFFFF0000
3FFFFFFE0000
3FFFFFFE0000
3FFFFFFE0000
3FFFFFFE0000
1FFFFFFE0000
1FFFFFFE0000
1FFFFFFC0000
1FFFFFFE0000
1FFFFFFE0000
0FFFFFFC0000
0FFFFFF80000
0FFFF0000000
0FFFE0000000
0FFFE0000000
0FFFE0000000
07FFE0000000
07FFF0000000
07FFF07C0000
07FFFFFE0000
07FFFFFC0000
03FFFFFC0000
03FFFFFC0000
03FFFFFC0000
03FFFFFC0000
03FFFFFE0000
03FFFFFE0000
01FFFFEE0000
01FFF8000000
01FFF8000000
01FFFC000000
01FFFC001800
01FFFFFFFC00
00FFFFFFFC00
00FFFFFFFE00
01FFFFFFFE00
00FFFFFFFE00
00FFFFFFFF00
00FFFFFFFF00
007FFFFFFF00
00FFFFFFFF00
00FFFFFFFF00
00FFFFFFFF80
007FFFFFFF80
007FFFFFFF80
007FFFFFFF80
007FFFFFFF80
007FFFFFFFC0
007FFFFFFF80
007FFFFFF800
007FFFFF8000
003FFFFC0000
003FFFF00000
003FFFF00000
001C07F00000
00000FE00000
00000FE00000
00001FE00000
00001FE00000
00003FE00780
00003FE03F80
00003FFFFF80
00003FFFFFC0
00003FFFFFC0
00003FFFFFC0
00001FFFFFC0
00000FFFFF00
000007FFE000
ENDCHAR
STARTCHAR 0119
ENCODING 281
SWIDTH 495 0
DWIDTH 44 0
BBX 42 75 1 -13
BITMAP
003FFF000000
01FFFFFC0000
0FFFFFFF8000
3FFFFFFF8000
7FFFFFFF8000
FFFFFFFF0000
7FFFFFFF0000
7FFFFFFF0000
3FFFFFFE0000
3FFFFFFE0000
3FFFFFFE0000
3FFFFFFE0000
1FFFFFFE0000
1FFFFFFE0000
1FFFFFFC0000
1FFFFFFE0000
1FFFFFFE0000
0FFFFFFC0000
0FFFFFF80000
0FFFF0000000
0FFFE0000000
0FFFE0000000
0FFFE0000000
07FFE0000000
07FFF0000000
07FFF07C0000
07FFFFFE0000
07FFFFFC0000
03FFFFFC0000
03FFFFFC0000
03FFFFFC0000
03FFFFFC0000
03FFFFFE0000
03FFFFFE0000
01FFFFEE0000
01FFF8000000
01FFF8000000
01FFFC000000
01FFFC001800
01FFFFFFFC00
00FFFFFFFC00
00FFFFFFFE00
01FFFFFFFE00
00FFFFFFFE00
00FFFFFFFF00
00FFFFFFFF00
007FFFFFFF00
00FFFFFFFF00
00FFFFFFFF00
00FFFFFFFF80
007FFFFFFF80
007FFFFFFF80
007FFFFFFF80
007FFFFFFF80
007FFFFFFFC0
007FFFFFFF80
007FFFFFF800
007FFFFF8000
003FFFFC0000
003FFFF00000
003FFFF00000
001C07F00000
00000FE00000
00000FE00000
00001FE00000
00001FE00000
00003FE00780
00003FE03F80
00003FFFFF80
00003FFFFFC0
00003FFFFFC0
00003FFFFFC0
00001FFFFFC0
00000FFFFF00
000007FFE000
ENDCHAR
STARTCHAR 011A
ENCODING 282
SWIDTH 495 0
DWIDTH 44 0
BBX 42 78 1 0
BITMAP
000007800000
00003FE00000
3F007FE00000
7FC0FFE00000
FFE1FFC00000
FFF3FFC00000
7FFFFF800000
3FFFFF000000
1FFFFE000000
0FFFFC000000
03FFF8000000
01FFF0000000
007FE0000000
003F80000000
000E00000000
000000000000
003FFF000000
01FFFFFC0000
0FFFFFFF8000
3FFFFFFF8000
7FFFFFFF8000
FFFFFFFF0000
7FFFFFFF0000
7FFFFFFF0000
3FFFFFFE0000
3FFFFFFE0000
3FFFFFFE0000
3FFFFFFE0000
1FFFFFFE0000
1FFFFFFE0000
1FFFFFFC0000
1FFFFFFE0000
1FFFFFFE0000
0FFFFFFC0000
0FFFFFF80000
0FFFF0000000
0FFFE0000000
0FFFE0000000
0FFFE0000000
07FFE0000000
07FFF0000000
07FFF07C0000
07FFFFFE0000
07FFFFFC0000
03FFFFFC0000
03FFFFFC0000
03FFFFFC0000
03FFFFFC0000
03FFFFFE0000
03FFFFFE0000
01FFFFEE0000
01FFF8000000
01FFF8000000
01FFFC000000
01FFFC001800
01FFFFFFFC00
00FFFFFFFC00
00FFFFFFFE00
01FFFFFFFE00
00FFFFFFFE00
00FFFFFFFF00
00FFFFFFFF00
007FFFFFFF00
00FFFFFFFF00
00FFFFFFFF00
00FFFFFFFF80
007FFFFFFF80
007FFFFFFF80
007FFFFFFF80
007FFFFFFF80
007FFFFFFFC0
007FFFFFFF80
007FFFFFF800
007FFFFFC000
003FFFFC0000
003FFFC00000
003FF8000000
001C00000000
ENDCHAR
STARTCHAR 011B
ENCODING 283
SWIDTH 495 0
DWIDTH 44 0
BBX 42 78 1 0
BITMAP
000007800000
00003FE00000
3F007FE00000
7FC0FFE00000
FFE1FFC00000
FFF3FFC00000
7FFFFF800000
3FFFFF000000
1FFFFE000000
0FFFFC000000
03FFF8000000
01FFF0000000
007FE0000000
003F80000000
000E00000000
000000000000
003FFF000000
01FFFFFC0000
0FFFFFFF8000
3FFFFFFF8000
7FFFFFFF8000
FFFFFFFF0000
7FFFFFFF0000
7FFFFFFF0000
3FFFFFFE0000
3FFFFFFE0000
3FFFFFFE0000
3FFFFFFE0000
1FFFFFFE0000
1FFFFFFE0000
1FFFFFFC0000
1FFFFFFE0000
1FFFFFFE0000
0FFFFFFC0000
0FFFFFF80000
0FFFF0000000
0FFFE0000000
0FFFE0000000
0FFFE0000000
07FFE0000000
07FFF0000000
07FFF07C0000
07FFFFFE0000
07FFFFFC0000
03FFFFFC0000
03FFFFFC0000
03FFFFFC0000
03FFFFFC0000
03FFFFFE0000
03FFFFFE0000
01FFFFEE0000
01FFF8000000
01FFF8000000
01FFFC000000
01FFFC001800
01FFFFFFFC00
00FFFFFFFC00
00FFFFFFFE00
01FFFFFFFE00
00FFFFFFFE00
00FFFFFFFF00
00FFFFFFFF00
007FFFFFFF00
00FFFFFFFF00
00FFFFFFFF00
00FFFFFFFF80
007FFFFFFF80
007FFFFFFF80
007FFFFFFF80
007FFFFFFF80
007FFFFFFFC0
007FFFFFFF80
007FFFFFF800
007FFFFFC000
003FFFFC0000
003FFFC00000
003FF8000000
001C00000000
ENDCHAR
STARTCHAR 011C
ENCODING 284
SWIDTH 506 0
DWIDTH 45 0
BBX 43 76 1 1
BITMAP
000001C00000
00000FE00000
00003FF80000
00007FFC0000
0000FFFE0000
0003FFFF0000
0007FFFF8000
000FFFFFE000
001FFFFFF000
001FFF7FF000
003FFC3FF800
003FF81FF800
001FE00FF000
000F0007E000
000000000000
000000000000
00003FF00000
00007FFF8000
0001FFFFE000
0003FFFFF000
0007FFFFF800
000FFFFFFC00
000FFFFFFE00
001FFFFFFF00
003FFFFFFF00
007FFFFFFF80
007FFFFFFF80
00FFFFFFFF80
00FFFFFFFF00
01FFFFDFFE00
01FFFE03F800
03FFF0000000
03FFE0000000
03FFC0000000
07FF80000000
07FF80000000
07FF00000000
0FFF00000000
0FFF00000000
0FFE00000000
0FFE00000000
1FFE00000F80
1FFE0007FFE0
1FFC007FFFC0
1FFC03FFFFC0
3FFC03FFFFC0
3FFC01FFFFC0
3FFC01FFFFC0
3FFC01FFFFC0
3FFC00FFFFC0
7FFC00FFFFC0
7FFC00FFFFC0
7FFE00FFFFC0
7FFE00FFFFC0
7FFE00FFFFC0
7FFE00FFFFC0
7FFF00FFFFC0
FFFFC3FFFFC0
FFFFFFFFFFC0
FFFFFFFFFFC0
7FFFFFFFFFC0
7FFFFFFFFFC0
7FFFFFFFFFC0
7FFFFFFFFFC0
7FFFFFFFFF80
7FFFFFFFFF00
3FFFFFFFFC00
3FFFFFFFF800
1FFFFFFFF000
0FFFFFFFC000
07FFFFFF0000
03FFFFFC0000
01FFFFF00000
00FFFFC00000
007FFE000000
001FE0000000
ENDCHAR
STARTCHAR 011D
ENCODING 285
SWIDTH 506 0
DWIDTH 45 0
BBX 43 76 1 1
BITMAP
000001C00000
00000FE00000
00003FF80000
00007FFC0000
0000FFFE0000
0003FFFF0000
0007FFFF8000
000FFFFFE000
001FFFFFF000
001FFF7FF000
003FFC3FF800
003FF81FF800
001FE00FF000
000F0007E000
000000000000
000000000000
00003FF00000
00007FFF8000
0001FFFFE000
0003FFFFF000
0007FFFFF800
000FFFFFFC00
000FFFFFFE00
001FFFFFFF00
003FFFFFFF00
007FFFFFFF80
007FFFFFFF80
00FFFFFFFF80
00FFFFFFFF00
01FFFFDFFE00
01FFFE03F800
03FFF0000000
03FFE0000000
03FFC0000000
07FF80000000
07FF80000000
07FF00000000
0FFF00000000
0FFF00000000
0FFE00000000
0FFE00000000
1FFE00000F80
1FFE0007FFE0
1FFC007FFFC0
1FFC03FFFFC0
3FFC03FFFFC0
3FFC01FFFFC0
3FFC01FFFFC0
3FFC01FFFFC0
3FFC00FFFFC0
7FFC00FFFFC0
7FFC00FFFFC0
7FFE00FFFFC0
7FFE00FFFFC0
7FFE00FFFFC0
7FFE00FFFFC0
7FFF00FFFFC0
FFFFC3FFFFC0
FFFFFFFFFFC0
FFFFFFFFFFC0
7FFFFFFFFFC0
7FFFFFFFFFC0
7FFFFFFFFFC0
7FFFFFFFFFC0
7FFFFFFFFF80
7FFFFFFFFF00
3FFFFFFFFC00
3FFFFFFFF800
1FFFFFFFF000
0FFFFFFFC000
07FFFFFF0000
03FFFFFC0000
01FFFFF00000
00FFFFC00000
007FFE000000
001FE0000000
ENDCHAR
STARTCHAR 011E
ENCODING 286
SWIDTH 506 0
DWIDTH 45 0
BBX 43 75 1 1
BITMAP
003F8007F800
003F800FF800
003FC00FF000
001FE03FF000
001FFDFFF000
001FFFFFE000
000FFFFFE000
000FFFFFC000
0007FFFF8000
0003FFFF0000
0001FFFE0000
00007FFC0000
00001FF00000
000000000000
000000000000
00003FF00000
00007FFF8000
0001FFFFE000
0003FFFFF000
0007FFFFF800
000FFFFFFC00
000FFFFFFE00
001FFFFFFF00
003FFFFFFF00
007FFFFFFF80
007FFFFFFF80
00FFFFFFFF80
00FFFFFFFF00
01FFFFDFFE00
01FFFE03F800
03FFF0000000
03FFE0000000
03FFC0000000
07FF80000000
07FF80000000
07FF00000000
0FFF00000000
0FFF00000000
0FFE00000000
0FFE00000000
1FFE00000F80
1FFE0007FFE0
1FFC007FFFC0
1FFC03FFFFC0
3FFC03FFFFC0
3FFC01FFFFC0
3FFC01FFFFC0
3FFC01FFFFC0
3FFC00FFFFC0
7FFC00FFFFC0
7FFC00FFFFC0
7FFE00FFFFC0
7FFE00FFFFC0
7FFE00FFFFC0
7FFE00FFFFC0
7FFF00FFFFC0
FFFFC3FFFFC0
FFFFFFFFFFC0
FFFFFFFFFFC0
7FFFFFFFFFC0
7FFFFFFFFFC0
7FFFFFFFFFC0
7FFFFFFFFFC0
7FFFFFFFFF80
7FFFFFFFFF00
3FFFFFFFFC00
3FFFFFFFF800
1FFFFFFFF000
0FFFFFFFC000
07FFFFFF0000
03FFFFFC0000
01FFFFF00000
00FFFFC00000
007FFE000000
001FE0000000
ENDCHAR
STARTCHAR 011F
ENCODING 287
SWIDTH 506 0
DWIDTH 45 0
BBX 43 75 1 1
BITMAP
003F8007F800
003F800FF800
003FC00FF000
001FE03FF000
001FFDFFF000
001FFFFFE000
000FFFFFE000
000FFFFFC000
0007FFFF8000
0003FFFF0000
0001FFFE0000
00007FFC0000
00001FF00000
000000000000
000000000000
00003FF00000
00007FFF8000
0001FFFFE000
0003FFFFF000
0007FFFFF800
000FFFFFFC00
000FFFFFFE00
001FFFFFFF00
003FFFFFFF00
007FFFFFFF80
007FFFFFFF80
00FFFFFFFF80
00FFFFFFFF00
01FFFFDFFE00
01FFFE03F800
03FFF0000000
03FFE0000000
03FFC0000000
07FF80000000
07FF80000000
07FF00000000
0FFF00000000
0FFF00000000
0FFE00000000
0FFE00000000
1FFE00000F80
1FFE0007FFE0
1FFC007FFFC0
1FFC03FFFFC0
3FFC03FFFFC0
3FFC01FFFFC0
3FFC01FFFFC0
3FFC01FFFFC0
3FFC00FFFFC0
7FFC00FFFFC0
7FFC00FFFFC0
7FFE00FFFFC0
7FFE00FFFFC0
7FFE00FFFFC0
7FFE00FFFFC0
7FFF00FFFFC0
FFFFC3FFFFC0
FFFFFFFFFFC0
FFFFFFFFFFC0
7FFFFFFFFFC0
7FFFFFFFFFC0
7FFFFFFFFFC0
7FFFFFFFFFC0
7FFFFFFFFF80
7FFFFFFFFF00
3FFFFFFFFC00
3FFFFFFFF800
1FFFFFFFF000
0FFFFFFFC000
07FFFFFF0000
03FFFFFC0000
01FFFFF00000
00FFFFC00000
007FFE000000
001FE0000000
ENDCHAR
STARTCHAR 0120
ENCODING 288
SWIDTH 506 0
DWIDTH 45 0
BBX 43 71 1 1
BITMAP
000007000000
00001FC00000
00001FE00000
00003FE00000
00003FE00000
00003FE00000
00003FE00000
00003FE00000
00001FC00000
000007800000
000000000000
00003FF00000
00007FFF8000
0001FFFFE000
0003FFFFF000
0007FFFFF800
000FFFFFFC00
000FFFFFFE00
001FFFFFFF00
003FFFFFFF00
007FFFFFFF80
007FFFFFFF80
00FFFFFFFF80
00FFFFFFFF00
01FFFFDFFE00
01FFFE03F800
03FFF0000000
03FFE0000000
03FFC0000000
07FF80000000
07FF80000000
07FF00000000
0FFF00000000
0FFF00000000
0FFE00000000
0FFE00000000
1FFE00000F80
1FFE0007FFE0
1FFC007FFFC0
1FFC03FFFFC0
3FFC03FFFFC0
3FFC01FFFFC0
3FFC01FFFFC0
3FFC01FFFFC0
3FFC00FFFFC0
7FFC00FFFFC0
7FFC00FFFFC0
7FFE00FFFFC0
7FFE00FFFFC0
7FFE00FFFFC0
7FFE00FFFFC0
7FFF00FFFFC0
FFFFC3FFFFC0
FFFFFFFFFFC0
FFFFFFFFFFC0
7FFFFFFFFFC0
7FFFFFFFFFC0
7FFFFFFFFFC0
7FFFFFFFFFC0
7FFFFFFFFF80
7FFFFFFFFF00
3FFFFFFFFC00
3FFFFFFFF800
1FFFFFFFF000
0FFFFFFFC000
07FFFFFF0000
03FFFFFC0000
01FFFFF00000
00FFFFC00000
007FFE000000
001FE0000000
ENDCHAR
STARTCHAR 0121
ENCODING 289
SWIDTH 506 0
DWIDTH 45 0
BBX 43 71 1 1
BITMAP
000007000000
00001FC00000
00001FE00000
00003FE00000
00003FE00000
00003FE00000
00003FE00000
00003FE00000
00001FC00000
000007800000
000000000000
00003FF00000
00007FFF8000
0001FFFFE000
0003FFFFF000
0007FFFFF800
000FFFFFFC00
000FFFFFFE00
001FFFFFFF00
003FFFFFFF00
007FFFFFFF80
007FFFFFFF80
00FFFFFFFF80
00FFFFFFFF00
01FFFFDFFE00
01FFFE03F800
03FFF0000000
03FFE0000000
03FFC0000000
07FF80000000
07FF80000000
07FF00000000
0FFF00000000
0FFF00000000
0FFE00000000
0FFE00000000
1FFE00000F80
1FFE0007FFE0
1FFC007FFFC0
1FFC03FFFFC0
3FFC03FFFFC0
3FFC01FFFFC0
3FFC01FFFFC0
3FFC01FFFFC0
3FFC00FFFFC0
7FFC00FFFFC0
7FFC00FFFFC0
7FFE00FFFFC0
7FFE00FFFFC0
7FFE00FFFFC0
7FFE00FFFFC0
7FFF00FFFFC0
FFFFC3FFFFC0
FFFFFFFFFFC0
FFFFFFFFFFC0
7FFFFFFFFFC0
7FFFFFFFFFC0
7FFFFFFFFFC0
7FFFFFFFFFC0
7FFFFFFFFF80
7FFFFFFFFF00
3FFFFFFFFC00
3FFFFFFFF800
1FFFFFFFF000
0FFFFFFFC000
07FFFFFF0000
03FFFFFC0000
01FFFFF00000
00FFFFC00000
007FFE000000
001FE0000000
ENDCHAR
STARTCHAR 0122
ENCODING 290
SWIDTH 506 0
DWIDTH 45 0
BBX 43 76 1 -15
BITMAP
00003FF00000
00007FFF8000
0001FFFFE000
0003FFFFF000
0007FFFFF800
000FFFFFFC00
000FFFFFFE00
001FFFFFFF00
003FFFFFFF00
007FFFFFFF80
007FFFFFFF80
00FFFFFFFF80
00FFFFFFFF00
01FFFFDFFE00
01FFFE03F800
03FFF0000000
03FFE0000000
03FFC0000000
07FF80000000
07FF80000000
07FF00000000
0FFF00000000
0FFF00000000
0FFE00000000
0FFE00000000
1FFE00000F80
1FFE0007FFE0
1FFC007FFFC0
1FFC03FFFFC0
3FFC03FFFFC0
3FFC01FFFFC0
3FFC01FFFFC0
3FFC01FFFFC0
3FFC00FFFFC0
7FFC00FFFFC0
7FFC00FFFFC0
7FFE00FFFFC0
7FFE00FFFFC0
7FFE00FFFFC0
7FFE00FFFFC0
7FFF00FFFFC0
FFFFC3FFFFC0
FFFFFFFFFFC0
FFFFFFFFFFC0
7FFFFFFFFFC0
7FFFFFFFFFC0
7FFFFFFFFFC0
7FFFFFFFFFC0
7FFFFFFFFF80
7FFFFFFFFF00
3FFFFFFFFC00
3FFFFFFFF800
1FFFFFFFF000
0FFFFFFFC000
07FFFFFF0000
03FFFFFC0000
01FFFFF00000
00FFFFC00000
007FFE000000
001FE0000000
000000000000
000000000000
000FF8000000
001FFC000000
003FFE000000
003FFE000000
003FFE000000
003FFC000000
003FFC000000
003FFC000000
003FF8000000
007FF0000000
007FF0000000
003FE0000000
001FC0000000
000700000000
ENDCHAR
STARTCHAR 0123
ENCODING 291
SWIDTH 506 0
DWIDTH 45 0
BBX 43 76 1 -15
BITMAP
00003FF00000
00007FFF8000
0001FFFFE000
0003FFFFF000
0007FFFFF800
000FFFFFFC00
000FFFFFFE00
001FFFFFFF00
003FFFFFFF00
007FFFFFFF80
007FFFFFFF80
00FFFFFFFF80
00FFFFFFFF00
01FFFFDFFE00
01FFFE03F800
03FFF0000000
03FFE0000000
03FFC0000000
07FF80000000
07FF80000000
07FF00000000
0FFF00000000
0FFF00000000
0FFE00000000
0FFE00000000
1FFE00000F80
1FFE0007FFE0
1FFC007FFFC0
1FFC03FFFFC0
3FFC03FFFFC0
3FFC01FFFFC0
3FFC01FFFFC0
3FFC01FFFFC0
3FFC00FFFFC0
7FFC00FFFFC0
7FFC00FFFFC0
7FFE00FFFFC0
7FFE00FFFFC0
7FFE00FFFFC0
7FFE00FFFFC0
7FFF00FFFFC0
FFFFC3FFFFC0
FFFFFFFFFFC0
FFFFFFFFFFC0
7FFFFFFFFFC0
7FFFFFFFFFC0
7FFFFFFFFFC0
7FFFFFFFFFC0
7FFFFFFFFF80
7FFFFFFFFF00
3FFFFFFFFC00
3FFFFFFFF800
1FFFFFFFF000
0FFFFFFFC000
07FFFFFF0000
03FFFFFC0000
01FFFFF00000
00FFFFC00000
007FFE000000
001FE0000000
000000000000
000000000000
000FF8000000
001FFC000000
003FFE000000
003FFE000000
003FFE000000
003FFC000000
003FFC000000
003FFC000000
003FF8000000
007FF0000000
007FF0000000
003FE0000000
001FC0000000
000700000000
ENDCHAR
STARTCHAR 0124
ENCODING 292
SWIDTH 562 0
DWIDTH 50 0
BBX 47 76 2 1
BITMAP
0000000F0000
0000003F8000
000000FFC000
000001FFF000
000003FFF800
00000FFFFC00
00001FFFFE00
00003FFFFF80
00007FFFFFC0
00007FFDFFC0
0000FFF0FFE0
0000FFE07FE0
00007F803FC0
00003C001F80
000000000000
000000000000
000000000000
0007FE000000
007FFF800000
03FFFF007FFC
07FFFE00FFFE
0FFFFE00FFFE
0FFFFC01FFFE
07FFFC01FFFE
07FFFF01FFFC
07FFFF01FFFC
03FFFF01FFFC
03FFFE01FFFC
07FFFE01FFFC
07FFFE03FFFC
07FFFE03FFFC
07FFFE03FFFC
07FFFE03FFFC
07FFFE03FFFC
07FFFE03FFFC
07FFFE03FFFC
07FFFE03FFFC
0FFFFE03FFFC
0FFFFE07FFF8
0FFFFF9FFFF8
0FFFFFFFFFF8
0FFFFFFFFFF8
0FFFFFFFFFF8
0FFFFFFFFFF8
0FFFFFFFFFF8
0FFFFFFFFFF8
1FFFFFFFFFF8
1FFFFFFFFFF8
1FFFFFFFFFF8
1FFFFFFFFFF8
1FFFFFFFFFFC
1FFFFFFFFFFC
1FFFFFFFFFFC
1FFFFFFFFFFC
1FFFFFFFFFFC
1FFFFFFFFFFC
1FFFFDFFFFFC
3FFFF80FFFF8
3FFFF80FFFF8
3FFFF80FFFF8
3FFFF80FFFF8
3FFFF80FFFF8
3FFFF80FFFF8
3FFFF80FFFF8
3FFFF80FFFF8
3FFFF81FFFF8
3FFFF81FFFF0
3FFFF81FFFF0
7FFFF81FFFF0
7FFFF81FFFF0
7FFFF80FFFF0
7FFFF80FFFF0
7FFFF80FFFF0
FFFFF01FFC00
FFFFF01FE000
001FC01C0000
ENDCHAR
ENDFONT
